solid Visualization Toolkit generated SLA File
 facet normal 0.08715483080388442 -0.99619477787606703 0
  outer loop
   vertex 1 0.54757499694824219 -0.10999999940395355
   vertex 1.0437593460083008 0.55140340328216553 -0.10999999940395355
   vertex 1 0.54757499694824219 0.10999999940395355
  endloop
 endfacet
 facet normal 0.08715483080388442 -0.99619477787606703 0
  outer loop
   vertex 1 0.54757499694824219 0.10999999940395355
   vertex 1.0437593460083008 0.55140340328216553 -0.10999999940395355
   vertex 1.0437593460083008 0.55140340328216553 0.10999999940395355
  endloop
 endfacet
 facet normal 0.25882136378297577 -0.96592520499752998 0
  outer loop
   vertex 1.0437593460083008 0.55140340328216553 0.10999999940395355
   vertex 1.0437593460083008 0.55140340328216553 -0.10999999940395355
   vertex 1.0861890316009521 0.56277251243591309 -0.10999999940395355
  endloop
 endfacet
 facet normal 0.25882136378297577 -0.96592520499752998 0
  outer loop
   vertex 1.0437593460083008 0.55140340328216553 0.10999999940395355
   vertex 1.0861890316009521 0.56277251243591309 -0.10999999940395355
   vertex 1.0861890316009521 0.56277251243591309 0.10999999940395355
  endloop
 endfacet
 facet normal 0.42261683686206397 -0.90630845146710604 0
  outer loop
   vertex 1.0861890316009521 0.56277251243591309 0.10999999940395355
   vertex 1.0861890316009521 0.56277251243591309 -0.10999999940395355
   vertex 1.1260000467300415 0.5813366174697876 -0.10999999940395355
  endloop
 endfacet
 facet normal 0.42261683686206397 -0.90630845146710604 0
  outer loop
   vertex 1.0861890316009521 0.56277251243591309 0.10999999940395355
   vertex 1.1260000467300415 0.5813366174697876 -0.10999999940395355
   vertex 1.1260000467300415 0.5813366174697876 0.10999999940395355
  endloop
 endfacet
 facet normal 0.57357690260988281 -0.81915171781084184 0
  outer loop
   vertex 1.1260000467300415 0.5813366174697876 0.10999999940395355
   vertex 1.1260000467300415 0.5813366174697876 -0.10999999940395355
   vertex 1.161982536315918 0.60653185844421387 -0.10999999940395355
  endloop
 endfacet
 facet normal 0.57357690260988281 -0.81915171781084184 0
  outer loop
   vertex 1.1260000467300415 0.5813366174697876 0.10999999940395355
   vertex 1.161982536315918 0.60653185844421387 -0.10999999940395355
   vertex 1.161982536315918 0.60653185844421387 0.10999999940395355
  endloop
 endfacet
 facet normal 0.70710678118654757 -0.70710678118654757 0
  outer loop
   vertex 1.161982536315918 0.60653185844421387 0.10999999940395355
   vertex 1.161982536315918 0.60653185844421387 -0.10999999940395355
   vertex 1.1930432319641113 0.63759255409240723 -0.10999999940395355
  endloop
 endfacet
 facet normal 0.70710678118654757 -0.70710678118654757 0
  outer loop
   vertex 1.161982536315918 0.60653185844421387 0.10999999940395355
   vertex 1.1930432319641113 0.63759255409240723 -0.10999999940395355
   vertex 1.1930432319641113 0.63759255409240723 0.10999999940395355
  endloop
 endfacet
 facet normal 0.819152992896101 -0.57357508159730963 0
  outer loop
   vertex 1.1930432319641113 0.63759255409240723 0.10999999940395355
   vertex 1.1930432319641113 0.63759255409240723 -0.10999999940395355
   vertex 1.218238353729248 0.67357504367828369 -0.10999999940395355
  endloop
 endfacet
 facet normal 0.819152992896101 -0.57357508159730963 0
  outer loop
   vertex 1.1930432319641113 0.63759255409240723 0.10999999940395355
   vertex 1.218238353729248 0.67357504367828369 -0.10999999940395355
   vertex 1.218238353729248 0.67357504367828369 0.10999999940395355
  endloop
 endfacet
 facet normal 0.90630692730033779 -0.42262010544627471 0
  outer loop
   vertex 1.218238353729248 0.67357504367828369 0.10999999940395355
   vertex 1.218238353729248 0.67357504367828369 -0.10999999940395355
   vertex 1.2368025779724121 0.7133859395980835 -0.10999999940395355
  endloop
 endfacet
 facet normal 0.90630692730033779 -0.42262010544627471 0
  outer loop
   vertex 1.218238353729248 0.67357504367828369 0.10999999940395355
   vertex 1.2368025779724121 0.7133859395980835 -0.10999999940395355
   vertex 1.2368025779724121 0.7133859395980835 0.10999999940395355
  endloop
 endfacet
 facet normal 0.96592588345961961 -0.2588188317390242 0
  outer loop
   vertex 1.2368025779724121 0.7133859395980835 0.10999999940395355
   vertex 1.2368025779724121 0.7133859395980835 -0.10999999940395355
   vertex 1.2481715679168701 0.75581562519073486 -0.10999999940395355
  endloop
 endfacet
 facet normal 0.96592588345961961 -0.2588188317390242 0
  outer loop
   vertex 1.2368025779724121 0.7133859395980835 0.10999999940395355
   vertex 1.2481715679168701 0.75581562519073486 -0.10999999940395355
   vertex 1.2481715679168701 0.75581562519073486 0.10999999940395355
  endloop
 endfacet
 facet normal 0.99619477787606703 -0.08715483080388442 0
  outer loop
   vertex 1.2481715679168701 0.75581562519073486 0.10999999940395355
   vertex 1.2481715679168701 0.75581562519073486 -0.10999999940395355
   vertex 1.2519999742507935 0.79957497119903564 -0.10999999940395355
  endloop
 endfacet
 facet normal 0.99619477787606703 -0.08715483080388442 0
  outer loop
   vertex 1.2481715679168701 0.75581562519073486 0.10999999940395355
   vertex 1.2519999742507935 0.79957497119903564 -0.10999999940395355
   vertex 1.2519999742507935 0.79957497119903564 0.10999999940395355
  endloop
 endfacet
 facet normal 0.99619477787606703 0.08715483080388442 -0
  outer loop
   vertex 1.2519999742507935 0.79957497119903564 0.10999999940395355
   vertex 1.2519999742507935 0.79957497119903564 -0.10999999940395355
   vertex 1.2481715679168701 0.84333431720733643 -0.10999999940395355
  endloop
 endfacet
 facet normal 0.99619477787606703 0.08715483080388442 -0
  outer loop
   vertex 1.2519999742507935 0.79957497119903564 0.10999999940395355
   vertex 1.2481715679168701 0.84333431720733643 -0.10999999940395355
   vertex 1.2481715679168701 0.84333431720733643 0.10999999940395355
  endloop
 endfacet
 facet normal 0.96592606525135161 0.25881815328149144 -0
  outer loop
   vertex 1.2481715679168701 0.84333431720733643 0.10999999940395355
   vertex 1.2481715679168701 0.84333431720733643 -0.10999999940395355
   vertex 1.2368025779724121 0.88576412200927734 -0.10999999940395355
  endloop
 endfacet
 facet normal 0.96592606525135161 0.25881815328149144 -0
  outer loop
   vertex 1.2481715679168701 0.84333431720733643 0.10999999940395355
   vertex 1.2368025779724121 0.88576412200927734 -0.10999999940395355
   vertex 1.2368025779724121 0.88576412200927734 0.10999999940395355
  endloop
 endfacet
 facet normal 0.90630692730033779 0.42262010544627471 -0
  outer loop
   vertex 1.2368025779724121 0.88576412200927734 0.10999999940395355
   vertex 1.2368025779724121 0.88576412200927734 -0.10999999940395355
   vertex 1.218238353729248 0.92557501792907715 -0.10999999940395355
  endloop
 endfacet
 facet normal 0.90630692730033779 0.42262010544627471 -0
  outer loop
   vertex 1.2368025779724121 0.88576412200927734 0.10999999940395355
   vertex 1.218238353729248 0.92557501792907715 -0.10999999940395355
   vertex 1.218238353729248 0.92557501792907715 0.10999999940395355
  endloop
 endfacet
 facet normal 0.819152992896101 0.57357508159730963 -0
  outer loop
   vertex 1.218238353729248 0.92557501792907715 0.10999999940395355
   vertex 1.218238353729248 0.92557501792907715 -0.10999999940395355
   vertex 1.1930432319641113 0.96155750751495361 -0.10999999940395355
  endloop
 endfacet
 facet normal 0.819152992896101 0.57357508159730963 -0
  outer loop
   vertex 1.218238353729248 0.92557501792907715 0.10999999940395355
   vertex 1.1930432319641113 0.96155750751495361 -0.10999999940395355
   vertex 1.1930432319641113 0.96155750751495361 0.10999999940395355
  endloop
 endfacet
 facet normal 0.70710678118654757 0.70710678118654757 -0
  outer loop
   vertex 1.1930432319641113 0.96155750751495361 0.10999999940395355
   vertex 1.1930432319641113 0.96155750751495361 -0.10999999940395355
   vertex 1.161982536315918 0.99261820316314697 -0.10999999940395355
  endloop
 endfacet
 facet normal 0.70710678118654757 0.70710678118654757 -0
  outer loop
   vertex 1.1930432319641113 0.96155750751495361 0.10999999940395355
   vertex 1.161982536315918 0.99261820316314697 -0.10999999940395355
   vertex 1.161982536315918 0.99261820316314697 0.10999999940395355
  endloop
 endfacet
 facet normal 0.57357690260988281 0.81915171781084184 -0
  outer loop
   vertex 1.161982536315918 0.99261820316314697 0.10999999940395355
   vertex 1.161982536315918 0.99261820316314697 -0.10999999940395355
   vertex 1.1260000467300415 1.0178134441375732 -0.10999999940395355
  endloop
 endfacet
 facet normal 0.57357690260988281 0.81915171781084184 -0
  outer loop
   vertex 1.161982536315918 0.99261820316314697 0.10999999940395355
   vertex 1.1260000467300415 1.0178134441375732 -0.10999999940395355
   vertex 1.1260000467300415 1.0178134441375732 0.10999999940395355
  endloop
 endfacet
 facet normal 0.42261683686206397 0.90630845146710604 -0
  outer loop
   vertex 1.1260000467300415 1.0178134441375732 0.10999999940395355
   vertex 1.1260000467300415 1.0178134441375732 -0.10999999940395355
   vertex 1.0861890316009521 1.0363775491714478 -0.10999999940395355
  endloop
 endfacet
 facet normal 0.42261683686206397 0.90630845146710604 -0
  outer loop
   vertex 1.1260000467300415 1.0178134441375732 0.10999999940395355
   vertex 1.0861890316009521 1.0363775491714478 -0.10999999940395355
   vertex 1.0861890316009521 1.0363775491714478 0.10999999940395355
  endloop
 endfacet
 facet normal 0.2588188317390242 0.96592588345961961 -0
  outer loop
   vertex 1.0861890316009521 1.0363775491714478 0.10999999940395355
   vertex 1.0861890316009521 1.0363775491714478 -0.10999999940395355
   vertex 1.0437593460083008 1.0477465391159058 -0.10999999940395355
  endloop
 endfacet
 facet normal 0.2588188317390242 0.96592588345961961 -0
  outer loop
   vertex 1.0861890316009521 1.0363775491714478 0.10999999940395355
   vertex 1.0437593460083008 1.0477465391159058 -0.10999999940395355
   vertex 1.0437593460083008 1.0477465391159058 0.10999999940395355
  endloop
 endfacet
 facet normal 0.08715483080388442 0.99619477787606703 -0
  outer loop
   vertex 1.0437593460083008 1.0477465391159058 0.10999999940395355
   vertex 1.0437593460083008 1.0477465391159058 -0.10999999940395355
   vertex 1 1.0515749454498291 0.10999999940395355
  endloop
 endfacet
 facet normal 0.08715483080388442 0.99619477787606703 0
  outer loop
   vertex 1 1.0515749454498291 0.10999999940395355
   vertex 1.0437593460083008 1.0477465391159058 -0.10999999940395355
   vertex 1 1.0515749454498291 -0.10999999940395355
  endloop
 endfacet
 facet normal -1 0 0
  outer loop
   vertex 1 0.54957497119903564 -0.10999999940395355
   vertex 1 0.54757499694824219 -0.10999999940395355
   vertex 1 0.54957497119903564 0.10999999940395355
  endloop
 endfacet
 facet normal -1 0 0
  outer loop
   vertex 1 0.54957497119903564 0.10999999940395355
   vertex 1 0.54757499694824219 -0.10999999940395355
   vertex 1 0.54757499694824219 0.10999999940395355
  endloop
 endfacet
 facet normal -0.087154428448045065 -0.9961948130771886 0
  outer loop
   vertex 1 1.0495749711990356 -0.10999999940395355
   vertex 1.0434120893478394 1.0457769632339478 -0.10999999940395355
   vertex 1 1.0495749711990356 0.10999999940395355
  endloop
 endfacet
 facet normal -0.087154428448045065 -0.9961948130771886 0
  outer loop
   vertex 1 1.0495749711990356 0.10999999940395355
   vertex 1.0434120893478394 1.0457769632339478 -0.10999999940395355
   vertex 1.0434120893478394 1.0457769632339478 0.10999999940395355
  endloop
 endfacet
 facet normal -0.25881871892665809 -0.96592591368756819 0
  outer loop
   vertex 1.0434120893478394 1.0457769632339478 0.10999999940395355
   vertex 1.0434120893478394 1.0457769632339478 -0.10999999940395355
   vertex 1.0855050086975098 1.0344982147216797 -0.10999999940395355
  endloop
 endfacet
 facet normal -0.25881871892665809 -0.96592591368756819 0
  outer loop
   vertex 1.0434120893478394 1.0457769632339478 0.10999999940395355
   vertex 1.0855050086975098 1.0344982147216797 -0.10999999940395355
   vertex 1.0855050086975098 1.0344982147216797 0.10999999940395355
  endloop
 endfacet
 facet normal -0.42261948047228126 -0.90630721873178255 0
  outer loop
   vertex 1.0855050086975098 1.0344982147216797 0.10999999940395355
   vertex 1.0855050086975098 1.0344982147216797 -0.10999999940395355
   vertex 1.125 1.0160813331604004 -0.10999999940395355
  endloop
 endfacet
 facet normal -0.42261948047228126 -0.90630721873178255 0
  outer loop
   vertex 1.0855050086975098 1.0344982147216797 0.10999999940395355
   vertex 1.125 1.0160813331604004 -0.10999999940395355
   vertex 1.125 1.0160813331604004 0.10999999940395355
  endloop
 endfacet
 facet normal -0.57357635063989054 -0.8191521043045823 0
  outer loop
   vertex 1.125 1.0160813331604004 0.10999999940395355
   vertex 1.125 1.0160813331604004 -0.10999999940395355
   vertex 1.1606968641281128 0.99108612537384033 -0.10999999940395355
  endloop
 endfacet
 facet normal -0.57357635063989054 -0.8191521043045823 0
  outer loop
   vertex 1.125 1.0160813331604004 0.10999999940395355
   vertex 1.1606968641281128 0.99108612537384033 -0.10999999940395355
   vertex 1.1606968641281128 0.99108612537384033 0.10999999940395355
  endloop
 endfacet
 facet normal -0.70710541341300037 -0.70710814895744889 0
  outer loop
   vertex 1.1606968641281128 0.99108612537384033 0.10999999940395355
   vertex 1.1606968641281128 0.99108612537384033 -0.10999999940395355
   vertex 1.1915111541748047 0.96027195453643799 -0.10999999940395355
  endloop
 endfacet
 facet normal -0.70710541341300037 -0.70710814895744889 0
  outer loop
   vertex 1.1606968641281128 0.99108612537384033 0.10999999940395355
   vertex 1.1915111541748047 0.96027195453643799 -0.10999999940395355
   vertex 1.1915111541748047 0.96027195453643799 0.10999999940395355
  endloop
 endfacet
 facet normal -0.81915300426953686 -0.57357506535430236 0
  outer loop
   vertex 1.1915111541748047 0.96027195453643799 0.10999999940395355
   vertex 1.1915111541748047 0.96027195453643799 -0.10999999940395355
   vertex 1.2165063619613647 0.92457497119903564 -0.10999999940395355
  endloop
 endfacet
 facet normal -0.81915300426953686 -0.57357506535430236 0
  outer loop
   vertex 1.1915111541748047 0.96027195453643799 0.10999999940395355
   vertex 1.2165063619613647 0.92457497119903564 -0.10999999940395355
   vertex 1.2165063619613647 0.92457497119903564 0.10999999940395355
  endloop
 endfacet
 facet normal -0.90630826650625884 -0.42261723351328201 0
  outer loop
   vertex 1.2165063619613647 0.92457497119903564 0.10999999940395355
   vertex 1.2165063619613647 0.92457497119903564 -0.10999999940395355
   vertex 1.2349231243133545 0.88507997989654541 -0.10999999940395355
  endloop
 endfacet
 facet normal -0.90630826650625884 -0.42261723351328201 0
  outer loop
   vertex 1.2165063619613647 0.92457497119903564 0.10999999940395355
   vertex 1.2349231243133545 0.88507997989654541 -0.10999999940395355
   vertex 1.2349231243133545 0.88507997989654541 0.10999999940395355
  endloop
 endfacet
 facet normal -0.9659252297976455 -0.25882127122855619 0
  outer loop
   vertex 1.2349231243133545 0.88507997989654541 0.10999999940395355
   vertex 1.2349231243133545 0.88507997989654541 -0.10999999940395355
   vertex 1.2462019920349121 0.842987060546875 -0.10999999940395355
  endloop
 endfacet
 facet normal -0.9659252297976455 -0.25882127122855619 0
  outer loop
   vertex 1.2349231243133545 0.88507997989654541 0.10999999940395355
   vertex 1.2462019920349121 0.842987060546875 -0.10999999940395355
   vertex 1.2462019920349121 0.842987060546875 0.10999999940395355
  endloop
 endfacet
 facet normal -0.9961948130771886 -0.087154428448045065 0
  outer loop
   vertex 1.2462019920349121 0.842987060546875 0.10999999940395355
   vertex 1.2462019920349121 0.842987060546875 -0.10999999940395355
   vertex 1.25 0.79957497119903564 -0.10999999940395355
  endloop
 endfacet
 facet normal -0.9961948130771886 -0.087154428448045065 0
  outer loop
   vertex 1.2462019920349121 0.842987060546875 0.10999999940395355
   vertex 1.25 0.79957497119903564 -0.10999999940395355
   vertex 1.25 0.79957497119903564 0.10999999940395355
  endloop
 endfacet
 facet normal -0.99619479229820107 0.08715466595624162 0
  outer loop
   vertex 1.25 0.79957497119903564 0.10999999940395355
   vertex 1.25 0.79957497119903564 -0.10999999940395355
   vertex 1.2462019920349121 0.75616300106048584 -0.10999999940395355
  endloop
 endfacet
 facet normal -0.99619479229820107 0.08715466595624162 0
  outer loop
   vertex 1.25 0.79957497119903564 0.10999999940395355
   vertex 1.2462019920349121 0.75616300106048584 -0.10999999940395355
   vertex 1.2462019920349121 0.75616300106048584 0.10999999940395355
  endloop
 endfacet
 facet normal -0.96592541304713475 0.25882058733748775 0
  outer loop
   vertex 1.2462019920349121 0.75616300106048584 0.10999999940395355
   vertex 1.2462019920349121 0.75616300106048584 -0.10999999940395355
   vertex 1.2349231243133545 0.71406996250152588 -0.10999999940395355
  endloop
 endfacet
 facet normal -0.96592541304713475 0.25882058733748775 0
  outer loop
   vertex 1.2462019920349121 0.75616300106048584 0.10999999940395355
   vertex 1.2349231243133545 0.71406996250152588 -0.10999999940395355
   vertex 1.2349231243133545 0.71406996250152588 0.10999999940395355
  endloop
 endfacet
 facet normal -0.90630826650625884 0.42261723351328201 0
  outer loop
   vertex 1.2349231243133545 0.71406996250152588 0.10999999940395355
   vertex 1.2349231243133545 0.71406996250152588 -0.10999999940395355
   vertex 1.2165063619613647 0.67457497119903564 -0.10999999940395355
  endloop
 endfacet
 facet normal -0.90630826650625884 0.42261723351328201 0
  outer loop
   vertex 1.2349231243133545 0.71406996250152588 0.10999999940395355
   vertex 1.2165063619613647 0.67457497119903564 -0.10999999940395355
   vertex 1.2165063619613647 0.67457497119903564 0.10999999940395355
  endloop
 endfacet
 facet normal -0.8191521043045823 0.57357635063989054 0
  outer loop
   vertex 1.2165063619613647 0.67457497119903564 0.10999999940395355
   vertex 1.2165063619613647 0.67457497119903564 -0.10999999940395355
   vertex 1.1915111541748047 0.63887810707092285 -0.10999999940395355
  endloop
 endfacet
 facet normal -0.8191521043045823 0.57357635063989054 0
  outer loop
   vertex 1.2165063619613647 0.67457497119903564 0.10999999940395355
   vertex 1.1915111541748047 0.63887810707092285 -0.10999999940395355
   vertex 1.1915111541748047 0.63887810707092285 0.10999999940395355
  endloop
 endfacet
 facet normal -0.70710541341300037 0.70710814895744889 0
  outer loop
   vertex 1.1915111541748047 0.63887810707092285 0.10999999940395355
   vertex 1.1915111541748047 0.63887810707092285 -0.10999999940395355
   vertex 1.1606968641281128 0.60806393623352051 -0.10999999940395355
  endloop
 endfacet
 facet normal -0.70710541341300037 0.70710814895744889 0
  outer loop
   vertex 1.1915111541748047 0.63887810707092285 0.10999999940395355
   vertex 1.1606968641281128 0.60806393623352051 -0.10999999940395355
   vertex 1.1606968641281128 0.60806393623352051 0.10999999940395355
  endloop
 endfacet
 facet normal -0.57357818621713497 0.81915081901678022 0
  outer loop
   vertex 1.1606968641281128 0.60806393623352051 0.10999999940395355
   vertex 1.1606968641281128 0.60806393623352051 -0.10999999940395355
   vertex 1.125 0.5830686092376709 -0.10999999940395355
  endloop
 endfacet
 facet normal -0.57357818621713497 0.81915081901678022 0
  outer loop
   vertex 1.1606968641281128 0.60806393623352051 0.10999999940395355
   vertex 1.125 0.5830686092376709 -0.10999999940395355
   vertex 1.125 0.5830686092376709 0.10999999940395355
  endloop
 endfacet
 facet normal -0.42261723351328201 0.90630826650625884 0
  outer loop
   vertex 1.125 0.5830686092376709 0.10999999940395355
   vertex 1.125 0.5830686092376709 -0.10999999940395355
   vertex 1.0855050086975098 0.56465184688568115 -0.10999999940395355
  endloop
 endfacet
 facet normal -0.42261723351328201 0.90630826650625884 0
  outer loop
   vertex 1.125 0.5830686092376709 0.10999999940395355
   vertex 1.0855050086975098 0.56465184688568115 -0.10999999940395355
   vertex 1.0855050086975098 0.56465184688568115 0.10999999940395355
  endloop
 endfacet
 facet normal -0.25881871892665809 0.96592591368756819 0
  outer loop
   vertex 1.0855050086975098 0.56465184688568115 0.10999999940395355
   vertex 1.0855050086975098 0.56465184688568115 -0.10999999940395355
   vertex 1.0434120893478394 0.55337309837341309 -0.10999999940395355
  endloop
 endfacet
 facet normal -0.25881871892665809 0.96592591368756819 0
  outer loop
   vertex 1.0855050086975098 0.56465184688568115 0.10999999940395355
   vertex 1.0434120893478394 0.55337309837341309 -0.10999999940395355
   vertex 1.0434120893478394 0.55337309837341309 0.10999999940395355
  endloop
 endfacet
 facet normal -0.087157143212065191 0.99619457556599422 0
  outer loop
   vertex 1.0434120893478394 0.55337309837341309 0.10999999940395355
   vertex 1.0434120893478394 0.55337309837341309 -0.10999999940395355
   vertex 1 0.54957497119903564 0.10999999940395355
  endloop
 endfacet
 facet normal -0.087157143212065191 0.99619457556599422 0
  outer loop
   vertex 1 0.54957497119903564 0.10999999940395355
   vertex 1.0434120893478394 0.55337309837341309 -0.10999999940395355
   vertex 1 0.54957497119903564 -0.10999999940395355
  endloop
 endfacet
 facet normal -1 0 0
  outer loop
   vertex 1 1.0515749454498291 -0.10999999940395355
   vertex 1 1.0495749711990356 -0.10999999940395355
   vertex 1 1.0515749454498291 0.10999999940395355
  endloop
 endfacet
 facet normal -1 0 0
  outer loop
   vertex 1 1.0515749454498291 0.10999999940395355
   vertex 1 1.0495749711990356 -0.10999999940395355
   vertex 1 1.0495749711990356 0.10999999940395355
  endloop
 endfacet
 facet normal 0 0 1
  outer loop
   vertex 1 1.0495749711990356 0.10999999940395355
   vertex 1.0434120893478394 1.0457769632339478 0.10999999940395355
   vertex 1 1.0515749454498291 0.10999999940395355
  endloop
 endfacet
 facet normal 0 -0 1
  outer loop
   vertex 1 1.0515749454498291 0.10999999940395355
   vertex 1.0434120893478394 1.0457769632339478 0.10999999940395355
   vertex 1.0437593460083008 1.0477465391159058 0.10999999940395355
  endloop
 endfacet
 facet normal -0 0 1
  outer loop
   vertex 1.0437593460083008 1.0477465391159058 0.10999999940395355
   vertex 1.0434120893478394 1.0457769632339478 0.10999999940395355
   vertex 1.0855050086975098 1.0344982147216797 0.10999999940395355
  endloop
 endfacet
 facet normal 0 -0 1
  outer loop
   vertex 1.0437593460083008 1.0477465391159058 0.10999999940395355
   vertex 1.0855050086975098 1.0344982147216797 0.10999999940395355
   vertex 1.0861890316009521 1.0363775491714478 0.10999999940395355
  endloop
 endfacet
 facet normal -0 0 1
  outer loop
   vertex 1.0861890316009521 1.0363775491714478 0.10999999940395355
   vertex 1.0855050086975098 1.0344982147216797 0.10999999940395355
   vertex 1.125 1.0160813331604004 0.10999999940395355
  endloop
 endfacet
 facet normal 0 -0 1
  outer loop
   vertex 1.0861890316009521 1.0363775491714478 0.10999999940395355
   vertex 1.125 1.0160813331604004 0.10999999940395355
   vertex 1.1260000467300415 1.0178134441375732 0.10999999940395355
  endloop
 endfacet
 facet normal -0 0 1
  outer loop
   vertex 1.1260000467300415 1.0178134441375732 0.10999999940395355
   vertex 1.125 1.0160813331604004 0.10999999940395355
   vertex 1.1606968641281128 0.99108612537384033 0.10999999940395355
  endloop
 endfacet
 facet normal 0 -0 1
  outer loop
   vertex 1.1260000467300415 1.0178134441375732 0.10999999940395355
   vertex 1.1606968641281128 0.99108612537384033 0.10999999940395355
   vertex 1.161982536315918 0.99261820316314697 0.10999999940395355
  endloop
 endfacet
 facet normal -0 0 1
  outer loop
   vertex 1.161982536315918 0.99261820316314697 0.10999999940395355
   vertex 1.1606968641281128 0.99108612537384033 0.10999999940395355
   vertex 1.1915111541748047 0.96027195453643799 0.10999999940395355
  endloop
 endfacet
 facet normal 0 -0 1
  outer loop
   vertex 1.161982536315918 0.99261820316314697 0.10999999940395355
   vertex 1.1915111541748047 0.96027195453643799 0.10999999940395355
   vertex 1.1930432319641113 0.96155750751495361 0.10999999940395355
  endloop
 endfacet
 facet normal -0 0 1
  outer loop
   vertex 1.1930432319641113 0.96155750751495361 0.10999999940395355
   vertex 1.1915111541748047 0.96027195453643799 0.10999999940395355
   vertex 1.2165063619613647 0.92457497119903564 0.10999999940395355
  endloop
 endfacet
 facet normal 0 -0 1
  outer loop
   vertex 1.1930432319641113 0.96155750751495361 0.10999999940395355
   vertex 1.2165063619613647 0.92457497119903564 0.10999999940395355
   vertex 1.218238353729248 0.92557501792907715 0.10999999940395355
  endloop
 endfacet
 facet normal -0 0 1
  outer loop
   vertex 1.218238353729248 0.92557501792907715 0.10999999940395355
   vertex 1.2165063619613647 0.92457497119903564 0.10999999940395355
   vertex 1.2349231243133545 0.88507997989654541 0.10999999940395355
  endloop
 endfacet
 facet normal 0 -0 1
  outer loop
   vertex 1.218238353729248 0.92557501792907715 0.10999999940395355
   vertex 1.2349231243133545 0.88507997989654541 0.10999999940395355
   vertex 1.2368025779724121 0.88576412200927734 0.10999999940395355
  endloop
 endfacet
 facet normal -0 0 1
  outer loop
   vertex 1.2368025779724121 0.88576412200927734 0.10999999940395355
   vertex 1.2349231243133545 0.88507997989654541 0.10999999940395355
   vertex 1.2462019920349121 0.842987060546875 0.10999999940395355
  endloop
 endfacet
 facet normal 0 -0 1
  outer loop
   vertex 1.2368025779724121 0.88576412200927734 0.10999999940395355
   vertex 1.2462019920349121 0.842987060546875 0.10999999940395355
   vertex 1.2481715679168701 0.84333431720733643 0.10999999940395355
  endloop
 endfacet
 facet normal -0 0 1
  outer loop
   vertex 1.2481715679168701 0.84333431720733643 0.10999999940395355
   vertex 1.2462019920349121 0.842987060546875 0.10999999940395355
   vertex 1.25 0.79957497119903564 0.10999999940395355
  endloop
 endfacet
 facet normal 0 -0 1
  outer loop
   vertex 1.2481715679168701 0.84333431720733643 0.10999999940395355
   vertex 1.25 0.79957497119903564 0.10999999940395355
   vertex 1.2519999742507935 0.79957497119903564 0.10999999940395355
  endloop
 endfacet
 facet normal -0 0 1
  outer loop
   vertex 1.2519999742507935 0.79957497119903564 0.10999999940395355
   vertex 1.25 0.79957497119903564 0.10999999940395355
   vertex 1.2481715679168701 0.75581562519073486 0.10999999940395355
  endloop
 endfacet
 facet normal 0 0 1
  outer loop
   vertex 1.2481715679168701 0.75581562519073486 0.10999999940395355
   vertex 1.25 0.79957497119903564 0.10999999940395355
   vertex 1.2462019920349121 0.75616300106048584 0.10999999940395355
  endloop
 endfacet
 facet normal 0 0 1
  outer loop
   vertex 1.2481715679168701 0.75581562519073486 0.10999999940395355
   vertex 1.2462019920349121 0.75616300106048584 0.10999999940395355
   vertex 1.2368025779724121 0.7133859395980835 0.10999999940395355
  endloop
 endfacet
 facet normal 0 0 1
  outer loop
   vertex 1.2368025779724121 0.7133859395980835 0.10999999940395355
   vertex 1.2462019920349121 0.75616300106048584 0.10999999940395355
   vertex 1.2349231243133545 0.71406996250152588 0.10999999940395355
  endloop
 endfacet
 facet normal 0 0 1
  outer loop
   vertex 1.2368025779724121 0.7133859395980835 0.10999999940395355
   vertex 1.2349231243133545 0.71406996250152588 0.10999999940395355
   vertex 1.218238353729248 0.67357504367828369 0.10999999940395355
  endloop
 endfacet
 facet normal 0 0 1
  outer loop
   vertex 1.218238353729248 0.67357504367828369 0.10999999940395355
   vertex 1.2349231243133545 0.71406996250152588 0.10999999940395355
   vertex 1.2165063619613647 0.67457497119903564 0.10999999940395355
  endloop
 endfacet
 facet normal 0 0 1
  outer loop
   vertex 1.218238353729248 0.67357504367828369 0.10999999940395355
   vertex 1.2165063619613647 0.67457497119903564 0.10999999940395355
   vertex 1.1930432319641113 0.63759255409240723 0.10999999940395355
  endloop
 endfacet
 facet normal 0 0 1
  outer loop
   vertex 1.1930432319641113 0.63759255409240723 0.10999999940395355
   vertex 1.2165063619613647 0.67457497119903564 0.10999999940395355
   vertex 1.1915111541748047 0.63887810707092285 0.10999999940395355
  endloop
 endfacet
 facet normal 0 0 1
  outer loop
   vertex 1.1930432319641113 0.63759255409240723 0.10999999940395355
   vertex 1.1915111541748047 0.63887810707092285 0.10999999940395355
   vertex 1.161982536315918 0.60653185844421387 0.10999999940395355
  endloop
 endfacet
 facet normal 0 0 1
  outer loop
   vertex 1.161982536315918 0.60653185844421387 0.10999999940395355
   vertex 1.1915111541748047 0.63887810707092285 0.10999999940395355
   vertex 1.1606968641281128 0.60806393623352051 0.10999999940395355
  endloop
 endfacet
 facet normal 0 0 1
  outer loop
   vertex 1.161982536315918 0.60653185844421387 0.10999999940395355
   vertex 1.1606968641281128 0.60806393623352051 0.10999999940395355
   vertex 1.1260000467300415 0.5813366174697876 0.10999999940395355
  endloop
 endfacet
 facet normal 0 0 1
  outer loop
   vertex 1.1260000467300415 0.5813366174697876 0.10999999940395355
   vertex 1.1606968641281128 0.60806393623352051 0.10999999940395355
   vertex 1.125 0.5830686092376709 0.10999999940395355
  endloop
 endfacet
 facet normal 0 0 1
  outer loop
   vertex 1.1260000467300415 0.5813366174697876 0.10999999940395355
   vertex 1.125 0.5830686092376709 0.10999999940395355
   vertex 1.0861890316009521 0.56277251243591309 0.10999999940395355
  endloop
 endfacet
 facet normal 0 0 1
  outer loop
   vertex 1.0861890316009521 0.56277251243591309 0.10999999940395355
   vertex 1.125 0.5830686092376709 0.10999999940395355
   vertex 1.0855050086975098 0.56465184688568115 0.10999999940395355
  endloop
 endfacet
 facet normal 0 0 1
  outer loop
   vertex 1.0861890316009521 0.56277251243591309 0.10999999940395355
   vertex 1.0855050086975098 0.56465184688568115 0.10999999940395355
   vertex 1.0437593460083008 0.55140340328216553 0.10999999940395355
  endloop
 endfacet
 facet normal 0 0 1
  outer loop
   vertex 1.0437593460083008 0.55140340328216553 0.10999999940395355
   vertex 1.0855050086975098 0.56465184688568115 0.10999999940395355
   vertex 1.0434120893478394 0.55337309837341309 0.10999999940395355
  endloop
 endfacet
 facet normal 0 0 1
  outer loop
   vertex 1.0437593460083008 0.55140340328216553 0.10999999940395355
   vertex 1.0434120893478394 0.55337309837341309 0.10999999940395355
   vertex 1 0.54757499694824219 0.10999999940395355
  endloop
 endfacet
 facet normal 0 0 1
  outer loop
   vertex 1 0.54757499694824219 0.10999999940395355
   vertex 1.0434120893478394 0.55337309837341309 0.10999999940395355
   vertex 1 0.54957497119903564 0.10999999940395355
  endloop
 endfacet
 facet normal 0 0 -1
  outer loop
   vertex 1 1.0495749711990356 -0.10999999940395355
   vertex 1 1.0515749454498291 -0.10999999940395355
   vertex 1.0434120893478394 1.0457769632339478 -0.10999999940395355
  endloop
 endfacet
 facet normal 0 0 -1
  outer loop
   vertex 1.0434120893478394 1.0457769632339478 -0.10999999940395355
   vertex 1 1.0515749454498291 -0.10999999940395355
   vertex 1.0437593460083008 1.0477465391159058 -0.10999999940395355
  endloop
 endfacet
 facet normal 0 -0 -1
  outer loop
   vertex 1.0434120893478394 1.0457769632339478 -0.10999999940395355
   vertex 1.0437593460083008 1.0477465391159058 -0.10999999940395355
   vertex 1.0855050086975098 1.0344982147216797 -0.10999999940395355
  endloop
 endfacet
 facet normal 0 0 -1
  outer loop
   vertex 1.0855050086975098 1.0344982147216797 -0.10999999940395355
   vertex 1.0437593460083008 1.0477465391159058 -0.10999999940395355
   vertex 1.0861890316009521 1.0363775491714478 -0.10999999940395355
  endloop
 endfacet
 facet normal 0 -0 -1
  outer loop
   vertex 1.0855050086975098 1.0344982147216797 -0.10999999940395355
   vertex 1.0861890316009521 1.0363775491714478 -0.10999999940395355
   vertex 1.125 1.0160813331604004 -0.10999999940395355
  endloop
 endfacet
 facet normal 0 0 -1
  outer loop
   vertex 1.125 1.0160813331604004 -0.10999999940395355
   vertex 1.0861890316009521 1.0363775491714478 -0.10999999940395355
   vertex 1.1260000467300415 1.0178134441375732 -0.10999999940395355
  endloop
 endfacet
 facet normal 0 -0 -1
  outer loop
   vertex 1.125 1.0160813331604004 -0.10999999940395355
   vertex 1.1260000467300415 1.0178134441375732 -0.10999999940395355
   vertex 1.1606968641281128 0.99108612537384033 -0.10999999940395355
  endloop
 endfacet
 facet normal 0 0 -1
  outer loop
   vertex 1.1606968641281128 0.99108612537384033 -0.10999999940395355
   vertex 1.1260000467300415 1.0178134441375732 -0.10999999940395355
   vertex 1.161982536315918 0.99261820316314697 -0.10999999940395355
  endloop
 endfacet
 facet normal 0 -0 -1
  outer loop
   vertex 1.1606968641281128 0.99108612537384033 -0.10999999940395355
   vertex 1.161982536315918 0.99261820316314697 -0.10999999940395355
   vertex 1.1915111541748047 0.96027195453643799 -0.10999999940395355
  endloop
 endfacet
 facet normal 0 0 -1
  outer loop
   vertex 1.1915111541748047 0.96027195453643799 -0.10999999940395355
   vertex 1.161982536315918 0.99261820316314697 -0.10999999940395355
   vertex 1.1930432319641113 0.96155750751495361 -0.10999999940395355
  endloop
 endfacet
 facet normal 0 -0 -1
  outer loop
   vertex 1.1915111541748047 0.96027195453643799 -0.10999999940395355
   vertex 1.1930432319641113 0.96155750751495361 -0.10999999940395355
   vertex 1.2165063619613647 0.92457497119903564 -0.10999999940395355
  endloop
 endfacet
 facet normal 0 0 -1
  outer loop
   vertex 1.2165063619613647 0.92457497119903564 -0.10999999940395355
   vertex 1.1930432319641113 0.96155750751495361 -0.10999999940395355
   vertex 1.218238353729248 0.92557501792907715 -0.10999999940395355
  endloop
 endfacet
 facet normal 0 -0 -1
  outer loop
   vertex 1.2165063619613647 0.92457497119903564 -0.10999999940395355
   vertex 1.218238353729248 0.92557501792907715 -0.10999999940395355
   vertex 1.2349231243133545 0.88507997989654541 -0.10999999940395355
  endloop
 endfacet
 facet normal 0 0 -1
  outer loop
   vertex 1.2349231243133545 0.88507997989654541 -0.10999999940395355
   vertex 1.218238353729248 0.92557501792907715 -0.10999999940395355
   vertex 1.2368025779724121 0.88576412200927734 -0.10999999940395355
  endloop
 endfacet
 facet normal 0 -0 -1
  outer loop
   vertex 1.2349231243133545 0.88507997989654541 -0.10999999940395355
   vertex 1.2368025779724121 0.88576412200927734 -0.10999999940395355
   vertex 1.2462019920349121 0.842987060546875 -0.10999999940395355
  endloop
 endfacet
 facet normal 0 0 -1
  outer loop
   vertex 1.2462019920349121 0.842987060546875 -0.10999999940395355
   vertex 1.2368025779724121 0.88576412200927734 -0.10999999940395355
   vertex 1.2481715679168701 0.84333431720733643 -0.10999999940395355
  endloop
 endfacet
 facet normal 0 -0 -1
  outer loop
   vertex 1.2462019920349121 0.842987060546875 -0.10999999940395355
   vertex 1.2481715679168701 0.84333431720733643 -0.10999999940395355
   vertex 1.25 0.79957497119903564 -0.10999999940395355
  endloop
 endfacet
 facet normal 0 0 -1
  outer loop
   vertex 1.25 0.79957497119903564 -0.10999999940395355
   vertex 1.2481715679168701 0.84333431720733643 -0.10999999940395355
   vertex 1.2519999742507935 0.79957497119903564 -0.10999999940395355
  endloop
 endfacet
 facet normal -0 0 -1
  outer loop
   vertex 1.25 0.79957497119903564 -0.10999999940395355
   vertex 1.2519999742507935 0.79957497119903564 -0.10999999940395355
   vertex 1.2481715679168701 0.75581562519073486 -0.10999999940395355
  endloop
 endfacet
 facet normal 0 0 -1
  outer loop
   vertex 1.25 0.79957497119903564 -0.10999999940395355
   vertex 1.2481715679168701 0.75581562519073486 -0.10999999940395355
   vertex 1.2462019920349121 0.75616300106048584 -0.10999999940395355
  endloop
 endfacet
 facet normal -0 0 -1
  outer loop
   vertex 1.2462019920349121 0.75616300106048584 -0.10999999940395355
   vertex 1.2481715679168701 0.75581562519073486 -0.10999999940395355
   vertex 1.2368025779724121 0.7133859395980835 -0.10999999940395355
  endloop
 endfacet
 facet normal 0 0 -1
  outer loop
   vertex 1.2462019920349121 0.75616300106048584 -0.10999999940395355
   vertex 1.2368025779724121 0.7133859395980835 -0.10999999940395355
   vertex 1.2349231243133545 0.71406996250152588 -0.10999999940395355
  endloop
 endfacet
 facet normal -0 0 -1
  outer loop
   vertex 1.2349231243133545 0.71406996250152588 -0.10999999940395355
   vertex 1.2368025779724121 0.7133859395980835 -0.10999999940395355
   vertex 1.218238353729248 0.67357504367828369 -0.10999999940395355
  endloop
 endfacet
 facet normal 0 0 -1
  outer loop
   vertex 1.2349231243133545 0.71406996250152588 -0.10999999940395355
   vertex 1.218238353729248 0.67357504367828369 -0.10999999940395355
   vertex 1.2165063619613647 0.67457497119903564 -0.10999999940395355
  endloop
 endfacet
 facet normal -0 0 -1
  outer loop
   vertex 1.2165063619613647 0.67457497119903564 -0.10999999940395355
   vertex 1.218238353729248 0.67357504367828369 -0.10999999940395355
   vertex 1.1930432319641113 0.63759255409240723 -0.10999999940395355
  endloop
 endfacet
 facet normal 0 0 -1
  outer loop
   vertex 1.2165063619613647 0.67457497119903564 -0.10999999940395355
   vertex 1.1930432319641113 0.63759255409240723 -0.10999999940395355
   vertex 1.1915111541748047 0.63887810707092285 -0.10999999940395355
  endloop
 endfacet
 facet normal -0 0 -1
  outer loop
   vertex 1.1915111541748047 0.63887810707092285 -0.10999999940395355
   vertex 1.1930432319641113 0.63759255409240723 -0.10999999940395355
   vertex 1.161982536315918 0.60653185844421387 -0.10999999940395355
  endloop
 endfacet
 facet normal 0 0 -1
  outer loop
   vertex 1.1915111541748047 0.63887810707092285 -0.10999999940395355
   vertex 1.161982536315918 0.60653185844421387 -0.10999999940395355
   vertex 1.1606968641281128 0.60806393623352051 -0.10999999940395355
  endloop
 endfacet
 facet normal -0 0 -1
  outer loop
   vertex 1.1606968641281128 0.60806393623352051 -0.10999999940395355
   vertex 1.161982536315918 0.60653185844421387 -0.10999999940395355
   vertex 1.1260000467300415 0.5813366174697876 -0.10999999940395355
  endloop
 endfacet
 facet normal 0 0 -1
  outer loop
   vertex 1.1606968641281128 0.60806393623352051 -0.10999999940395355
   vertex 1.1260000467300415 0.5813366174697876 -0.10999999940395355
   vertex 1.125 0.5830686092376709 -0.10999999940395355
  endloop
 endfacet
 facet normal -0 0 -1
  outer loop
   vertex 1.125 0.5830686092376709 -0.10999999940395355
   vertex 1.1260000467300415 0.5813366174697876 -0.10999999940395355
   vertex 1.0861890316009521 0.56277251243591309 -0.10999999940395355
  endloop
 endfacet
 facet normal 0 0 -1
  outer loop
   vertex 1.125 0.5830686092376709 -0.10999999940395355
   vertex 1.0861890316009521 0.56277251243591309 -0.10999999940395355
   vertex 1.0855050086975098 0.56465184688568115 -0.10999999940395355
  endloop
 endfacet
 facet normal -0 0 -1
  outer loop
   vertex 1.0855050086975098 0.56465184688568115 -0.10999999940395355
   vertex 1.0861890316009521 0.56277251243591309 -0.10999999940395355
   vertex 1.0437593460083008 0.55140340328216553 -0.10999999940395355
  endloop
 endfacet
 facet normal 0 0 -1
  outer loop
   vertex 1.0855050086975098 0.56465184688568115 -0.10999999940395355
   vertex 1.0437593460083008 0.55140340328216553 -0.10999999940395355
   vertex 1.0434120893478394 0.55337309837341309 -0.10999999940395355
  endloop
 endfacet
 facet normal -0 0 -1
  outer loop
   vertex 1.0434120893478394 0.55337309837341309 -0.10999999940395355
   vertex 1.0437593460083008 0.55140340328216553 -0.10999999940395355
   vertex 1 0.54757499694824219 -0.10999999940395355
  endloop
 endfacet
 facet normal 0 0 -1
  outer loop
   vertex 1.0434120893478394 0.55337309837341309 -0.10999999940395355
   vertex 1 0.54757499694824219 -0.10999999940395355
   vertex 1 0.54957497119903564 -0.10999999940395355
  endloop
 endfacet
 facet normal 1 0 0
  outer loop
   vertex 1 1.4478750228881836 -0.10999999940395355
   vertex 1 1.4498749971389771 -0.10999999940395355
   vertex 1 1.4478750228881836 0.10999999940395355
  endloop
 endfacet
 facet normal 1 0 -0
  outer loop
   vertex 1 1.4478750228881836 0.10999999940395355
   vertex 1 1.4498749971389771 -0.10999999940395355
   vertex 1 1.4498749971389771 0.10999999940395355
  endloop
 endfacet
 facet normal 0.087154547201982152 0.9961948026877161 0
  outer loop
   vertex 1 0.94787502288818359 -0.10999999940395355
   vertex 0.95658797025680542 0.95167303085327148 -0.10999999940395355
   vertex 1 0.94787502288818359 0.10999999940395355
  endloop
 endfacet
 facet normal 0.087154547201982152 0.9961948026877161 -0
  outer loop
   vertex 1 0.94787502288818359 0.10999999940395355
   vertex 0.95658797025680542 0.95167303085327148 -0.10999999940395355
   vertex 0.95658797025680542 0.95167303085327148 0.10999999940395355
  endloop
 endfacet
 facet normal 0.25882092928258643 0.9659253214225717 -0
  outer loop
   vertex 0.95658797025680542 0.95167303085327148 0.10999999940395355
   vertex 0.95658797025680542 0.95167303085327148 -0.10999999940395355
   vertex 0.91449499130249023 0.9629518985748291 -0.10999999940395355
  endloop
 endfacet
 facet normal 0.25882092928258643 0.9659253214225717 -0
  outer loop
   vertex 0.95658797025680542 0.95167303085327148 0.10999999940395355
   vertex 0.91449499130249023 0.9629518985748291 -0.10999999940395355
   vertex 0.91449499130249023 0.9629518985748291 0.10999999940395355
  endloop
 endfacet
 facet normal 0.42261723351328201 0.90630826650625884 -0
  outer loop
   vertex 0.91449499130249023 0.9629518985748291 0.10999999940395355
   vertex 0.91449499130249023 0.9629518985748291 -0.10999999940395355
   vertex 0.875 0.98136866092681885 -0.10999999940395355
  endloop
 endfacet
 facet normal 0.42261723351328201 0.90630826650625884 -0
  outer loop
   vertex 0.91449499130249023 0.9629518985748291 0.10999999940395355
   vertex 0.875 0.98136866092681885 -0.10999999940395355
   vertex 0.875 0.98136866092681885 0.10999999940395355
  endloop
 endfacet
 facet normal 0.573575707996553 0.81915255428781586 -0
  outer loop
   vertex 0.875 0.98136866092681885 0.10999999940395355
   vertex 0.875 0.98136866092681885 -0.10999999940395355
   vertex 0.83930307626724243 1.0063638687133789 -0.10999999940395355
  endloop
 endfacet
 facet normal 0.573575707996553 0.81915255428781586 -0
  outer loop
   vertex 0.875 0.98136866092681885 0.10999999940395355
   vertex 0.83930307626724243 1.0063638687133789 -0.10999999940395355
   vertex 0.83930307626724243 1.0063638687133789 0.10999999940395355
  endloop
 endfacet
 facet normal 0.70710678118654746 0.70710678118654746 -0
  outer loop
   vertex 0.83930307626724243 1.0063638687133789 0.10999999940395355
   vertex 0.83930307626724243 1.0063638687133789 -0.10999999940395355
   vertex 0.80848890542984009 1.0371780395507812 -0.10999999940395355
  endloop
 endfacet
 facet normal 0.70710678118654746 0.70710678118654746 -0
  outer loop
   vertex 0.83930307626724243 1.0063638687133789 0.10999999940395355
   vertex 0.80848890542984009 1.0371780395507812 -0.10999999940395355
   vertex 0.80848890542984009 1.0371780395507812 0.10999999940395355
  endloop
 endfacet
 facet normal 0.81915236162781979 0.57357598314396463 -0
  outer loop
   vertex 0.80848890542984009 1.0371780395507812 0.10999999940395355
   vertex 0.80848890542984009 1.0371780395507812 -0.10999999940395355
   vertex 0.78349363803863525 1.0728750228881836 -0.10999999940395355
  endloop
 endfacet
 facet normal 0.81915236162781979 0.57357598314396463 -0
  outer loop
   vertex 0.80848890542984009 1.0371780395507812 0.10999999940395355
   vertex 0.78349363803863525 1.0728750228881836 -0.10999999940395355
   vertex 0.78349363803863525 1.0728750228881836 0.10999999940395355
  endloop
 endfacet
 facet normal 0.90630774261941416 0.42261835699375572 -0
  outer loop
   vertex 0.78349363803863525 1.0728750228881836 0.10999999940395355
   vertex 0.78349363803863525 1.0728750228881836 -0.10999999940395355
   vertex 0.76507681608200073 1.1123700141906738 -0.10999999940395355
  endloop
 endfacet
 facet normal 0.90630774261941416 0.42261835699375572 -0
  outer loop
   vertex 0.78349363803863525 1.0728750228881836 0.10999999940395355
   vertex 0.76507681608200073 1.1123700141906738 -0.10999999940395355
   vertex 0.76507681608200073 1.1123700141906738 0.10999999940395355
  endloop
 endfacet
 facet normal 0.96592591368756819 0.25881871892665809 -0
  outer loop
   vertex 0.76507681608200073 1.1123700141906738 0.10999999940395355
   vertex 0.76507681608200073 1.1123700141906738 -0.10999999940395355
   vertex 0.75379806756973267 1.1544629335403442 -0.10999999940395355
  endloop
 endfacet
 facet normal 0.96592591368756819 0.25881871892665809 -0
  outer loop
   vertex 0.76507681608200073 1.1123700141906738 0.10999999940395355
   vertex 0.75379806756973267 1.1544629335403442 -0.10999999940395355
   vertex 0.75379806756973267 1.1544629335403442 0.10999999940395355
  endloop
 endfacet
 facet normal 0.99619469432250207 0.087155785830297844 -0
  outer loop
   vertex 0.75379806756973267 1.1544629335403442 0.10999999940395355
   vertex 0.75379806756973267 1.1544629335403442 -0.10999999940395355
   vertex 0.75 1.1978750228881836 -0.10999999940395355
  endloop
 endfacet
 facet normal 0.99619469432250207 0.087155785830297844 -0
  outer loop
   vertex 0.75379806756973267 1.1544629335403442 0.10999999940395355
   vertex 0.75 1.1978750228881836 -0.10999999940395355
   vertex 0.75 1.1978750228881836 0.10999999940395355
  endloop
 endfacet
 facet normal 0.99619467354286984 -0.087156023342136832 0
  outer loop
   vertex 0.75 1.1978750228881836 0.10999999940395355
   vertex 0.75 1.1978750228881836 -0.10999999940395355
   vertex 0.75379806756973267 1.2412869930267334 -0.10999999940395355
  endloop
 endfacet
 facet normal 0.99619467354286984 -0.087156023342136832 0
  outer loop
   vertex 0.75 1.1978750228881836 0.10999999940395355
   vertex 0.75379806756973267 1.2412869930267334 -0.10999999940395355
   vertex 0.75379806756973267 1.2412869930267334 0.10999999940395355
  endloop
 endfacet
 facet normal 0.96592609693357312 -0.25881803504136525 0
  outer loop
   vertex 0.75379806756973267 1.2412869930267334 0.10999999940395355
   vertex 0.75379806756973267 1.2412869930267334 -0.10999999940395355
   vertex 0.76507681608200073 1.2833800315856934 -0.10999999940395355
  endloop
 endfacet
 facet normal 0.96592609693357312 -0.25881803504136525 0
  outer loop
   vertex 0.75379806756973267 1.2412869930267334 0.10999999940395355
   vertex 0.76507681608200073 1.2833800315856934 -0.10999999940395355
   vertex 0.76507681608200073 1.2833800315856934 0.10999999940395355
  endloop
 endfacet
 facet normal 0.90630774261941416 -0.42261835699375572 0
  outer loop
   vertex 0.76507681608200073 1.2833800315856934 0.10999999940395355
   vertex 0.76507681608200073 1.2833800315856934 -0.10999999940395355
   vertex 0.78349363803863525 1.3228750228881836 -0.10999999940395355
  endloop
 endfacet
 facet normal 0.90630774261941416 -0.42261835699375572 0
  outer loop
   vertex 0.76507681608200073 1.2833800315856934 0.10999999940395355
   vertex 0.78349363803863525 1.3228750228881836 -0.10999999940395355
   vertex 0.78349363803863525 1.3228750228881836 0.10999999940395355
  endloop
 endfacet
 facet normal 0.8191514616606913 -0.57357726842959278 0
  outer loop
   vertex 0.78349363803863525 1.3228750228881836 0.10999999940395355
   vertex 0.78349363803863525 1.3228750228881836 -0.10999999940395355
   vertex 0.80848890542984009 1.3585718870162964 -0.10999999940395355
  endloop
 endfacet
 facet normal 0.8191514616606913 -0.57357726842959278 0
  outer loop
   vertex 0.78349363803863525 1.3228750228881836 0.10999999940395355
   vertex 0.80848890542984009 1.3585718870162964 -0.10999999940395355
   vertex 0.80848890542984009 1.3585718870162964 0.10999999940395355
  endloop
 endfacet
 facet normal 0.70710814895744889 -0.70710541341300037 0
  outer loop
   vertex 0.80848890542984009 1.3585718870162964 0.10999999940395355
   vertex 0.80848890542984009 1.3585718870162964 -0.10999999940395355
   vertex 0.83930307626724243 1.3893861770629883 -0.10999999940395355
  endloop
 endfacet
 facet normal 0.70710814895744889 -0.70710541341300037 0
  outer loop
   vertex 0.80848890542984009 1.3585718870162964 0.10999999940395355
   vertex 0.83930307626724243 1.3893861770629883 -0.10999999940395355
   vertex 0.83930307626724243 1.3893861770629883 0.10999999940395355
  endloop
 endfacet
 facet normal 0.57357387241070812 -0.81915383957336407 0
  outer loop
   vertex 0.83930307626724243 1.3893861770629883 0.10999999940395355
   vertex 0.83930307626724243 1.3893861770629883 -0.10999999940395355
   vertex 0.875 1.4143812656402588 -0.10999999940395355
  endloop
 endfacet
 facet normal 0.57357387241070812 -0.81915383957336407 0
  outer loop
   vertex 0.83930307626724243 1.3893861770629883 0.10999999940395355
   vertex 0.875 1.4143812656402588 -0.10999999940395355
   vertex 0.875 1.4143812656402588 0.10999999940395355
  endloop
 endfacet
 facet normal 0.42261948047228126 -0.90630721873178255 0
  outer loop
   vertex 0.875 1.4143812656402588 0.10999999940395355
   vertex 0.875 1.4143812656402588 -0.10999999940395355
   vertex 0.91449499130249023 1.4327981472015381 -0.10999999940395355
  endloop
 endfacet
 facet normal 0.42261948047228126 -0.90630721873178255 0
  outer loop
   vertex 0.875 1.4143812656402588 0.10999999940395355
   vertex 0.91449499130249023 1.4327981472015381 -0.10999999940395355
   vertex 0.91449499130249023 1.4327981472015381 0.10999999940395355
  endloop
 endfacet
 facet normal 0.25882092928258643 -0.9659253214225717 0
  outer loop
   vertex 0.91449499130249023 1.4327981472015381 0.10999999940395355
   vertex 0.91449499130249023 1.4327981472015381 -0.10999999940395355
   vertex 0.95658797025680542 1.4440770149230957 -0.10999999940395355
  endloop
 endfacet
 facet normal 0.25882092928258643 -0.9659253214225717 0
  outer loop
   vertex 0.91449499130249023 1.4327981472015381 0.10999999940395355
   vertex 0.95658797025680542 1.4440770149230957 -0.10999999940395355
   vertex 0.95658797025680542 1.4440770149230957 0.10999999940395355
  endloop
 endfacet
 facet normal 0.087154547201982152 -0.9961948026877161 0
  outer loop
   vertex 0.95658797025680542 1.4440770149230957 0.10999999940395355
   vertex 0.95658797025680542 1.4440770149230957 -0.10999999940395355
   vertex 1 1.4478750228881836 0.10999999940395355
  endloop
 endfacet
 facet normal 0.087154547201982152 -0.9961948026877161 0
  outer loop
   vertex 1 1.4478750228881836 0.10999999940395355
   vertex 0.95658797025680542 1.4440770149230957 -0.10999999940395355
   vertex 1 1.4478750228881836 -0.10999999940395355
  endloop
 endfacet
 facet normal 1 0 0
  outer loop
   vertex 1 0.94587504863739014 -0.10999999940395355
   vertex 1 0.94787502288818359 -0.10999999940395355
   vertex 1 0.94587504863739014 0.10999999940395355
  endloop
 endfacet
 facet normal 1 0 -0
  outer loop
   vertex 1 0.94587504863739014 0.10999999940395355
   vertex 1 0.94787502288818359 -0.10999999940395355
   vertex 1 0.94787502288818359 0.10999999940395355
  endloop
 endfacet
 facet normal -0.08715483080388442 0.99619477787606703 0
  outer loop
   vertex 1 1.4498749971389771 -0.10999999940395355
   vertex 0.95624065399169922 1.4460465908050537 -0.10999999940395355
   vertex 1 1.4498749971389771 0.10999999940395355
  endloop
 endfacet
 facet normal -0.08715483080388442 0.99619477787606703 0
  outer loop
   vertex 1 1.4498749971389771 0.10999999940395355
   vertex 0.95624065399169922 1.4460465908050537 -0.10999999940395355
   vertex 0.95624065399169922 1.4460465908050537 0.10999999940395355
  endloop
 endfacet
 facet normal -0.25881849250982919 0.96592597435566441 0
  outer loop
   vertex 0.95624065399169922 1.4460465908050537 0.10999999940395355
   vertex 0.95624065399169922 1.4460465908050537 -0.10999999940395355
   vertex 0.91381090879440308 1.4346776008605957 -0.10999999940395355
  endloop
 endfacet
 facet normal -0.25881849250982919 0.96592597435566441 0
  outer loop
   vertex 0.95624065399169922 1.4460465908050537 0.10999999940395355
   vertex 0.91381090879440308 1.4346776008605957 -0.10999999940395355
   vertex 0.91381090879440308 1.4346776008605957 0.10999999940395355
  endloop
 endfacet
 facet normal -0.42262010544627471 0.90630692730033779 0
  outer loop
   vertex 0.91381090879440308 1.4346776008605957 0.10999999940395355
   vertex 0.91381090879440308 1.4346776008605957 -0.10999999940395355
   vertex 0.87400001287460327 1.4161133766174316 -0.10999999940395355
  endloop
 endfacet
 facet normal -0.42262010544627471 0.90630692730033779 0
  outer loop
   vertex 0.91381090879440308 1.4346776008605957 0.10999999940395355
   vertex 0.87400001287460327 1.4161133766174316 -0.10999999940395355
   vertex 0.87400001287460327 1.4161133766174316 0.10999999940395355
  endloop
 endfacet
 facet normal -0.57357508159730963 0.819152992896101 0
  outer loop
   vertex 0.87400001287460327 1.4161133766174316 0.10999999940395355
   vertex 0.87400001287460327 1.4161133766174316 -0.10999999940395355
   vertex 0.83801752328872681 1.3909182548522949 -0.10999999940395355
  endloop
 endfacet
 facet normal -0.57357508159730963 0.819152992896101 0
  outer loop
   vertex 0.87400001287460327 1.4161133766174316 0.10999999940395355
   vertex 0.83801752328872681 1.3909182548522949 -0.10999999940395355
   vertex 0.83801752328872681 1.3909182548522949 0.10999999940395355
  endloop
 endfacet
 facet normal -0.70710678118654757 0.70710678118654757 0
  outer loop
   vertex 0.83801752328872681 1.3909182548522949 0.10999999940395355
   vertex 0.83801752328872681 1.3909182548522949 -0.10999999940395355
   vertex 0.80695682764053345 1.3598575592041016 -0.10999999940395355
  endloop
 endfacet
 facet normal -0.70710678118654757 0.70710678118654757 0
  outer loop
   vertex 0.83801752328872681 1.3909182548522949 0.10999999940395355
   vertex 0.80695682764053345 1.3598575592041016 -0.10999999940395355
   vertex 0.80695682764053345 1.3598575592041016 0.10999999940395355
  endloop
 endfacet
 facet normal -0.81915261063328415 0.57357562752672409 0
  outer loop
   vertex 0.80695682764053345 1.3598575592041016 0.10999999940395355
   vertex 0.80695682764053345 1.3598575592041016 -0.10999999940395355
   vertex 0.78176158666610718 1.3238749504089355 -0.10999999940395355
  endloop
 endfacet
 facet normal -0.81915261063328415 0.57357562752672409 0
  outer loop
   vertex 0.80695682764053345 1.3598575592041016 0.10999999940395355
   vertex 0.78176158666610718 1.3238749504089355 -0.10999999940395355
   vertex 0.78176158666610718 1.3238749504089355 0.10999999940395355
  endloop
 endfacet
 facet normal -0.90630796676146885 0.42261787631936731 0
  outer loop
   vertex 0.78176158666610718 1.3238749504089355 0.10999999940395355
   vertex 0.78176158666610718 1.3238749504089355 -0.10999999940395355
   vertex 0.76319748163223267 1.2840640544891357 -0.10999999940395355
  endloop
 endfacet
 facet normal -0.90630796676146885 0.42261787631936731 0
  outer loop
   vertex 0.78176158666610718 1.3238749504089355 0.10999999940395355
   vertex 0.76319748163223267 1.2840640544891357 -0.10999999940395355
   vertex 0.76319748163223267 1.2840640544891357 0.10999999940395355
  endloop
 endfacet
 facet normal -0.96592554422928534 0.25882009776166692 0
  outer loop
   vertex 0.76319748163223267 1.2840640544891357 0.10999999940395355
   vertex 0.76319748163223267 1.2840640544891357 -0.10999999940395355
   vertex 0.75182843208312988 1.2416343688964844 -0.10999999940395355
  endloop
 endfacet
 facet normal -0.96592554422928534 0.25882009776166692 0
  outer loop
   vertex 0.76319748163223267 1.2840640544891357 0.10999999940395355
   vertex 0.75182843208312988 1.2416343688964844 -0.10999999940395355
   vertex 0.75182843208312988 1.2416343688964844 0.10999999940395355
  endloop
 endfacet
 facet normal -0.99619477787606703 0.08715483080388442 0
  outer loop
   vertex 0.75182843208312988 1.2416343688964844 0.10999999940395355
   vertex 0.75182843208312988 1.2416343688964844 -0.10999999940395355
   vertex 0.74800002574920654 1.1978750228881836 -0.10999999940395355
  endloop
 endfacet
 facet normal -0.99619477787606703 0.08715483080388442 0
  outer loop
   vertex 0.75182843208312988 1.2416343688964844 0.10999999940395355
   vertex 0.74800002574920654 1.1978750228881836 -0.10999999940395355
   vertex 0.74800002574920654 1.1978750228881836 0.10999999940395355
  endloop
 endfacet
 facet normal -0.99619477787606703 -0.08715483080388442 0
  outer loop
   vertex 0.74800002574920654 1.1978750228881836 0.10999999940395355
   vertex 0.74800002574920654 1.1978750228881836 -0.10999999940395355
   vertex 0.75182843208312988 1.1541156768798828 -0.10999999940395355
  endloop
 endfacet
 facet normal -0.99619477787606703 -0.08715483080388442 0
  outer loop
   vertex 0.74800002574920654 1.1978750228881836 0.10999999940395355
   vertex 0.75182843208312988 1.1541156768798828 -0.10999999940395355
   vertex 0.75182843208312988 1.1541156768798828 0.10999999940395355
  endloop
 endfacet
 facet normal -0.96592554422928534 -0.25882009776166692 0
  outer loop
   vertex 0.75182843208312988 1.1541156768798828 0.10999999940395355
   vertex 0.75182843208312988 1.1541156768798828 -0.10999999940395355
   vertex 0.76319748163223267 1.1116859912872314 -0.10999999940395355
  endloop
 endfacet
 facet normal -0.96592554422928534 -0.25882009776166692 0
  outer loop
   vertex 0.75182843208312988 1.1541156768798828 0.10999999940395355
   vertex 0.76319748163223267 1.1116859912872314 -0.10999999940395355
   vertex 0.76319748163223267 1.1116859912872314 0.10999999940395355
  endloop
 endfacet
 facet normal -0.90630845146710604 -0.42261683686206397 0
  outer loop
   vertex 0.76319748163223267 1.1116859912872314 0.10999999940395355
   vertex 0.76319748163223267 1.1116859912872314 -0.10999999940395355
   vertex 0.78176158666610718 1.0718749761581421 -0.10999999940395355
  endloop
 endfacet
 facet normal -0.90630845146710604 -0.42261683686206397 0
  outer loop
   vertex 0.76319748163223267 1.1116859912872314 0.10999999940395355
   vertex 0.78176158666610718 1.0718749761581421 -0.10999999940395355
   vertex 0.78176158666610718 1.0718749761581421 0.10999999940395355
  endloop
 endfacet
 facet normal -0.81915171781084184 -0.57357690260988281 0
  outer loop
   vertex 0.78176158666610718 1.0718749761581421 0.10999999940395355
   vertex 0.78176158666610718 1.0718749761581421 -0.10999999940395355
   vertex 0.80695682764053345 1.0358924865722656 -0.10999999940395355
  endloop
 endfacet
 facet normal -0.81915171781084184 -0.57357690260988281 0
  outer loop
   vertex 0.78176158666610718 1.0718749761581421 0.10999999940395355
   vertex 0.80695682764053345 1.0358924865722656 -0.10999999940395355
   vertex 0.80695682764053345 1.0358924865722656 0.10999999940395355
  endloop
 endfacet
 facet normal -0.70710678118654757 -0.70710678118654757 0
  outer loop
   vertex 0.80695682764053345 1.0358924865722656 0.10999999940395355
   vertex 0.80695682764053345 1.0358924865722656 -0.10999999940395355
   vertex 0.83801752328872681 1.0048317909240723 -0.10999999940395355
  endloop
 endfacet
 facet normal -0.70710678118654757 -0.70710678118654757 0
  outer loop
   vertex 0.80695682764053345 1.0358924865722656 0.10999999940395355
   vertex 0.83801752328872681 1.0048317909240723 -0.10999999940395355
   vertex 0.83801752328872681 1.0048317909240723 0.10999999940395355
  endloop
 endfacet
 facet normal -0.57357690260988281 -0.81915171781084184 0
  outer loop
   vertex 0.83801752328872681 1.0048317909240723 0.10999999940395355
   vertex 0.83801752328872681 1.0048317909240723 -0.10999999940395355
   vertex 0.87400001287460327 0.979636549949646 -0.10999999940395355
  endloop
 endfacet
 facet normal -0.57357690260988281 -0.81915171781084184 0
  outer loop
   vertex 0.83801752328872681 1.0048317909240723 0.10999999940395355
   vertex 0.87400001287460327 0.979636549949646 -0.10999999940395355
   vertex 0.87400001287460327 0.979636549949646 0.10999999940395355
  endloop
 endfacet
 facet normal -0.42261787631936731 -0.90630796676146885 0
  outer loop
   vertex 0.87400001287460327 0.979636549949646 0.10999999940395355
   vertex 0.87400001287460327 0.979636549949646 -0.10999999940395355
   vertex 0.91381090879440308 0.96107244491577148 -0.10999999940395355
  endloop
 endfacet
 facet normal -0.42261787631936731 -0.90630796676146885 0
  outer loop
   vertex 0.87400001287460327 0.979636549949646 0.10999999940395355
   vertex 0.91381090879440308 0.96107244491577148 -0.10999999940395355
   vertex 0.91381090879440308 0.96107244491577148 0.10999999940395355
  endloop
 endfacet
 facet normal -0.25881849250982919 -0.96592597435566441 0
  outer loop
   vertex 0.91381090879440308 0.96107244491577148 0.10999999940395355
   vertex 0.91381090879440308 0.96107244491577148 -0.10999999940395355
   vertex 0.95624065399169922 0.94970345497131348 -0.10999999940395355
  endloop
 endfacet
 facet normal -0.25881849250982919 -0.96592597435566441 0
  outer loop
   vertex 0.91381090879440308 0.96107244491577148 0.10999999940395355
   vertex 0.95624065399169922 0.94970345497131348 -0.10999999940395355
   vertex 0.95624065399169922 0.94970345497131348 0.10999999940395355
  endloop
 endfacet
 facet normal -0.08715483080388442 -0.99619477787606703 0
  outer loop
   vertex 0.95624065399169922 0.94970345497131348 0.10999999940395355
   vertex 0.95624065399169922 0.94970345497131348 -0.10999999940395355
   vertex 1 0.94587504863739014 0.10999999940395355
  endloop
 endfacet
 facet normal -0.08715483080388442 -0.99619477787606703 0
  outer loop
   vertex 1 0.94587504863739014 0.10999999940395355
   vertex 0.95624065399169922 0.94970345497131348 -0.10999999940395355
   vertex 1 0.94587504863739014 -0.10999999940395355
  endloop
 endfacet
 facet normal 0 0 1
  outer loop
   vertex 1 1.4478750228881836 0.10999999940395355
   vertex 1 1.4498749971389771 0.10999999940395355
   vertex 0.95658797025680542 1.4440770149230957 0.10999999940395355
  endloop
 endfacet
 facet normal 0 0 1
  outer loop
   vertex 0.95658797025680542 1.4440770149230957 0.10999999940395355
   vertex 1 1.4498749971389771 0.10999999940395355
   vertex 0.95624065399169922 1.4460465908050537 0.10999999940395355
  endloop
 endfacet
 facet normal 0 0 1
  outer loop
   vertex 0.95658797025680542 1.4440770149230957 0.10999999940395355
   vertex 0.95624065399169922 1.4460465908050537 0.10999999940395355
   vertex 0.91449499130249023 1.4327981472015381 0.10999999940395355
  endloop
 endfacet
 facet normal 0 0 1
  outer loop
   vertex 0.91449499130249023 1.4327981472015381 0.10999999940395355
   vertex 0.95624065399169922 1.4460465908050537 0.10999999940395355
   vertex 0.91381090879440308 1.4346776008605957 0.10999999940395355
  endloop
 endfacet
 facet normal 0 0 1
  outer loop
   vertex 0.91449499130249023 1.4327981472015381 0.10999999940395355
   vertex 0.91381090879440308 1.4346776008605957 0.10999999940395355
   vertex 0.875 1.4143812656402588 0.10999999940395355
  endloop
 endfacet
 facet normal 0 0 1
  outer loop
   vertex 0.875 1.4143812656402588 0.10999999940395355
   vertex 0.91381090879440308 1.4346776008605957 0.10999999940395355
   vertex 0.87400001287460327 1.4161133766174316 0.10999999940395355
  endloop
 endfacet
 facet normal 0 0 1
  outer loop
   vertex 0.875 1.4143812656402588 0.10999999940395355
   vertex 0.87400001287460327 1.4161133766174316 0.10999999940395355
   vertex 0.83930307626724243 1.3893861770629883 0.10999999940395355
  endloop
 endfacet
 facet normal 0 0 1
  outer loop
   vertex 0.83930307626724243 1.3893861770629883 0.10999999940395355
   vertex 0.87400001287460327 1.4161133766174316 0.10999999940395355
   vertex 0.83801752328872681 1.3909182548522949 0.10999999940395355
  endloop
 endfacet
 facet normal 0 0 1
  outer loop
   vertex 0.83930307626724243 1.3893861770629883 0.10999999940395355
   vertex 0.83801752328872681 1.3909182548522949 0.10999999940395355
   vertex 0.80848890542984009 1.3585718870162964 0.10999999940395355
  endloop
 endfacet
 facet normal 0 0 1
  outer loop
   vertex 0.80848890542984009 1.3585718870162964 0.10999999940395355
   vertex 0.83801752328872681 1.3909182548522949 0.10999999940395355
   vertex 0.80695682764053345 1.3598575592041016 0.10999999940395355
  endloop
 endfacet
 facet normal 0 0 1
  outer loop
   vertex 0.80848890542984009 1.3585718870162964 0.10999999940395355
   vertex 0.80695682764053345 1.3598575592041016 0.10999999940395355
   vertex 0.78349363803863525 1.3228750228881836 0.10999999940395355
  endloop
 endfacet
 facet normal 0 0 1
  outer loop
   vertex 0.78349363803863525 1.3228750228881836 0.10999999940395355
   vertex 0.80695682764053345 1.3598575592041016 0.10999999940395355
   vertex 0.78176158666610718 1.3238749504089355 0.10999999940395355
  endloop
 endfacet
 facet normal 0 0 1
  outer loop
   vertex 0.78349363803863525 1.3228750228881836 0.10999999940395355
   vertex 0.78176158666610718 1.3238749504089355 0.10999999940395355
   vertex 0.76507681608200073 1.2833800315856934 0.10999999940395355
  endloop
 endfacet
 facet normal 0 0 1
  outer loop
   vertex 0.76507681608200073 1.2833800315856934 0.10999999940395355
   vertex 0.78176158666610718 1.3238749504089355 0.10999999940395355
   vertex 0.76319748163223267 1.2840640544891357 0.10999999940395355
  endloop
 endfacet
 facet normal 0 0 1
  outer loop
   vertex 0.76507681608200073 1.2833800315856934 0.10999999940395355
   vertex 0.76319748163223267 1.2840640544891357 0.10999999940395355
   vertex 0.75379806756973267 1.2412869930267334 0.10999999940395355
  endloop
 endfacet
 facet normal 0 0 1
  outer loop
   vertex 0.75379806756973267 1.2412869930267334 0.10999999940395355
   vertex 0.76319748163223267 1.2840640544891357 0.10999999940395355
   vertex 0.75182843208312988 1.2416343688964844 0.10999999940395355
  endloop
 endfacet
 facet normal 0 0 1
  outer loop
   vertex 0.75379806756973267 1.2412869930267334 0.10999999940395355
   vertex 0.75182843208312988 1.2416343688964844 0.10999999940395355
   vertex 0.75 1.1978750228881836 0.10999999940395355
  endloop
 endfacet
 facet normal 0 0 1
  outer loop
   vertex 0.75 1.1978750228881836 0.10999999940395355
   vertex 0.75182843208312988 1.2416343688964844 0.10999999940395355
   vertex 0.74800002574920654 1.1978750228881836 0.10999999940395355
  endloop
 endfacet
 facet normal -0 0 1
  outer loop
   vertex 0.75 1.1978750228881836 0.10999999940395355
   vertex 0.74800002574920654 1.1978750228881836 0.10999999940395355
   vertex 0.75182843208312988 1.1541156768798828 0.10999999940395355
  endloop
 endfacet
 facet normal 0 -0 1
  outer loop
   vertex 0.75 1.1978750228881836 0.10999999940395355
   vertex 0.75182843208312988 1.1541156768798828 0.10999999940395355
   vertex 0.75379806756973267 1.1544629335403442 0.10999999940395355
  endloop
 endfacet
 facet normal -0 0 1
  outer loop
   vertex 0.75379806756973267 1.1544629335403442 0.10999999940395355
   vertex 0.75182843208312988 1.1541156768798828 0.10999999940395355
   vertex 0.76319748163223267 1.1116859912872314 0.10999999940395355
  endloop
 endfacet
 facet normal 0 -0 1
  outer loop
   vertex 0.75379806756973267 1.1544629335403442 0.10999999940395355
   vertex 0.76319748163223267 1.1116859912872314 0.10999999940395355
   vertex 0.76507681608200073 1.1123700141906738 0.10999999940395355
  endloop
 endfacet
 facet normal -0 0 1
  outer loop
   vertex 0.76507681608200073 1.1123700141906738 0.10999999940395355
   vertex 0.76319748163223267 1.1116859912872314 0.10999999940395355
   vertex 0.78176158666610718 1.0718749761581421 0.10999999940395355
  endloop
 endfacet
 facet normal 0 -0 1
  outer loop
   vertex 0.76507681608200073 1.1123700141906738 0.10999999940395355
   vertex 0.78176158666610718 1.0718749761581421 0.10999999940395355
   vertex 0.78349363803863525 1.0728750228881836 0.10999999940395355
  endloop
 endfacet
 facet normal -0 0 1
  outer loop
   vertex 0.78349363803863525 1.0728750228881836 0.10999999940395355
   vertex 0.78176158666610718 1.0718749761581421 0.10999999940395355
   vertex 0.80695682764053345 1.0358924865722656 0.10999999940395355
  endloop
 endfacet
 facet normal 0 -0 1
  outer loop
   vertex 0.78349363803863525 1.0728750228881836 0.10999999940395355
   vertex 0.80695682764053345 1.0358924865722656 0.10999999940395355
   vertex 0.80848890542984009 1.0371780395507812 0.10999999940395355
  endloop
 endfacet
 facet normal -0 0 1
  outer loop
   vertex 0.80848890542984009 1.0371780395507812 0.10999999940395355
   vertex 0.80695682764053345 1.0358924865722656 0.10999999940395355
   vertex 0.83801752328872681 1.0048317909240723 0.10999999940395355
  endloop
 endfacet
 facet normal 0 -0 1
  outer loop
   vertex 0.80848890542984009 1.0371780395507812 0.10999999940395355
   vertex 0.83801752328872681 1.0048317909240723 0.10999999940395355
   vertex 0.83930307626724243 1.0063638687133789 0.10999999940395355
  endloop
 endfacet
 facet normal -0 0 1
  outer loop
   vertex 0.83930307626724243 1.0063638687133789 0.10999999940395355
   vertex 0.83801752328872681 1.0048317909240723 0.10999999940395355
   vertex 0.87400001287460327 0.979636549949646 0.10999999940395355
  endloop
 endfacet
 facet normal 0 -0 1
  outer loop
   vertex 0.83930307626724243 1.0063638687133789 0.10999999940395355
   vertex 0.87400001287460327 0.979636549949646 0.10999999940395355
   vertex 0.875 0.98136866092681885 0.10999999940395355
  endloop
 endfacet
 facet normal -0 0 1
  outer loop
   vertex 0.875 0.98136866092681885 0.10999999940395355
   vertex 0.87400001287460327 0.979636549949646 0.10999999940395355
   vertex 0.91381090879440308 0.96107244491577148 0.10999999940395355
  endloop
 endfacet
 facet normal 0 -0 1
  outer loop
   vertex 0.875 0.98136866092681885 0.10999999940395355
   vertex 0.91381090879440308 0.96107244491577148 0.10999999940395355
   vertex 0.91449499130249023 0.9629518985748291 0.10999999940395355
  endloop
 endfacet
 facet normal -0 0 1
  outer loop
   vertex 0.91449499130249023 0.9629518985748291 0.10999999940395355
   vertex 0.91381090879440308 0.96107244491577148 0.10999999940395355
   vertex 0.95624065399169922 0.94970345497131348 0.10999999940395355
  endloop
 endfacet
 facet normal 0 -0 1
  outer loop
   vertex 0.91449499130249023 0.9629518985748291 0.10999999940395355
   vertex 0.95624065399169922 0.94970345497131348 0.10999999940395355
   vertex 0.95658797025680542 0.95167303085327148 0.10999999940395355
  endloop
 endfacet
 facet normal -0 0 1
  outer loop
   vertex 0.95658797025680542 0.95167303085327148 0.10999999940395355
   vertex 0.95624065399169922 0.94970345497131348 0.10999999940395355
   vertex 1 0.94587504863739014 0.10999999940395355
  endloop
 endfacet
 facet normal 0 -0 1
  outer loop
   vertex 0.95658797025680542 0.95167303085327148 0.10999999940395355
   vertex 1 0.94587504863739014 0.10999999940395355
   vertex 1 0.94787502288818359 0.10999999940395355
  endloop
 endfacet
 facet normal 0 0 -1
  outer loop
   vertex 1 0.94787502288818359 -0.10999999940395355
   vertex 1 0.94587504863739014 -0.10999999940395355
   vertex 0.95658797025680542 0.95167303085327148 -0.10999999940395355
  endloop
 endfacet
 facet normal 0 0 -1
  outer loop
   vertex 0.95658797025680542 0.95167303085327148 -0.10999999940395355
   vertex 1 0.94587504863739014 -0.10999999940395355
   vertex 0.95624065399169922 0.94970345497131348 -0.10999999940395355
  endloop
 endfacet
 facet normal 0 0 -1
  outer loop
   vertex 0.95658797025680542 0.95167303085327148 -0.10999999940395355
   vertex 0.95624065399169922 0.94970345497131348 -0.10999999940395355
   vertex 0.91449499130249023 0.9629518985748291 -0.10999999940395355
  endloop
 endfacet
 facet normal 0 0 -1
  outer loop
   vertex 0.91449499130249023 0.9629518985748291 -0.10999999940395355
   vertex 0.95624065399169922 0.94970345497131348 -0.10999999940395355
   vertex 0.91381090879440308 0.96107244491577148 -0.10999999940395355
  endloop
 endfacet
 facet normal 0 0 -1
  outer loop
   vertex 0.91449499130249023 0.9629518985748291 -0.10999999940395355
   vertex 0.91381090879440308 0.96107244491577148 -0.10999999940395355
   vertex 0.875 0.98136866092681885 -0.10999999940395355
  endloop
 endfacet
 facet normal 0 0 -1
  outer loop
   vertex 0.875 0.98136866092681885 -0.10999999940395355
   vertex 0.91381090879440308 0.96107244491577148 -0.10999999940395355
   vertex 0.87400001287460327 0.979636549949646 -0.10999999940395355
  endloop
 endfacet
 facet normal 0 0 -1
  outer loop
   vertex 0.875 0.98136866092681885 -0.10999999940395355
   vertex 0.87400001287460327 0.979636549949646 -0.10999999940395355
   vertex 0.83930307626724243 1.0063638687133789 -0.10999999940395355
  endloop
 endfacet
 facet normal 0 0 -1
  outer loop
   vertex 0.83930307626724243 1.0063638687133789 -0.10999999940395355
   vertex 0.87400001287460327 0.979636549949646 -0.10999999940395355
   vertex 0.83801752328872681 1.0048317909240723 -0.10999999940395355
  endloop
 endfacet
 facet normal 0 0 -1
  outer loop
   vertex 0.83930307626724243 1.0063638687133789 -0.10999999940395355
   vertex 0.83801752328872681 1.0048317909240723 -0.10999999940395355
   vertex 0.80848890542984009 1.0371780395507812 -0.10999999940395355
  endloop
 endfacet
 facet normal 0 0 -1
  outer loop
   vertex 0.80848890542984009 1.0371780395507812 -0.10999999940395355
   vertex 0.83801752328872681 1.0048317909240723 -0.10999999940395355
   vertex 0.80695682764053345 1.0358924865722656 -0.10999999940395355
  endloop
 endfacet
 facet normal 0 0 -1
  outer loop
   vertex 0.80848890542984009 1.0371780395507812 -0.10999999940395355
   vertex 0.80695682764053345 1.0358924865722656 -0.10999999940395355
   vertex 0.78349363803863525 1.0728750228881836 -0.10999999940395355
  endloop
 endfacet
 facet normal 0 0 -1
  outer loop
   vertex 0.78349363803863525 1.0728750228881836 -0.10999999940395355
   vertex 0.80695682764053345 1.0358924865722656 -0.10999999940395355
   vertex 0.78176158666610718 1.0718749761581421 -0.10999999940395355
  endloop
 endfacet
 facet normal 0 0 -1
  outer loop
   vertex 0.78349363803863525 1.0728750228881836 -0.10999999940395355
   vertex 0.78176158666610718 1.0718749761581421 -0.10999999940395355
   vertex 0.76507681608200073 1.1123700141906738 -0.10999999940395355
  endloop
 endfacet
 facet normal 0 0 -1
  outer loop
   vertex 0.76507681608200073 1.1123700141906738 -0.10999999940395355
   vertex 0.78176158666610718 1.0718749761581421 -0.10999999940395355
   vertex 0.76319748163223267 1.1116859912872314 -0.10999999940395355
  endloop
 endfacet
 facet normal 0 0 -1
  outer loop
   vertex 0.76507681608200073 1.1123700141906738 -0.10999999940395355
   vertex 0.76319748163223267 1.1116859912872314 -0.10999999940395355
   vertex 0.75379806756973267 1.1544629335403442 -0.10999999940395355
  endloop
 endfacet
 facet normal 0 0 -1
  outer loop
   vertex 0.75379806756973267 1.1544629335403442 -0.10999999940395355
   vertex 0.76319748163223267 1.1116859912872314 -0.10999999940395355
   vertex 0.75182843208312988 1.1541156768798828 -0.10999999940395355
  endloop
 endfacet
 facet normal 0 0 -1
  outer loop
   vertex 0.75379806756973267 1.1544629335403442 -0.10999999940395355
   vertex 0.75182843208312988 1.1541156768798828 -0.10999999940395355
   vertex 0.75 1.1978750228881836 -0.10999999940395355
  endloop
 endfacet
 facet normal 0 0 -1
  outer loop
   vertex 0.75 1.1978750228881836 -0.10999999940395355
   vertex 0.75182843208312988 1.1541156768798828 -0.10999999940395355
   vertex 0.74800002574920654 1.1978750228881836 -0.10999999940395355
  endloop
 endfacet
 facet normal 0 0 -1
  outer loop
   vertex 0.75 1.1978750228881836 -0.10999999940395355
   vertex 0.74800002574920654 1.1978750228881836 -0.10999999940395355
   vertex 0.75182843208312988 1.2416343688964844 -0.10999999940395355
  endloop
 endfacet
 facet normal 0 -0 -1
  outer loop
   vertex 0.75 1.1978750228881836 -0.10999999940395355
   vertex 0.75182843208312988 1.2416343688964844 -0.10999999940395355
   vertex 0.75379806756973267 1.2412869930267334 -0.10999999940395355
  endloop
 endfacet
 facet normal 0 0 -1
  outer loop
   vertex 0.75379806756973267 1.2412869930267334 -0.10999999940395355
   vertex 0.75182843208312988 1.2416343688964844 -0.10999999940395355
   vertex 0.76319748163223267 1.2840640544891357 -0.10999999940395355
  endloop
 endfacet
 facet normal 0 -0 -1
  outer loop
   vertex 0.75379806756973267 1.2412869930267334 -0.10999999940395355
   vertex 0.76319748163223267 1.2840640544891357 -0.10999999940395355
   vertex 0.76507681608200073 1.2833800315856934 -0.10999999940395355
  endloop
 endfacet
 facet normal 0 0 -1
  outer loop
   vertex 0.76507681608200073 1.2833800315856934 -0.10999999940395355
   vertex 0.76319748163223267 1.2840640544891357 -0.10999999940395355
   vertex 0.78176158666610718 1.3238749504089355 -0.10999999940395355
  endloop
 endfacet
 facet normal 0 -0 -1
  outer loop
   vertex 0.76507681608200073 1.2833800315856934 -0.10999999940395355
   vertex 0.78176158666610718 1.3238749504089355 -0.10999999940395355
   vertex 0.78349363803863525 1.3228750228881836 -0.10999999940395355
  endloop
 endfacet
 facet normal 0 0 -1
  outer loop
   vertex 0.78349363803863525 1.3228750228881836 -0.10999999940395355
   vertex 0.78176158666610718 1.3238749504089355 -0.10999999940395355
   vertex 0.80695682764053345 1.3598575592041016 -0.10999999940395355
  endloop
 endfacet
 facet normal 0 -0 -1
  outer loop
   vertex 0.78349363803863525 1.3228750228881836 -0.10999999940395355
   vertex 0.80695682764053345 1.3598575592041016 -0.10999999940395355
   vertex 0.80848890542984009 1.3585718870162964 -0.10999999940395355
  endloop
 endfacet
 facet normal 0 0 -1
  outer loop
   vertex 0.80848890542984009 1.3585718870162964 -0.10999999940395355
   vertex 0.80695682764053345 1.3598575592041016 -0.10999999940395355
   vertex 0.83801752328872681 1.3909182548522949 -0.10999999940395355
  endloop
 endfacet
 facet normal 0 -0 -1
  outer loop
   vertex 0.80848890542984009 1.3585718870162964 -0.10999999940395355
   vertex 0.83801752328872681 1.3909182548522949 -0.10999999940395355
   vertex 0.83930307626724243 1.3893861770629883 -0.10999999940395355
  endloop
 endfacet
 facet normal 0 0 -1
  outer loop
   vertex 0.83930307626724243 1.3893861770629883 -0.10999999940395355
   vertex 0.83801752328872681 1.3909182548522949 -0.10999999940395355
   vertex 0.87400001287460327 1.4161133766174316 -0.10999999940395355
  endloop
 endfacet
 facet normal 0 -0 -1
  outer loop
   vertex 0.83930307626724243 1.3893861770629883 -0.10999999940395355
   vertex 0.87400001287460327 1.4161133766174316 -0.10999999940395355
   vertex 0.875 1.4143812656402588 -0.10999999940395355
  endloop
 endfacet
 facet normal 0 0 -1
  outer loop
   vertex 0.875 1.4143812656402588 -0.10999999940395355
   vertex 0.87400001287460327 1.4161133766174316 -0.10999999940395355
   vertex 0.91381090879440308 1.4346776008605957 -0.10999999940395355
  endloop
 endfacet
 facet normal 0 -0 -1
  outer loop
   vertex 0.875 1.4143812656402588 -0.10999999940395355
   vertex 0.91381090879440308 1.4346776008605957 -0.10999999940395355
   vertex 0.91449499130249023 1.4327981472015381 -0.10999999940395355
  endloop
 endfacet
 facet normal 0 0 -1
  outer loop
   vertex 0.91449499130249023 1.4327981472015381 -0.10999999940395355
   vertex 0.91381090879440308 1.4346776008605957 -0.10999999940395355
   vertex 0.95624065399169922 1.4460465908050537 -0.10999999940395355
  endloop
 endfacet
 facet normal 0 -0 -1
  outer loop
   vertex 0.91449499130249023 1.4327981472015381 -0.10999999940395355
   vertex 0.95624065399169922 1.4460465908050537 -0.10999999940395355
   vertex 0.95658797025680542 1.4440770149230957 -0.10999999940395355
  endloop
 endfacet
 facet normal 0 0 -1
  outer loop
   vertex 0.95658797025680542 1.4440770149230957 -0.10999999940395355
   vertex 0.95624065399169922 1.4460465908050537 -0.10999999940395355
   vertex 1 1.4498749971389771 -0.10999999940395355
  endloop
 endfacet
 facet normal 0 -0 -1
  outer loop
   vertex 0.95658797025680542 1.4440770149230957 -0.10999999940395355
   vertex 1 1.4498749971389771 -0.10999999940395355
   vertex 1 1.4478750228881836 -0.10999999940395355
  endloop
 endfacet
endsolid
