solid Visualization Toolkit generated SLA File
 facet normal 0.64278759489032955 0.76604445553447198 0
  outer loop
   vertex 1.3199127912521362 1.3199127912521362 -0.10999999940395355
   vertex 1.286263108253479 1.3481482267379761 -0.10999999940395355
   vertex 1.3199127912521362 1.3199127912521362 0.10999999940395355
  endloop
 endfacet
 facet normal 0.64278759489032955 0.76604445553447198 -0
  outer loop
   vertex 1.3199127912521362 1.3199127912521362 0.10999999940395355
   vertex 1.286263108253479 1.3481482267379761 -0.10999999940395355
   vertex 1.286263108253479 1.3481482267379761 0.10999999940395355
  endloop
 endfacet
 facet normal 0.49999769767401153 0.86602673302888733 -0
  outer loop
   vertex 1.286263108253479 1.3481482267379761 0.10999999940395355
   vertex 1.286263108253479 1.3481482267379761 -0.10999999940395355
   vertex 1.2482216358184814 1.370111346244812 -0.10999999940395355
  endloop
 endfacet
 facet normal 0.49999769767401153 0.86602673302888733 -0
  outer loop
   vertex 1.286263108253479 1.3481482267379761 0.10999999940395355
   vertex 1.2482216358184814 1.370111346244812 -0.10999999940395355
   vertex 1.2482216358184814 1.370111346244812 0.10999999940395355
  endloop
 endfacet
 facet normal 0.34202174094789051 0.93969203929743605 -0
  outer loop
   vertex 1.2482216358184814 1.370111346244812 0.10999999940395355
   vertex 1.2482216358184814 1.370111346244812 -0.10999999940395355
   vertex 1.2069442272186279 1.3851351737976074 -0.10999999940395355
  endloop
 endfacet
 facet normal 0.34202174094789051 0.93969203929743605 -0
  outer loop
   vertex 1.2482216358184814 1.370111346244812 0.10999999940395355
   vertex 1.2069442272186279 1.3851351737976074 -0.10999999940395355
   vertex 1.2069442272186279 1.3851351737976074 0.10999999940395355
  endloop
 endfacet
 facet normal 0.17364754580842084 0.98480786442570234 -0
  outer loop
   vertex 1.2069442272186279 1.3851351737976074 0.10999999940395355
   vertex 1.2069442272186279 1.3851351737976074 -0.10999999940395355
   vertex 1.1636850833892822 1.3927628993988037 -0.10999999940395355
  endloop
 endfacet
 facet normal 0.17364754580842084 0.98480786442570234 -0
  outer loop
   vertex 1.2069442272186279 1.3851351737976074 0.10999999940395355
   vertex 1.1636850833892822 1.3927628993988037 -0.10999999940395355
   vertex 1.1636850833892822 1.3927628993988037 0.10999999940395355
  endloop
 endfacet
 facet normal 0 1 -0
  outer loop
   vertex 1.1636850833892822 1.3927628993988037 0.10999999940395355
   vertex 1.1636850833892822 1.3927628993988037 -0.10999999940395355
   vertex 1.1197586059570312 1.3927628993988037 -0.10999999940395355
  endloop
 endfacet
 facet normal 0 1 0
  outer loop
   vertex 1.1636850833892822 1.3927628993988037 0.10999999940395355
   vertex 1.1197586059570312 1.3927628993988037 -0.10999999940395355
   vertex 1.1197586059570312 1.3927628993988037 0.10999999940395355
  endloop
 endfacet
 facet normal -0.17364754580842084 0.98480786442570234 0
  outer loop
   vertex 1.1197586059570312 1.3927628993988037 0.10999999940395355
   vertex 1.1197586059570312 1.3927628993988037 -0.10999999940395355
   vertex 1.0764994621276855 1.3851351737976074 -0.10999999940395355
  endloop
 endfacet
 facet normal -0.17364754580842084 0.98480786442570234 0
  outer loop
   vertex 1.1197586059570312 1.3927628993988037 0.10999999940395355
   vertex 1.0764994621276855 1.3851351737976074 -0.10999999940395355
   vertex 1.0764994621276855 1.3851351737976074 0.10999999940395355
  endloop
 endfacet
 facet normal -0.34201934457210215 0.93969291150804657 0
  outer loop
   vertex 1.0764994621276855 1.3851351737976074 0.10999999940395355
   vertex 1.0764994621276855 1.3851351737976074 -0.10999999940395355
   vertex 1.035222053527832 1.3701114654541016 -0.10999999940395355
  endloop
 endfacet
 facet normal -0.34201934457210215 0.93969291150804657 0
  outer loop
   vertex 1.0764994621276855 1.3851351737976074 0.10999999940395355
   vertex 1.035222053527832 1.3701114654541016 -0.10999999940395355
   vertex 1.035222053527832 1.3701114654541016 0.10999999940395355
  endloop
 endfacet
 facet normal -0.50000032061831656 0.86602521867528814 0
  outer loop
   vertex 1.035222053527832 1.3701114654541016 0.10999999940395355
   vertex 1.035222053527832 1.3701114654541016 -0.10999999940395355
   vertex 0.99718064069747925 1.3481482267379761 -0.10999999940395355
  endloop
 endfacet
 facet normal -0.50000032061831656 0.86602521867528814 0
  outer loop
   vertex 1.035222053527832 1.3701114654541016 0.10999999940395355
   vertex 0.99718064069747925 1.3481482267379761 -0.10999999940395355
   vertex 0.99718064069747925 1.3481482267379761 0.10999999940395355
  endloop
 endfacet
 facet normal -0.64278826304168424 0.76604389488844216 0
  outer loop
   vertex 0.99718064069747925 1.3481482267379761 0.10999999940395355
   vertex 0.99718064069747925 1.3481482267379761 -0.10999999940395355
   vertex 0.9635310173034668 1.3199127912521362 -0.10999999940395355
  endloop
 endfacet
 facet normal -0.64278826304168424 0.76604389488844216 0
  outer loop
   vertex 0.99718064069747925 1.3481482267379761 0.10999999940395355
   vertex 0.9635310173034668 1.3199127912521362 -0.10999999940395355
   vertex 0.9635310173034668 1.3199127912521362 0.10999999940395355
  endloop
 endfacet
 facet normal -0.76604445553447198 0.64278759489032955 0
  outer loop
   vertex 0.9635310173034668 1.3199127912521362 0.10999999940395355
   vertex 0.9635310173034668 1.3199127912521362 -0.10999999940395355
   vertex 0.93529558181762695 1.286263108253479 -0.10999999940395355
  endloop
 endfacet
 facet normal -0.76604445553447198 0.64278759489032955 0
  outer loop
   vertex 0.9635310173034668 1.3199127912521362 0.10999999940395355
   vertex 0.93529558181762695 1.286263108253479 -0.10999999940395355
   vertex 0.93529558181762695 1.286263108253479 0.10999999940395355
  endloop
 endfacet
 facet normal -0.86602497034236658 0.50000075074293948 0
  outer loop
   vertex 0.93529558181762695 1.286263108253479 0.10999999940395355
   vertex 0.93529558181762695 1.286263108253479 -0.10999999940395355
   vertex 0.91333228349685669 1.2482216358184814 -0.10999999940395355
  endloop
 endfacet
 facet normal -0.86602497034236658 0.50000075074293948 0
  outer loop
   vertex 0.93529558181762695 1.286263108253479 0.10999999940395355
   vertex 0.91333228349685669 1.2482216358184814 -0.10999999940395355
   vertex 0.91333228349685669 1.2482216358184814 0.10999999940395355
  endloop
 endfacet
 facet normal -0.93969291150804657 0.34201934457210215 0
  outer loop
   vertex 0.91333228349685669 1.2482216358184814 0.10999999940395355
   vertex 0.91333228349685669 1.2482216358184814 -0.10999999940395355
   vertex 0.89830857515335083 1.2069442272186279 -0.10999999940395355
  endloop
 endfacet
 facet normal -0.93969291150804657 0.34201934457210215 0
  outer loop
   vertex 0.91333228349685669 1.2482216358184814 0.10999999940395355
   vertex 0.89830857515335083 1.2069442272186279 -0.10999999940395355
   vertex 0.89830857515335083 1.2069442272186279 0.10999999940395355
  endloop
 endfacet
 facet normal -0.98480763237900393 0.17364886181043843 0
  outer loop
   vertex 0.89830857515335083 1.2069442272186279 0.10999999940395355
   vertex 0.89830857515335083 1.2069442272186279 -0.10999999940395355
   vertex 0.89068078994750977 1.1636850833892822 -0.10999999940395355
  endloop
 endfacet
 facet normal -0.98480763237900393 0.17364886181043843 0
  outer loop
   vertex 0.89830857515335083 1.2069442272186279 0.10999999940395355
   vertex 0.89068078994750977 1.1636850833892822 -0.10999999940395355
   vertex 0.89068078994750977 1.1636850833892822 0.10999999940395355
  endloop
 endfacet
 facet normal -1 0 0
  outer loop
   vertex 0.89068078994750977 1.1636850833892822 0.10999999940395355
   vertex 0.89068078994750977 1.1636850833892822 -0.10999999940395355
   vertex 0.89068078994750977 1.1197587251663208 -0.10999999940395355
  endloop
 endfacet
 facet normal -1 0 0
  outer loop
   vertex 0.89068078994750977 1.1636850833892822 0.10999999940395355
   vertex 0.89068078994750977 1.1197587251663208 -0.10999999940395355
   vertex 0.89068078994750977 1.1197587251663208 0.10999999940395355
  endloop
 endfacet
 facet normal -0.98480763237900393 -0.17364886181043843 0
  outer loop
   vertex 0.89068078994750977 1.1197587251663208 0.10999999940395355
   vertex 0.89068078994750977 1.1197587251663208 -0.10999999940395355
   vertex 0.89830857515335083 1.0764995813369751 -0.10999999940395355
  endloop
 endfacet
 facet normal -0.98480763237900393 -0.17364886181043843 0
  outer loop
   vertex 0.89068078994750977 1.1197587251663208 0.10999999940395355
   vertex 0.89830857515335083 1.0764995813369751 -0.10999999940395355
   vertex 0.89830857515335083 1.0764995813369751 0.10999999940395355
  endloop
 endfacet
 facet normal -0.93969279286120855 -0.34201967055229676 0
  outer loop
   vertex 0.89830857515335083 1.0764995813369751 0.10999999940395355
   vertex 0.89830857515335083 1.0764995813369751 -0.10999999940395355
   vertex 0.91333234310150146 1.035222053527832 -0.10999999940395355
  endloop
 endfacet
 facet normal -0.93969279286120855 -0.34201967055229676 0
  outer loop
   vertex 0.89830857515335083 1.0764995813369751 0.10999999940395355
   vertex 0.91333234310150146 1.035222053527832 -0.10999999940395355
   vertex 0.91333234310150146 1.035222053527832 0.10999999940395355
  endloop
 endfacet
 facet normal -0.86602521867528814 -0.50000032061831656 0
  outer loop
   vertex 0.91333234310150146 1.035222053527832 0.10999999940395355
   vertex 0.91333234310150146 1.035222053527832 -0.10999999940395355
   vertex 0.93529558181762695 0.99718064069747925 -0.10999999940395355
  endloop
 endfacet
 facet normal -0.86602521867528814 -0.50000032061831656 0
  outer loop
   vertex 0.91333234310150146 1.035222053527832 0.10999999940395355
   vertex 0.93529558181762695 0.99718064069747925 -0.10999999940395355
   vertex 0.93529558181762695 0.99718064069747925 0.10999999940395355
  endloop
 endfacet
 facet normal -0.76604512368554545 -0.64278679861801558 0
  outer loop
   vertex 0.93529558181762695 0.99718064069747925 0.10999999940395355
   vertex 0.93529558181762695 0.99718064069747925 -0.10999999940395355
   vertex 0.96353095769882202 0.96353095769882202 0.10999999940395355
  endloop
 endfacet
 facet normal -0.76604512368554545 -0.64278679861801558 0
  outer loop
   vertex 0.96353095769882202 0.96353095769882202 0.10999999940395355
   vertex 0.93529558181762695 0.99718064069747925 -0.10999999940395355
   vertex 0.96353095769882202 0.96353095769882202 -0.10999999940395355
  endloop
 endfacet
 facet normal 0.70710678118654746 -0.70710678118654746 0
  outer loop
   vertex 1.3184986114501953 1.3184986114501953 -0.10999999940395355
   vertex 1.3199127912521362 1.3199127912521362 -0.10999999940395355
   vertex 1.3184986114501953 1.3184986114501953 0.10999999940395355
  endloop
 endfacet
 facet normal 0.70710678118654746 -0.70710678118654746 0
  outer loop
   vertex 1.3184986114501953 1.3184986114501953 0.10999999940395355
   vertex 1.3199127912521362 1.3199127912521362 -0.10999999940395355
   vertex 1.3199127912521362 1.3199127912521362 0.10999999940395355
  endloop
 endfacet
 facet normal 0.76604377846857219 0.64278840178521657 0
  outer loop
   vertex 0.96494519710540771 0.96494519710540771 -0.10999999940395355
   vertex 0.93693381547927856 0.99832779169082642 -0.10999999940395355
   vertex 0.96494519710540771 0.96494519710540771 0.10999999940395355
  endloop
 endfacet
 facet normal 0.76604377846857219 0.64278840178521657 -0
  outer loop
   vertex 0.96494519710540771 0.96494519710540771 0.10999999940395355
   vertex 0.93693381547927856 0.99832779169082642 -0.10999999940395355
   vertex 0.93693381547927856 0.99832779169082642 0.10999999940395355
  endloop
 endfacet
 facet normal 0.86602530220567908 0.50000017593953128 -0
  outer loop
   vertex 0.93693381547927856 0.99832779169082642 0.10999999940395355
   vertex 0.93693381547927856 0.99832779169082642 -0.10999999940395355
   vertex 0.91514492034912109 1.0360672473907471 -0.10999999940395355
  endloop
 endfacet
 facet normal 0.86602530220567908 0.50000017593953128 -0
  outer loop
   vertex 0.93693381547927856 0.99832779169082642 0.10999999940395355
   vertex 0.91514492034912109 1.0360672473907471 -0.10999999940395355
   vertex 0.91514492034912109 1.0360672473907471 0.10999999940395355
  endloop
 endfacet
 facet normal 0.93969274660921465 0.34201979762877827 -0
  outer loop
   vertex 0.91514492034912109 1.0360672473907471 0.10999999940395355
   vertex 0.91514492034912109 1.0360672473907471 -0.10999999940395355
   vertex 0.90024042129516602 1.077017068862915 -0.10999999940395355
  endloop
 endfacet
 facet normal 0.93969274660921465 0.34201979762877827 -0
  outer loop
   vertex 0.91514492034912109 1.0360672473907471 0.10999999940395355
   vertex 0.90024042129516602 1.077017068862915 -0.10999999940395355
   vertex 0.90024042129516602 1.077017068862915 0.10999999940395355
  endloop
 endfacet
 facet normal 0.98480771482189033 0.17364839425484541 -0
  outer loop
   vertex 0.90024042129516602 1.077017068862915 0.10999999940395355
   vertex 0.90024042129516602 1.077017068862915 -0.10999999940395355
   vertex 0.89267319440841675 1.1199328899383545 -0.10999999940395355
  endloop
 endfacet
 facet normal 0.98480771482189033 0.17364839425484541 -0
  outer loop
   vertex 0.90024042129516602 1.077017068862915 0.10999999940395355
   vertex 0.89267319440841675 1.1199328899383545 -0.10999999940395355
   vertex 0.89267319440841675 1.1199328899383545 0.10999999940395355
  endloop
 endfacet
 facet normal 0.99999999999906453 1.3677720088181143e-06 -0
  outer loop
   vertex 0.89267319440841675 1.1199328899383545 0.10999999940395355
   vertex 0.89267319440841675 1.1199328899383545 -0.10999999940395355
   vertex 0.89267313480377197 1.163510799407959 -0.10999999940395355
  endloop
 endfacet
 facet normal 0.99999999999906453 1.3677720088181143e-06 -0
  outer loop
   vertex 0.89267319440841675 1.1199328899383545 0.10999999940395355
   vertex 0.89267313480377197 1.163510799407959 -0.10999999940395355
   vertex 0.89267313480377197 1.163510799407959 0.10999999940395355
  endloop
 endfacet
 facet normal 0.9848074809177606 -0.17364972078415386 0
  outer loop
   vertex 0.89267313480377197 1.163510799407959 0.10999999940395355
   vertex 0.89267313480377197 1.163510799407959 -0.10999999940395355
   vertex 0.90024042129516602 1.2064266204833984 -0.10999999940395355
  endloop
 endfacet
 facet normal 0.9848074809177606 -0.17364972078415386 0
  outer loop
   vertex 0.89267313480377197 1.163510799407959 0.10999999940395355
   vertex 0.90024042129516602 1.2064266204833984 -0.10999999940395355
   vertex 0.90024042129516602 1.2064266204833984 0.10999999940395355
  endloop
 endfacet
 facet normal 0.93969230701532214 -0.34202100540203895 0
  outer loop
   vertex 0.90024042129516602 1.2064266204833984 0.10999999940395355
   vertex 0.90024042129516602 1.2064266204833984 -0.10999999940395355
   vertex 0.91514497995376587 1.2473764419555664 -0.10999999940395355
  endloop
 endfacet
 facet normal 0.93969230701532214 -0.34202100540203895 0
  outer loop
   vertex 0.90024042129516602 1.2064266204833984 0.10999999940395355
   vertex 0.91514497995376587 1.2473764419555664 -0.10999999940395355
   vertex 0.91514497995376587 1.2473764419555664 0.10999999940395355
  endloop
 endfacet
 facet normal 0.866026236412619 -0.49999855784291486 0
  outer loop
   vertex 0.91514497995376587 1.2473764419555664 0.10999999940395355
   vertex 0.91514497995376587 1.2473764419555664 -0.10999999940395355
   vertex 0.93693381547927856 1.2851159572601318 -0.10999999940395355
  endloop
 endfacet
 facet normal 0.866026236412619 -0.49999855784291486 0
  outer loop
   vertex 0.91514497995376587 1.2473764419555664 0.10999999940395355
   vertex 0.93693381547927856 1.2851159572601318 -0.10999999940395355
   vertex 0.93693381547927856 1.2851159572601318 0.10999999940395355
  endloop
 endfacet
 facet normal 0.76604434359938478 -0.64278772828935349 0
  outer loop
   vertex 0.93693381547927856 1.2851159572601318 0.10999999940395355
   vertex 0.93693381547927856 1.2851159572601318 -0.10999999940395355
   vertex 0.96494519710540771 1.3184986114501953 -0.10999999940395355
  endloop
 endfacet
 facet normal 0.76604434359938478 -0.64278772828935349 0
  outer loop
   vertex 0.93693381547927856 1.2851159572601318 0.10999999940395355
   vertex 0.96494519710540771 1.3184986114501953 -0.10999999940395355
   vertex 0.96494519710540771 1.3184986114501953 0.10999999940395355
  endloop
 endfacet
 facet normal 0.64278894613934046 -0.76604332169993894 0
  outer loop
   vertex 0.96494519710540771 1.3184986114501953 0.10999999940395355
   vertex 0.96494519710540771 1.3184986114501953 -0.10999999940395355
   vertex 0.99832767248153687 1.3465099334716797 -0.10999999940395355
  endloop
 endfacet
 facet normal 0.64278894613934046 -0.76604332169993894 0
  outer loop
   vertex 0.96494519710540771 1.3184986114501953 0.10999999940395355
   vertex 0.99832767248153687 1.3465099334716797 -0.10999999940395355
   vertex 0.99832767248153687 1.3465099334716797 0.10999999940395355
  endloop
 endfacet
 facet normal 0.49999678105903755 -0.86602726223289361 0
  outer loop
   vertex 0.99832767248153687 1.3465099334716797 0.10999999940395355
   vertex 0.99832767248153687 1.3465099334716797 -0.10999999940395355
   vertex 1.0360673666000366 1.3682987689971924 -0.10999999940395355
  endloop
 endfacet
 facet normal 0.49999678105903755 -0.86602726223289361 0
  outer loop
   vertex 0.99832767248153687 1.3465099334716797 0.10999999940395355
   vertex 1.0360673666000366 1.3682987689971924 -0.10999999940395355
   vertex 1.0360673666000366 1.3682987689971924 0.10999999940395355
  endloop
 endfacet
 facet normal 0.34202309236692291 -0.93969154741743155 0
  outer loop
   vertex 1.0360673666000366 1.3682987689971924 0.10999999940395355
   vertex 1.0360673666000366 1.3682987689971924 -0.10999999940395355
   vertex 1.077017068862915 1.383203387260437 -0.10999999940395355
  endloop
 endfacet
 facet normal 0.34202309236692291 -0.93969154741743155 0
  outer loop
   vertex 1.0360673666000366 1.3682987689971924 0.10999999940395355
   vertex 1.077017068862915 1.383203387260437 -0.10999999940395355
   vertex 1.077017068862915 1.383203387260437 0.10999999940395355
  endloop
 endfacet
 facet normal 0.17364706772459176 -0.98480794872434441 0
  outer loop
   vertex 1.077017068862915 1.383203387260437 0.10999999940395355
   vertex 1.077017068862915 1.383203387260437 -0.10999999940395355
   vertex 1.1199328899383545 1.3907705545425415 -0.10999999940395355
  endloop
 endfacet
 facet normal 0.17364706772459176 -0.98480794872434441 0
  outer loop
   vertex 1.077017068862915 1.383203387260437 0.10999999940395355
   vertex 1.1199328899383545 1.3907705545425415 -0.10999999940395355
   vertex 1.1199328899383545 1.3907705545425415 0.10999999940395355
  endloop
 endfacet
 facet normal -2.7355440176285529e-06 -0.99999999999625844 0
  outer loop
   vertex 1.1199328899383545 1.3907705545425415 0.10999999940395355
   vertex 1.1199328899383545 1.3907705545425415 -0.10999999940395355
   vertex 1.163510799407959 1.390770435333252 -0.10999999940395355
  endloop
 endfacet
 facet normal -2.7355440176285529e-06 -0.99999999999625844 0
  outer loop
   vertex 1.1199328899383545 1.3907705545425415 0.10999999940395355
   vertex 1.163510799407959 1.390770435333252 -0.10999999940395355
   vertex 1.163510799407959 1.390770435333252 0.10999999940395355
  endloop
 endfacet
 facet normal -0.17364441466124891 -0.98480841652422546 0
  outer loop
   vertex 1.163510799407959 1.390770435333252 0.10999999940395355
   vertex 1.163510799407959 1.390770435333252 -0.10999999940395355
   vertex 1.2064266204833984 1.383203387260437 -0.10999999940395355
  endloop
 endfacet
 facet normal -0.17364441466124891 -0.98480841652422546 0
  outer loop
   vertex 1.163510799407959 1.390770435333252 0.10999999940395355
   vertex 1.2064266204833984 1.383203387260437 -0.10999999940395355
   vertex 1.2064266204833984 1.383203387260437 0.10999999940395355
  endloop
 endfacet
 facet normal -0.34202221317360465 -0.93969186742028876 0
  outer loop
   vertex 1.2064266204833984 1.383203387260437 0.10999999940395355
   vertex 1.2064266204833984 1.383203387260437 -0.10999999940395355
   vertex 1.2473764419555664 1.3682987689971924 -0.10999999940395355
  endloop
 endfacet
 facet normal -0.34202221317360465 -0.93969186742028876 0
  outer loop
   vertex 1.2064266204833984 1.383203387260437 0.10999999940395355
   vertex 1.2473764419555664 1.3682987689971924 -0.10999999940395355
   vertex 1.2473764419555664 1.3682987689971924 0.10999999940395355
  endloop
 endfacet
 facet normal -0.49999855784291486 -0.866026236412619 0
  outer loop
   vertex 1.2473764419555664 1.3682987689971924 0.10999999940395355
   vertex 1.2473764419555664 1.3682987689971924 -0.10999999940395355
   vertex 1.2851159572601318 1.3465099334716797 -0.10999999940395355
  endloop
 endfacet
 facet normal -0.49999855784291486 -0.866026236412619 0
  outer loop
   vertex 1.2473764419555664 1.3682987689971924 0.10999999940395355
   vertex 1.2851159572601318 1.3465099334716797 -0.10999999940395355
   vertex 1.2851159572601318 1.3465099334716797 0.10999999940395355
  endloop
 endfacet
 facet normal -0.64278692564797779 -0.7660450170949622 0
  outer loop
   vertex 1.2851159572601318 1.3465099334716797 0.10999999940395355
   vertex 1.2851159572601318 1.3465099334716797 -0.10999999940395355
   vertex 1.3184986114501953 1.3184986114501953 0.10999999940395355
  endloop
 endfacet
 facet normal -0.64278692564797779 -0.7660450170949622 0
  outer loop
   vertex 1.3184986114501953 1.3184986114501953 0.10999999940395355
   vertex 1.2851159572601318 1.3465099334716797 -0.10999999940395355
   vertex 1.3184986114501953 1.3184986114501953 -0.10999999940395355
  endloop
 endfacet
 facet normal 0.70710678118654757 -0.70710678118654757 0
  outer loop
   vertex 0.96353095769882202 0.96353095769882202 -0.10999999940395355
   vertex 0.96494519710540771 0.96494519710540771 -0.10999999940395355
   vertex 0.96353095769882202 0.96353095769882202 0.10999999940395355
  endloop
 endfacet
 facet normal 0.70710678118654757 -0.70710678118654757 0
  outer loop
   vertex 0.96353095769882202 0.96353095769882202 0.10999999940395355
   vertex 0.96494519710540771 0.96494519710540771 -0.10999999940395355
   vertex 0.96494519710540771 0.96494519710540771 0.10999999940395355
  endloop
 endfacet
 facet normal 0 0 1
  outer loop
   vertex 0.96494519710540771 0.96494519710540771 0.10999999940395355
   vertex 0.93693381547927856 0.99832779169082642 0.10999999940395355
   vertex 0.96353095769882202 0.96353095769882202 0.10999999940395355
  endloop
 endfacet
 facet normal 0 0 1
  outer loop
   vertex 0.96353095769882202 0.96353095769882202 0.10999999940395355
   vertex 0.93693381547927856 0.99832779169082642 0.10999999940395355
   vertex 0.93529558181762695 0.99718064069747925 0.10999999940395355
  endloop
 endfacet
 facet normal 0 0 1
  outer loop
   vertex 0.93529558181762695 0.99718064069747925 0.10999999940395355
   vertex 0.93693381547927856 0.99832779169082642 0.10999999940395355
   vertex 0.91514492034912109 1.0360672473907471 0.10999999940395355
  endloop
 endfacet
 facet normal 0 0 1
  outer loop
   vertex 0.93529558181762695 0.99718064069747925 0.10999999940395355
   vertex 0.91514492034912109 1.0360672473907471 0.10999999940395355
   vertex 0.91333234310150146 1.035222053527832 0.10999999940395355
  endloop
 endfacet
 facet normal 0 0 1
  outer loop
   vertex 0.91333234310150146 1.035222053527832 0.10999999940395355
   vertex 0.91514492034912109 1.0360672473907471 0.10999999940395355
   vertex 0.90024042129516602 1.077017068862915 0.10999999940395355
  endloop
 endfacet
 facet normal 0 0 1
  outer loop
   vertex 0.91333234310150146 1.035222053527832 0.10999999940395355
   vertex 0.90024042129516602 1.077017068862915 0.10999999940395355
   vertex 0.89830857515335083 1.0764995813369751 0.10999999940395355
  endloop
 endfacet
 facet normal 0 0 1
  outer loop
   vertex 0.89830857515335083 1.0764995813369751 0.10999999940395355
   vertex 0.90024042129516602 1.077017068862915 0.10999999940395355
   vertex 0.89267319440841675 1.1199328899383545 0.10999999940395355
  endloop
 endfacet
 facet normal 0 0 1
  outer loop
   vertex 0.89830857515335083 1.0764995813369751 0.10999999940395355
   vertex 0.89267319440841675 1.1199328899383545 0.10999999940395355
   vertex 0.89068078994750977 1.1197587251663208 0.10999999940395355
  endloop
 endfacet
 facet normal 0 0 1
  outer loop
   vertex 0.89068078994750977 1.1197587251663208 0.10999999940395355
   vertex 0.89267319440841675 1.1199328899383545 0.10999999940395355
   vertex 0.89267313480377197 1.163510799407959 0.10999999940395355
  endloop
 endfacet
 facet normal 0 0 1
  outer loop
   vertex 0.89068078994750977 1.1197587251663208 0.10999999940395355
   vertex 0.89267313480377197 1.163510799407959 0.10999999940395355
   vertex 0.89068078994750977 1.1636850833892822 0.10999999940395355
  endloop
 endfacet
 facet normal 0 -0 1
  outer loop
   vertex 0.89068078994750977 1.1636850833892822 0.10999999940395355
   vertex 0.89267313480377197 1.163510799407959 0.10999999940395355
   vertex 0.90024042129516602 1.2064266204833984 0.10999999940395355
  endloop
 endfacet
 facet normal 0 0 1
  outer loop
   vertex 0.89068078994750977 1.1636850833892822 0.10999999940395355
   vertex 0.90024042129516602 1.2064266204833984 0.10999999940395355
   vertex 0.89830857515335083 1.2069442272186279 0.10999999940395355
  endloop
 endfacet
 facet normal 0 -0 1
  outer loop
   vertex 0.89830857515335083 1.2069442272186279 0.10999999940395355
   vertex 0.90024042129516602 1.2064266204833984 0.10999999940395355
   vertex 0.91514497995376587 1.2473764419555664 0.10999999940395355
  endloop
 endfacet
 facet normal 0 0 1
  outer loop
   vertex 0.89830857515335083 1.2069442272186279 0.10999999940395355
   vertex 0.91514497995376587 1.2473764419555664 0.10999999940395355
   vertex 0.91333228349685669 1.2482216358184814 0.10999999940395355
  endloop
 endfacet
 facet normal 0 -0 1
  outer loop
   vertex 0.91333228349685669 1.2482216358184814 0.10999999940395355
   vertex 0.91514497995376587 1.2473764419555664 0.10999999940395355
   vertex 0.93693381547927856 1.2851159572601318 0.10999999940395355
  endloop
 endfacet
 facet normal 0 0 1
  outer loop
   vertex 0.91333228349685669 1.2482216358184814 0.10999999940395355
   vertex 0.93693381547927856 1.2851159572601318 0.10999999940395355
   vertex 0.93529558181762695 1.286263108253479 0.10999999940395355
  endloop
 endfacet
 facet normal 0 -0 1
  outer loop
   vertex 0.93529558181762695 1.286263108253479 0.10999999940395355
   vertex 0.93693381547927856 1.2851159572601318 0.10999999940395355
   vertex 0.96494519710540771 1.3184986114501953 0.10999999940395355
  endloop
 endfacet
 facet normal 0 0 1
  outer loop
   vertex 0.93529558181762695 1.286263108253479 0.10999999940395355
   vertex 0.96494519710540771 1.3184986114501953 0.10999999940395355
   vertex 0.9635310173034668 1.3199127912521362 0.10999999940395355
  endloop
 endfacet
 facet normal 0 -0 1
  outer loop
   vertex 0.9635310173034668 1.3199127912521362 0.10999999940395355
   vertex 0.96494519710540771 1.3184986114501953 0.10999999940395355
   vertex 0.99718064069747925 1.3481482267379761 0.10999999940395355
  endloop
 endfacet
 facet normal 0 0 1
  outer loop
   vertex 0.99718064069747925 1.3481482267379761 0.10999999940395355
   vertex 0.96494519710540771 1.3184986114501953 0.10999999940395355
   vertex 0.99832767248153687 1.3465099334716797 0.10999999940395355
  endloop
 endfacet
 facet normal 0 -0 1
  outer loop
   vertex 0.99718064069747925 1.3481482267379761 0.10999999940395355
   vertex 0.99832767248153687 1.3465099334716797 0.10999999940395355
   vertex 1.035222053527832 1.3701114654541016 0.10999999940395355
  endloop
 endfacet
 facet normal 0 0 1
  outer loop
   vertex 1.035222053527832 1.3701114654541016 0.10999999940395355
   vertex 0.99832767248153687 1.3465099334716797 0.10999999940395355
   vertex 1.0360673666000366 1.3682987689971924 0.10999999940395355
  endloop
 endfacet
 facet normal 0 -0 1
  outer loop
   vertex 1.035222053527832 1.3701114654541016 0.10999999940395355
   vertex 1.0360673666000366 1.3682987689971924 0.10999999940395355
   vertex 1.0764994621276855 1.3851351737976074 0.10999999940395355
  endloop
 endfacet
 facet normal 0 0 1
  outer loop
   vertex 1.0764994621276855 1.3851351737976074 0.10999999940395355
   vertex 1.0360673666000366 1.3682987689971924 0.10999999940395355
   vertex 1.077017068862915 1.383203387260437 0.10999999940395355
  endloop
 endfacet
 facet normal 0 -0 1
  outer loop
   vertex 1.0764994621276855 1.3851351737976074 0.10999999940395355
   vertex 1.077017068862915 1.383203387260437 0.10999999940395355
   vertex 1.1197586059570312 1.3927628993988037 0.10999999940395355
  endloop
 endfacet
 facet normal 0 0 1
  outer loop
   vertex 1.1197586059570312 1.3927628993988037 0.10999999940395355
   vertex 1.077017068862915 1.383203387260437 0.10999999940395355
   vertex 1.1199328899383545 1.3907705545425415 0.10999999940395355
  endloop
 endfacet
 facet normal 0 -0 1
  outer loop
   vertex 1.1197586059570312 1.3927628993988037 0.10999999940395355
   vertex 1.1199328899383545 1.3907705545425415 0.10999999940395355
   vertex 1.1636850833892822 1.3927628993988037 0.10999999940395355
  endloop
 endfacet
 facet normal -0 0 1
  outer loop
   vertex 1.1636850833892822 1.3927628993988037 0.10999999940395355
   vertex 1.1199328899383545 1.3907705545425415 0.10999999940395355
   vertex 1.163510799407959 1.390770435333252 0.10999999940395355
  endloop
 endfacet
 facet normal -0 0 1
  outer loop
   vertex 1.1636850833892822 1.3927628993988037 0.10999999940395355
   vertex 1.163510799407959 1.390770435333252 0.10999999940395355
   vertex 1.2069442272186279 1.3851351737976074 0.10999999940395355
  endloop
 endfacet
 facet normal 0 0 1
  outer loop
   vertex 1.2069442272186279 1.3851351737976074 0.10999999940395355
   vertex 1.163510799407959 1.390770435333252 0.10999999940395355
   vertex 1.2064266204833984 1.383203387260437 0.10999999940395355
  endloop
 endfacet
 facet normal -0 0 1
  outer loop
   vertex 1.2069442272186279 1.3851351737976074 0.10999999940395355
   vertex 1.2064266204833984 1.383203387260437 0.10999999940395355
   vertex 1.2482216358184814 1.370111346244812 0.10999999940395355
  endloop
 endfacet
 facet normal 0 0 1
  outer loop
   vertex 1.2482216358184814 1.370111346244812 0.10999999940395355
   vertex 1.2064266204833984 1.383203387260437 0.10999999940395355
   vertex 1.2473764419555664 1.3682987689971924 0.10999999940395355
  endloop
 endfacet
 facet normal -0 0 1
  outer loop
   vertex 1.2482216358184814 1.370111346244812 0.10999999940395355
   vertex 1.2473764419555664 1.3682987689971924 0.10999999940395355
   vertex 1.286263108253479 1.3481482267379761 0.10999999940395355
  endloop
 endfacet
 facet normal 0 0 1
  outer loop
   vertex 1.286263108253479 1.3481482267379761 0.10999999940395355
   vertex 1.2473764419555664 1.3682987689971924 0.10999999940395355
   vertex 1.2851159572601318 1.3465099334716797 0.10999999940395355
  endloop
 endfacet
 facet normal -0 0 1
  outer loop
   vertex 1.286263108253479 1.3481482267379761 0.10999999940395355
   vertex 1.2851159572601318 1.3465099334716797 0.10999999940395355
   vertex 1.3199127912521362 1.3199127912521362 0.10999999940395355
  endloop
 endfacet
 facet normal 0 0 1
  outer loop
   vertex 1.3199127912521362 1.3199127912521362 0.10999999940395355
   vertex 1.2851159572601318 1.3465099334716797 0.10999999940395355
   vertex 1.3184986114501953 1.3184986114501953 0.10999999940395355
  endloop
 endfacet
 facet normal 0 0 -1
  outer loop
   vertex 0.96494519710540771 0.96494519710540771 -0.10999999940395355
   vertex 0.96353095769882202 0.96353095769882202 -0.10999999940395355
   vertex 0.93693381547927856 0.99832779169082642 -0.10999999940395355
  endloop
 endfacet
 facet normal 0 0 -1
  outer loop
   vertex 0.93693381547927856 0.99832779169082642 -0.10999999940395355
   vertex 0.96353095769882202 0.96353095769882202 -0.10999999940395355
   vertex 0.93529558181762695 0.99718064069747925 -0.10999999940395355
  endloop
 endfacet
 facet normal 0 0 -1
  outer loop
   vertex 0.93693381547927856 0.99832779169082642 -0.10999999940395355
   vertex 0.93529558181762695 0.99718064069747925 -0.10999999940395355
   vertex 0.91514492034912109 1.0360672473907471 -0.10999999940395355
  endloop
 endfacet
 facet normal 0 0 -1
  outer loop
   vertex 0.91514492034912109 1.0360672473907471 -0.10999999940395355
   vertex 0.93529558181762695 0.99718064069747925 -0.10999999940395355
   vertex 0.91333234310150146 1.035222053527832 -0.10999999940395355
  endloop
 endfacet
 facet normal 0 0 -1
  outer loop
   vertex 0.91514492034912109 1.0360672473907471 -0.10999999940395355
   vertex 0.91333234310150146 1.035222053527832 -0.10999999940395355
   vertex 0.90024042129516602 1.077017068862915 -0.10999999940395355
  endloop
 endfacet
 facet normal 0 0 -1
  outer loop
   vertex 0.90024042129516602 1.077017068862915 -0.10999999940395355
   vertex 0.91333234310150146 1.035222053527832 -0.10999999940395355
   vertex 0.89830857515335083 1.0764995813369751 -0.10999999940395355
  endloop
 endfacet
 facet normal 0 0 -1
  outer loop
   vertex 0.90024042129516602 1.077017068862915 -0.10999999940395355
   vertex 0.89830857515335083 1.0764995813369751 -0.10999999940395355
   vertex 0.89267319440841675 1.1199328899383545 -0.10999999940395355
  endloop
 endfacet
 facet normal 0 0 -1
  outer loop
   vertex 0.89267319440841675 1.1199328899383545 -0.10999999940395355
   vertex 0.89830857515335083 1.0764995813369751 -0.10999999940395355
   vertex 0.89068078994750977 1.1197587251663208 -0.10999999940395355
  endloop
 endfacet
 facet normal 0 0 -1
  outer loop
   vertex 0.89267319440841675 1.1199328899383545 -0.10999999940395355
   vertex 0.89068078994750977 1.1197587251663208 -0.10999999940395355
   vertex 0.89267313480377197 1.163510799407959 -0.10999999940395355
  endloop
 endfacet
 facet normal 0 0 -1
  outer loop
   vertex 0.89267313480377197 1.163510799407959 -0.10999999940395355
   vertex 0.89068078994750977 1.1197587251663208 -0.10999999940395355
   vertex 0.89068078994750977 1.1636850833892822 -0.10999999940395355
  endloop
 endfacet
 facet normal 0 0 -1
  outer loop
   vertex 0.89267313480377197 1.163510799407959 -0.10999999940395355
   vertex 0.89068078994750977 1.1636850833892822 -0.10999999940395355
   vertex 0.90024042129516602 1.2064266204833984 -0.10999999940395355
  endloop
 endfacet
 facet normal 0 0 -1
  outer loop
   vertex 0.90024042129516602 1.2064266204833984 -0.10999999940395355
   vertex 0.89068078994750977 1.1636850833892822 -0.10999999940395355
   vertex 0.89830857515335083 1.2069442272186279 -0.10999999940395355
  endloop
 endfacet
 facet normal 0 0 -1
  outer loop
   vertex 0.90024042129516602 1.2064266204833984 -0.10999999940395355
   vertex 0.89830857515335083 1.2069442272186279 -0.10999999940395355
   vertex 0.91514497995376587 1.2473764419555664 -0.10999999940395355
  endloop
 endfacet
 facet normal 0 0 -1
  outer loop
   vertex 0.91514497995376587 1.2473764419555664 -0.10999999940395355
   vertex 0.89830857515335083 1.2069442272186279 -0.10999999940395355
   vertex 0.91333228349685669 1.2482216358184814 -0.10999999940395355
  endloop
 endfacet
 facet normal 0 0 -1
  outer loop
   vertex 0.91514497995376587 1.2473764419555664 -0.10999999940395355
   vertex 0.91333228349685669 1.2482216358184814 -0.10999999940395355
   vertex 0.93693381547927856 1.2851159572601318 -0.10999999940395355
  endloop
 endfacet
 facet normal 0 0 -1
  outer loop
   vertex 0.93693381547927856 1.2851159572601318 -0.10999999940395355
   vertex 0.91333228349685669 1.2482216358184814 -0.10999999940395355
   vertex 0.93529558181762695 1.286263108253479 -0.10999999940395355
  endloop
 endfacet
 facet normal 0 0 -1
  outer loop
   vertex 0.93693381547927856 1.2851159572601318 -0.10999999940395355
   vertex 0.93529558181762695 1.286263108253479 -0.10999999940395355
   vertex 0.96494519710540771 1.3184986114501953 -0.10999999940395355
  endloop
 endfacet
 facet normal 0 0 -1
  outer loop
   vertex 0.96494519710540771 1.3184986114501953 -0.10999999940395355
   vertex 0.93529558181762695 1.286263108253479 -0.10999999940395355
   vertex 0.9635310173034668 1.3199127912521362 -0.10999999940395355
  endloop
 endfacet
 facet normal 0 0 -1
  outer loop
   vertex 0.96494519710540771 1.3184986114501953 -0.10999999940395355
   vertex 0.9635310173034668 1.3199127912521362 -0.10999999940395355
   vertex 0.99718064069747925 1.3481482267379761 -0.10999999940395355
  endloop
 endfacet
 facet normal 0 -0 -1
  outer loop
   vertex 0.96494519710540771 1.3184986114501953 -0.10999999940395355
   vertex 0.99718064069747925 1.3481482267379761 -0.10999999940395355
   vertex 0.99832767248153687 1.3465099334716797 -0.10999999940395355
  endloop
 endfacet
 facet normal 0 0 -1
  outer loop
   vertex 0.99832767248153687 1.3465099334716797 -0.10999999940395355
   vertex 0.99718064069747925 1.3481482267379761 -0.10999999940395355
   vertex 1.035222053527832 1.3701114654541016 -0.10999999940395355
  endloop
 endfacet
 facet normal 0 -0 -1
  outer loop
   vertex 0.99832767248153687 1.3465099334716797 -0.10999999940395355
   vertex 1.035222053527832 1.3701114654541016 -0.10999999940395355
   vertex 1.0360673666000366 1.3682987689971924 -0.10999999940395355
  endloop
 endfacet
 facet normal 0 0 -1
  outer loop
   vertex 1.0360673666000366 1.3682987689971924 -0.10999999940395355
   vertex 1.035222053527832 1.3701114654541016 -0.10999999940395355
   vertex 1.0764994621276855 1.3851351737976074 -0.10999999940395355
  endloop
 endfacet
 facet normal 0 -0 -1
  outer loop
   vertex 1.0360673666000366 1.3682987689971924 -0.10999999940395355
   vertex 1.0764994621276855 1.3851351737976074 -0.10999999940395355
   vertex 1.077017068862915 1.383203387260437 -0.10999999940395355
  endloop
 endfacet
 facet normal 0 0 -1
  outer loop
   vertex 1.077017068862915 1.383203387260437 -0.10999999940395355
   vertex 1.0764994621276855 1.3851351737976074 -0.10999999940395355
   vertex 1.1197586059570312 1.3927628993988037 -0.10999999940395355
  endloop
 endfacet
 facet normal 0 -0 -1
  outer loop
   vertex 1.077017068862915 1.383203387260437 -0.10999999940395355
   vertex 1.1197586059570312 1.3927628993988037 -0.10999999940395355
   vertex 1.1199328899383545 1.3907705545425415 -0.10999999940395355
  endloop
 endfacet
 facet normal 0 0 -1
  outer loop
   vertex 1.1199328899383545 1.3907705545425415 -0.10999999940395355
   vertex 1.1197586059570312 1.3927628993988037 -0.10999999940395355
   vertex 1.1636850833892822 1.3927628993988037 -0.10999999940395355
  endloop
 endfacet
 facet normal 0 0 -1
  outer loop
   vertex 1.1199328899383545 1.3907705545425415 -0.10999999940395355
   vertex 1.1636850833892822 1.3927628993988037 -0.10999999940395355
   vertex 1.163510799407959 1.390770435333252 -0.10999999940395355
  endloop
 endfacet
 facet normal 0 -0 -1
  outer loop
   vertex 1.163510799407959 1.390770435333252 -0.10999999940395355
   vertex 1.1636850833892822 1.3927628993988037 -0.10999999940395355
   vertex 1.2069442272186279 1.3851351737976074 -0.10999999940395355
  endloop
 endfacet
 facet normal -0 0 -1
  outer loop
   vertex 1.163510799407959 1.390770435333252 -0.10999999940395355
   vertex 1.2069442272186279 1.3851351737976074 -0.10999999940395355
   vertex 1.2064266204833984 1.383203387260437 -0.10999999940395355
  endloop
 endfacet
 facet normal 0 -0 -1
  outer loop
   vertex 1.2064266204833984 1.383203387260437 -0.10999999940395355
   vertex 1.2069442272186279 1.3851351737976074 -0.10999999940395355
   vertex 1.2482216358184814 1.370111346244812 -0.10999999940395355
  endloop
 endfacet
 facet normal -0 0 -1
  outer loop
   vertex 1.2064266204833984 1.383203387260437 -0.10999999940395355
   vertex 1.2482216358184814 1.370111346244812 -0.10999999940395355
   vertex 1.2473764419555664 1.3682987689971924 -0.10999999940395355
  endloop
 endfacet
 facet normal 0 -0 -1
  outer loop
   vertex 1.2473764419555664 1.3682987689971924 -0.10999999940395355
   vertex 1.2482216358184814 1.370111346244812 -0.10999999940395355
   vertex 1.286263108253479 1.3481482267379761 -0.10999999940395355
  endloop
 endfacet
 facet normal -0 0 -1
  outer loop
   vertex 1.2473764419555664 1.3682987689971924 -0.10999999940395355
   vertex 1.286263108253479 1.3481482267379761 -0.10999999940395355
   vertex 1.2851159572601318 1.3465099334716797 -0.10999999940395355
  endloop
 endfacet
 facet normal 0 -0 -1
  outer loop
   vertex 1.2851159572601318 1.3465099334716797 -0.10999999940395355
   vertex 1.286263108253479 1.3481482267379761 -0.10999999940395355
   vertex 1.3199127912521362 1.3199127912521362 -0.10999999940395355
  endloop
 endfacet
 facet normal -0 0 -1
  outer loop
   vertex 1.2851159572601318 1.3465099334716797 -0.10999999940395355
   vertex 1.3199127912521362 1.3199127912521362 -0.10999999940395355
   vertex 1.3184986114501953 1.3184986114501953 -0.10999999940395355
  endloop
 endfacet
 facet normal -0.70710678118654746 0.70710678118654746 0
  outer loop
   vertex 0.6833045482635498 0.6833045482635498 -0.10999999940395355
   vertex 0.68189036846160889 0.68189036846160889 -0.10999999940395355
   vertex 0.6833045482635498 0.6833045482635498 0.10999999940395355
  endloop
 endfacet
 facet normal -0.70710678118654746 0.70710678118654746 0
  outer loop
   vertex 0.6833045482635498 0.6833045482635498 0.10999999940395355
   vertex 0.68189036846160889 0.68189036846160889 -0.10999999940395355
   vertex 0.68189036846160889 0.68189036846160889 0.10999999940395355
  endloop
 endfacet
 facet normal -0.76604388683338975 -0.64278827264130511 0
  outer loop
   vertex 1.0368579626083374 1.0368579626083374 -0.10999999940395355
   vertex 1.0648692846298218 1.0034754276275635 -0.10999999940395355
   vertex 1.0368579626083374 1.0368579626083374 0.10999999940395355
  endloop
 endfacet
 facet normal -0.76604388683338975 -0.64278827264130511 0
  outer loop
   vertex 1.0368579626083374 1.0368579626083374 0.10999999940395355
   vertex 1.0648692846298218 1.0034754276275635 -0.10999999940395355
   vertex 1.0648692846298218 1.0034754276275635 0.10999999940395355
  endloop
 endfacet
 facet normal -0.86602692029401718 -0.49999737331916072 0
  outer loop
   vertex 1.0648692846298218 1.0034754276275635 0.10999999940395355
   vertex 1.0648692846298218 1.0034754276275635 -0.10999999940395355
   vertex 1.0866581201553345 0.9657357931137085 -0.10999999940395355
  endloop
 endfacet
 facet normal -0.86602692029401718 -0.49999737331916072 0
  outer loop
   vertex 1.0648692846298218 1.0034754276275635 0.10999999940395355
   vertex 1.0866581201553345 0.9657357931137085 -0.10999999940395355
   vertex 1.0866581201553345 0.9657357931137085 0.10999999940395355
  endloop
 endfacet
 facet normal -0.93969186742028876 -0.34202221317360465 0
  outer loop
   vertex 1.0866581201553345 0.9657357931137085 0.10999999940395355
   vertex 1.0866581201553345 0.9657357931137085 -0.10999999940395355
   vertex 1.1015627384185791 0.92478597164154053 -0.10999999940395355
  endloop
 endfacet
 facet normal -0.93969186742028876 -0.34202221317360465 0
  outer loop
   vertex 1.0866581201553345 0.9657357931137085 0.10999999940395355
   vertex 1.1015627384185791 0.92478597164154053 -0.10999999940395355
   vertex 1.1015627384185791 0.92478597164154053 0.10999999940395355
  endloop
 endfacet
 facet normal -0.98480790748136715 -0.17364730162651815 0
  outer loop
   vertex 1.1015627384185791 0.92478597164154053 0.10999999940395355
   vertex 1.1015627384185791 0.92478597164154053 -0.10999999940395355
   vertex 1.1091299057006836 0.88187021017074585 -0.10999999940395355
  endloop
 endfacet
 facet normal -0.98480790748136715 -0.17364730162651815 0
  outer loop
   vertex 1.1015627384185791 0.92478597164154053 0.10999999940395355
   vertex 1.1091299057006836 0.88187021017074585 -0.10999999940395355
   vertex 1.1091299057006836 0.88187021017074585 0.10999999940395355
  endloop
 endfacet
 facet normal -1 0 0
  outer loop
   vertex 1.1091299057006836 0.88187021017074585 0.10999999940395355
   vertex 1.1091299057006836 0.88187021017074585 -0.10999999940395355
   vertex 1.1091299057006836 0.83829230070114136 -0.10999999940395355
  endloop
 endfacet
 facet normal -1 0 0
  outer loop
   vertex 1.1091299057006836 0.88187021017074585 0.10999999940395355
   vertex 1.1091299057006836 0.83829230070114136 -0.10999999940395355
   vertex 1.1091299057006836 0.83829230070114136 0.10999999940395355
  endloop
 endfacet
 facet normal -0.98480794872434441 0.17364706772459176 0
  outer loop
   vertex 1.1091299057006836 0.83829230070114136 0.10999999940395355
   vertex 1.1091299057006836 0.83829230070114136 -0.10999999940395355
   vertex 1.1015627384185791 0.7953764796257019 -0.10999999940395355
  endloop
 endfacet
 facet normal -0.98480794872434441 0.17364706772459176 0
  outer loop
   vertex 1.1091299057006836 0.83829230070114136 0.10999999940395355
   vertex 1.1015627384185791 0.7953764796257019 -0.10999999940395355
   vertex 1.1015627384185791 0.7953764796257019 0.10999999940395355
  endloop
 endfacet
 facet normal -0.93969274660921465 0.34201979762877827 0
  outer loop
   vertex 1.1015627384185791 0.7953764796257019 0.10999999940395355
   vertex 1.1015627384185791 0.7953764796257019 -0.10999999940395355
   vertex 1.086658239364624 0.75442665815353394 -0.10999999940395355
  endloop
 endfacet
 facet normal -0.93969274660921465 0.34201979762877827 0
  outer loop
   vertex 1.1015627384185791 0.7953764796257019 0.10999999940395355
   vertex 1.086658239364624 0.75442665815353394 -0.10999999940395355
   vertex 1.086658239364624 0.75442665815353394 0.10999999940395355
  endloop
 endfacet
 facet normal -0.86602505188571621 0.50000060950597103 0
  outer loop
   vertex 1.086658239364624 0.75442665815353394 0.10999999940395355
   vertex 1.086658239364624 0.75442665815353394 -0.10999999940395355
   vertex 1.0648692846298218 0.71668714284896851 -0.10999999940395355
  endloop
 endfacet
 facet normal -0.86602505188571621 0.50000060950597103 0
  outer loop
   vertex 1.086658239364624 0.75442665815353394 0.10999999940395355
   vertex 1.0648692846298218 0.71668714284896851 -0.10999999940395355
   vertex 1.0648692846298218 0.71668714284896851 0.10999999940395355
  endloop
 endfacet
 facet normal -0.76604445196506421 0.64278759914418426 0
  outer loop
   vertex 1.0648692846298218 0.71668714284896851 0.10999999940395355
   vertex 1.0648692846298218 0.71668714284896851 -0.10999999940395355
   vertex 1.0368579626083374 0.6833045482635498 -0.10999999940395355
  endloop
 endfacet
 facet normal -0.76604445196506421 0.64278759914418426 0
  outer loop
   vertex 1.0648692846298218 0.71668714284896851 0.10999999940395355
   vertex 1.0368579626083374 0.6833045482635498 -0.10999999940395355
   vertex 1.0368579626083374 0.6833045482635498 0.10999999940395355
  endloop
 endfacet
 facet normal -0.64278692564797779 0.7660450170949622 0
  outer loop
   vertex 1.0368579626083374 0.6833045482635498 0.10999999940395355
   vertex 1.0368579626083374 0.6833045482635498 -0.10999999940395355
   vertex 1.0034753084182739 0.65529322624206543 -0.10999999940395355
  endloop
 endfacet
 facet normal -0.64278692564797779 0.7660450170949622 0
  outer loop
   vertex 1.0368579626083374 0.6833045482635498 0.10999999940395355
   vertex 1.0034753084182739 0.65529322624206543 -0.10999999940395355
   vertex 1.0034753084182739 0.65529322624206543 0.10999999940395355
  endloop
 endfacet
 facet normal -0.50000120177041207 0.86602470994085601 0
  outer loop
   vertex 1.0034753084182739 0.65529322624206543 0.10999999940395355
   vertex 1.0034753084182739 0.65529322624206543 -0.10999999940395355
   vertex 0.96573585271835327 0.63350427150726318 -0.10999999940395355
  endloop
 endfacet
 facet normal -0.50000120177041207 0.86602470994085601 0
  outer loop
   vertex 1.0034753084182739 0.65529322624206543 0.10999999940395355
   vertex 0.96573585271835327 0.63350427150726318 -0.10999999940395355
   vertex 0.96573585271835327 0.63350427150726318 0.10999999940395355
  endloop
 endfacet
 facet normal -0.34201935803598393 0.93969290660760729 0
  outer loop
   vertex 0.96573585271835327 0.63350427150726318 0.10999999940395355
   vertex 0.96573585271835327 0.63350427150726318 -0.10999999940395355
   vertex 0.92478597164154053 0.61859977245330811 -0.10999999940395355
  endloop
 endfacet
 facet normal -0.34201935803598393 0.93969290660760729 0
  outer loop
   vertex 0.96573585271835327 0.63350427150726318 0.10999999940395355
   vertex 0.92478597164154053 0.61859977245330811 -0.10999999940395355
   vertex 0.92478597164154053 0.61859977245330811 0.10999999940395355
  endloop
 endfacet
 facet normal -0.17364730162651815 0.98480790748136715 0
  outer loop
   vertex 0.92478597164154053 0.61859977245330811 0.10999999940395355
   vertex 0.92478597164154053 0.61859977245330811 -0.10999999940395355
   vertex 0.88187021017074585 0.61103260517120361 -0.10999999940395355
  endloop
 endfacet
 facet normal -0.17364730162651815 0.98480790748136715 0
  outer loop
   vertex 0.92478597164154053 0.61859977245330811 0.10999999940395355
   vertex 0.88187021017074585 0.61103260517120361 -0.10999999940395355
   vertex 0.88187021017074585 0.61103260517120361 0.10999999940395355
  endloop
 endfacet
 facet normal -1.3677720088181143e-06 0.99999999999906453 0
  outer loop
   vertex 0.88187021017074585 0.61103260517120361 0.10999999940395355
   vertex 0.88187021017074585 0.61103260517120361 -0.10999999940395355
   vertex 0.83829230070114136 0.61103254556655884 -0.10999999940395355
  endloop
 endfacet
 facet normal -1.3677720088181143e-06 0.99999999999906453 0
  outer loop
   vertex 0.88187021017074585 0.61103260517120361 0.10999999940395355
   vertex 0.83829230070114136 0.61103254556655884 -0.10999999940395355
   vertex 0.83829230070114136 0.61103254556655884 0.10999999940395355
  endloop
 endfacet
 facet normal 0.17364972078415386 0.9848074809177606 -0
  outer loop
   vertex 0.83829230070114136 0.61103254556655884 0.10999999940395355
   vertex 0.83829230070114136 0.61103254556655884 -0.10999999940395355
   vertex 0.7953764796257019 0.61859983205795288 -0.10999999940395355
  endloop
 endfacet
 facet normal 0.17364972078415386 0.9848074809177606 -0
  outer loop
   vertex 0.83829230070114136 0.61103254556655884 0.10999999940395355
   vertex 0.7953764796257019 0.61859983205795288 -0.10999999940395355
   vertex 0.7953764796257019 0.61859983205795288 0.10999999940395355
  endloop
 endfacet
 facet normal 0.34201979762877827 0.93969274660921465 -0
  outer loop
   vertex 0.7953764796257019 0.61859983205795288 0.10999999940395355
   vertex 0.7953764796257019 0.61859983205795288 -0.10999999940395355
   vertex 0.75442665815353394 0.63350433111190796 -0.10999999940395355
  endloop
 endfacet
 facet normal 0.34201979762877827 0.93969274660921465 -0
  outer loop
   vertex 0.7953764796257019 0.61859983205795288 0.10999999940395355
   vertex 0.75442665815353394 0.63350433111190796 -0.10999999940395355
   vertex 0.75442665815353394 0.63350433111190796 0.10999999940395355
  endloop
 endfacet
 facet normal 0.4999995836754953 0.86602564414937011 -0
  outer loop
   vertex 0.75442665815353394 0.63350433111190796 0.10999999940395355
   vertex 0.75442665815353394 0.63350433111190796 -0.10999999940395355
   vertex 0.71668714284896851 0.65529322624206543 -0.10999999940395355
  endloop
 endfacet
 facet normal 0.4999995836754953 0.86602564414937011 -0
  outer loop
   vertex 0.75442665815353394 0.63350433111190796 0.10999999940395355
   vertex 0.71668714284896851 0.65529322624206543 -0.10999999940395355
   vertex 0.71668714284896851 0.65529322624206543 0.10999999940395355
  endloop
 endfacet
 facet normal 0.64278759914418426 0.76604445196506421 -0
  outer loop
   vertex 0.71668714284896851 0.65529322624206543 0.10999999940395355
   vertex 0.71668714284896851 0.65529322624206543 -0.10999999940395355
   vertex 0.6833045482635498 0.6833045482635498 0.10999999940395355
  endloop
 endfacet
 facet normal 0.64278759914418426 0.76604445196506421 0
  outer loop
   vertex 0.6833045482635498 0.6833045482635498 0.10999999940395355
   vertex 0.71668714284896851 0.65529322624206543 -0.10999999940395355
   vertex 0.6833045482635498 0.6833045482635498 -0.10999999940395355
  endloop
 endfacet
 facet normal -0.70710678118654746 0.70710678118654746 0
  outer loop
   vertex 1.0382721424102783 1.0382721424102783 -0.10999999940395355
   vertex 1.0368579626083374 1.0368579626083374 -0.10999999940395355
   vertex 1.0382721424102783 1.0382721424102783 0.10999999940395355
  endloop
 endfacet
 facet normal -0.70710678118654746 0.70710678118654746 0
  outer loop
   vertex 1.0382721424102783 1.0382721424102783 0.10999999940395355
   vertex 1.0368579626083374 1.0368579626083374 -0.10999999940395355
   vertex 1.0368579626083374 1.0368579626083374 0.10999999940395355
  endloop
 endfacet
 facet normal -0.64278826304168424 -0.76604389488844216 0
  outer loop
   vertex 0.68189036846160889 0.68189036846160889 -0.10999999940395355
   vertex 0.71553999185562134 0.65365493297576904 -0.10999999940395355
   vertex 0.68189036846160889 0.68189036846160889 0.10999999940395355
  endloop
 endfacet
 facet normal -0.64278826304168424 -0.76604389488844216 0
  outer loop
   vertex 0.68189036846160889 0.68189036846160889 0.10999999940395355
   vertex 0.71553999185562134 0.65365493297576904 -0.10999999940395355
   vertex 0.71553999185562134 0.65365493297576904 0.10999999940395355
  endloop
 endfacet
 facet normal -0.49999973305536827 -0.86602555790493885 0
  outer loop
   vertex 0.71553999185562134 0.65365493297576904 0.10999999940395355
   vertex 0.71553999185562134 0.65365493297576904 -0.10999999940395355
   vertex 0.7535814642906189 0.63169169425964355 -0.10999999940395355
  endloop
 endfacet
 facet normal -0.49999973305536827 -0.86602555790493885 0
  outer loop
   vertex 0.71553999185562134 0.65365493297576904 0.10999999940395355
   vertex 0.7535814642906189 0.63169169425964355 -0.10999999940395355
   vertex 0.7535814642906189 0.63169169425964355 0.10999999940395355
  endloop
 endfacet
 facet normal -0.34201934457210215 -0.93969291150804657 0
  outer loop
   vertex 0.7535814642906189 0.63169169425964355 0.10999999940395355
   vertex 0.7535814642906189 0.63169169425964355 -0.10999999940395355
   vertex 0.79485887289047241 0.6166679859161377 -0.10999999940395355
  endloop
 endfacet
 facet normal -0.34201934457210215 -0.93969291150804657 0
  outer loop
   vertex 0.7535814642906189 0.63169169425964355 0.10999999940395355
   vertex 0.79485887289047241 0.6166679859161377 -0.10999999940395355
   vertex 0.79485887289047241 0.6166679859161377 0.10999999940395355
  endloop
 endfacet
 facet normal -0.17364886181043843 -0.98480763237900393 0
  outer loop
   vertex 0.79485887289047241 0.6166679859161377 0.10999999940395355
   vertex 0.79485887289047241 0.6166679859161377 -0.10999999940395355
   vertex 0.83811801671981812 0.60904020071029663 -0.10999999940395355
  endloop
 endfacet
 facet normal -0.17364886181043843 -0.98480763237900393 0
  outer loop
   vertex 0.79485887289047241 0.6166679859161377 0.10999999940395355
   vertex 0.83811801671981812 0.60904020071029663 -0.10999999940395355
   vertex 0.83811801671981812 0.60904020071029663 0.10999999940395355
  endloop
 endfacet
 facet normal 0 -1 0
  outer loop
   vertex 0.83811801671981812 0.60904020071029663 0.10999999940395355
   vertex 0.83811801671981812 0.60904020071029663 -0.10999999940395355
   vertex 0.88204443454742432 0.60904020071029663 -0.10999999940395355
  endloop
 endfacet
 facet normal 0 -1 0
  outer loop
   vertex 0.83811801671981812 0.60904020071029663 0.10999999940395355
   vertex 0.88204443454742432 0.60904020071029663 -0.10999999940395355
   vertex 0.88204443454742432 0.60904020071029663 0.10999999940395355
  endloop
 endfacet
 facet normal 0.17364731376285231 -0.98480790534141505 0
  outer loop
   vertex 0.88204443454742432 0.60904020071029663 0.10999999940395355
   vertex 0.88204443454742432 0.60904020071029663 -0.10999999940395355
   vertex 0.92530363798141479 0.61666792631149292 -0.10999999940395355
  endloop
 endfacet
 facet normal 0.17364731376285231 -0.98480790534141505 0
  outer loop
   vertex 0.88204443454742432 0.60904020071029663 0.10999999940395355
   vertex 0.92530363798141479 0.61666792631149292 -0.10999999940395355
   vertex 0.92530363798141479 0.61666792631149292 0.10999999940395355
  endloop
 endfacet
 facet normal 0.34202054276083049 -0.93969247540330292 0
  outer loop
   vertex 0.92530363798141479 0.61666792631149292 0.10999999940395355
   vertex 0.92530363798141479 0.61666792631149292 -0.10999999940395355
   vertex 0.96658104658126831 0.63169169425964355 -0.10999999940395355
  endloop
 endfacet
 facet normal 0.34202054276083049 -0.93969247540330292 0
  outer loop
   vertex 0.92530363798141479 0.61666792631149292 0.10999999940395355
   vertex 0.96658104658126831 0.63169169425964355 -0.10999999940395355
   vertex 0.96658104658126831 0.63169169425964355 0.10999999940395355
  endloop
 endfacet
 facet normal 0.49999930292827527 -0.86602580623861247 0
  outer loop
   vertex 0.96658104658126831 0.63169169425964355 0.10999999940395355
   vertex 0.96658104658126831 0.63169169425964355 -0.10999999940395355
   vertex 1.0046224594116211 0.65365487337112427 -0.10999999940395355
  endloop
 endfacet
 facet normal 0.49999930292827527 -0.86602580623861247 0
  outer loop
   vertex 0.96658104658126831 0.63169169425964355 0.10999999940395355
   vertex 1.0046224594116211 0.65365487337112427 -0.10999999940395355
   vertex 1.0046224594116211 0.65365487337112427 0.10999999940395355
  endloop
 endfacet
 facet normal 0.64278839116056008 -0.76604378738373624 0
  outer loop
   vertex 1.0046224594116211 0.65365487337112427 0.10999999940395355
   vertex 1.0046224594116211 0.65365487337112427 -0.10999999940395355
   vertex 1.0382721424102783 0.68189036846160889 -0.10999999940395355
  endloop
 endfacet
 facet normal 0.64278839116056008 -0.76604378738373624 0
  outer loop
   vertex 1.0046224594116211 0.65365487337112427 0.10999999940395355
   vertex 1.0382721424102783 0.68189036846160889 -0.10999999940395355
   vertex 1.0382721424102783 0.68189036846160889 0.10999999940395355
  endloop
 endfacet
 facet normal 0.76604333424066395 -0.64278893119393887 0
  outer loop
   vertex 1.0382721424102783 0.68189036846160889 0.10999999940395355
   vertex 1.0382721424102783 0.68189036846160889 -0.10999999940395355
   vertex 1.0665075778961182 0.71553993225097656 -0.10999999940395355
  endloop
 endfacet
 facet normal 0.76604333424066395 -0.64278893119393887 0
  outer loop
   vertex 1.0382721424102783 0.68189036846160889 0.10999999940395355
   vertex 1.0665075778961182 0.71553993225097656 -0.10999999940395355
   vertex 1.0665075778961182 0.71553993225097656 0.10999999940395355
  endloop
 endfacet
 facet normal 0.86602589713339362 -0.49999914549357077 0
  outer loop
   vertex 1.0665075778961182 0.71553993225097656 0.10999999940395355
   vertex 1.0665075778961182 0.71553993225097656 -0.10999999940395355
   vertex 1.0884708166122437 0.7535814642906189 -0.10999999940395355
  endloop
 endfacet
 facet normal 0.86602589713339362 -0.49999914549357077 0
  outer loop
   vertex 1.0665075778961182 0.71553993225097656 0.10999999940395355
   vertex 1.0884708166122437 0.7535814642906189 -0.10999999940395355
   vertex 1.0884708166122437 0.7535814642906189 0.10999999940395355
  endloop
 endfacet
 facet normal 0.93969291150804657 -0.34201934457210215 0
  outer loop
   vertex 1.0884708166122437 0.7535814642906189 0.10999999940395355
   vertex 1.0884708166122437 0.7535814642906189 -0.10999999940395355
   vertex 1.1034945249557495 0.79485887289047241 -0.10999999940395355
  endloop
 endfacet
 facet normal 0.93969291150804657 -0.34201934457210215 0
  outer loop
   vertex 1.0884708166122437 0.7535814642906189 0.10999999940395355
   vertex 1.1034945249557495 0.79485887289047241 -0.10999999940395355
   vertex 1.1034945249557495 0.79485887289047241 0.10999999940395355
  endloop
 endfacet
 facet normal 0.98480786442570234 -0.17364754580842084 0
  outer loop
   vertex 1.1034945249557495 0.79485887289047241 0.10999999940395355
   vertex 1.1034945249557495 0.79485887289047241 -0.10999999940395355
   vertex 1.1111222505569458 0.83811801671981812 -0.10999999940395355
  endloop
 endfacet
 facet normal 0.98480786442570234 -0.17364754580842084 0
  outer loop
   vertex 1.1034945249557495 0.79485887289047241 0.10999999940395355
   vertex 1.1111222505569458 0.83811801671981812 -0.10999999940395355
   vertex 1.1111222505569458 0.83811801671981812 0.10999999940395355
  endloop
 endfacet
 facet normal 0.99999999999631761 -2.713836768136076e-06 0
  outer loop
   vertex 1.1111222505569458 0.83811801671981812 0.10999999940395355
   vertex 1.1111222505569458 0.83811801671981812 -0.10999999940395355
   vertex 1.1111223697662354 0.88204449415206909 -0.10999999940395355
  endloop
 endfacet
 facet normal 0.99999999999631761 -2.713836768136076e-06 0
  outer loop
   vertex 1.1111222505569458 0.83811801671981812 0.10999999940395355
   vertex 1.1111223697662354 0.88204449415206909 -0.10999999940395355
   vertex 1.1111223697662354 0.88204449415206909 0.10999999940395355
  endloop
 endfacet
 facet normal 0.98480744124759012 0.17364994576265877 -0
  outer loop
   vertex 1.1111223697662354 0.88204449415206909 0.10999999940395355
   vertex 1.1111223697662354 0.88204449415206909 -0.10999999940395355
   vertex 1.1034945249557495 0.92530369758605957 -0.10999999940395355
  endloop
 endfacet
 facet normal 0.98480744124759012 0.17364994576265877 -0
  outer loop
   vertex 1.1111223697662354 0.88204449415206909 0.10999999940395355
   vertex 1.1034945249557495 0.92530369758605957 -0.10999999940395355
   vertex 1.1034945249557495 0.92530369758605957 0.10999999940395355
  endloop
 endfacet
 facet normal 0.93969275277922149 0.34201978067680372 -0
  outer loop
   vertex 1.1034945249557495 0.92530369758605957 0.10999999940395355
   vertex 1.1034945249557495 0.92530369758605957 -0.10999999940395355
   vertex 1.0884708166122437 0.96658104658126831 -0.10999999940395355
  endloop
 endfacet
 facet normal 0.93969275277922149 0.34201978067680372 -0
  outer loop
   vertex 1.1034945249557495 0.92530369758605957 0.10999999940395355
   vertex 1.0884708166122437 0.96658104658126831 -0.10999999940395355
   vertex 1.0884708166122437 0.96658104658126831 0.10999999940395355
  endloop
 endfacet
 facet normal 0.86602521867528814 0.50000032061831656 -0
  outer loop
   vertex 1.0884708166122437 0.96658104658126831 0.10999999940395355
   vertex 1.0884708166122437 0.96658104658126831 -0.10999999940395355
   vertex 1.0665075778961182 1.0046224594116211 -0.10999999940395355
  endloop
 endfacet
 facet normal 0.86602521867528814 0.50000032061831656 -0
  outer loop
   vertex 1.0884708166122437 0.96658104658126831 0.10999999940395355
   vertex 1.0665075778961182 1.0046224594116211 -0.10999999940395355
   vertex 1.0665075778961182 1.0046224594116211 0.10999999940395355
  endloop
 endfacet
 facet normal 0.76604445553447198 0.64278759489032955 -0
  outer loop
   vertex 1.0665075778961182 1.0046224594116211 0.10999999940395355
   vertex 1.0665075778961182 1.0046224594116211 -0.10999999940395355
   vertex 1.0382721424102783 1.0382721424102783 0.10999999940395355
  endloop
 endfacet
 facet normal 0.76604445553447198 0.64278759489032955 0
  outer loop
   vertex 1.0382721424102783 1.0382721424102783 0.10999999940395355
   vertex 1.0665075778961182 1.0046224594116211 -0.10999999940395355
   vertex 1.0382721424102783 1.0382721424102783 -0.10999999940395355
  endloop
 endfacet
 facet normal -0 0 1
  outer loop
   vertex 0.6833045482635498 0.6833045482635498 0.10999999940395355
   vertex 0.68189036846160889 0.68189036846160889 0.10999999940395355
   vertex 0.71668714284896851 0.65529322624206543 0.10999999940395355
  endloop
 endfacet
 facet normal 0 0 1
  outer loop
   vertex 0.71668714284896851 0.65529322624206543 0.10999999940395355
   vertex 0.68189036846160889 0.68189036846160889 0.10999999940395355
   vertex 0.71553999185562134 0.65365493297576904 0.10999999940395355
  endloop
 endfacet
 facet normal -0 0 1
  outer loop
   vertex 0.71668714284896851 0.65529322624206543 0.10999999940395355
   vertex 0.71553999185562134 0.65365493297576904 0.10999999940395355
   vertex 0.75442665815353394 0.63350433111190796 0.10999999940395355
  endloop
 endfacet
 facet normal 0 0 1
  outer loop
   vertex 0.75442665815353394 0.63350433111190796 0.10999999940395355
   vertex 0.71553999185562134 0.65365493297576904 0.10999999940395355
   vertex 0.7535814642906189 0.63169169425964355 0.10999999940395355
  endloop
 endfacet
 facet normal -0 0 1
  outer loop
   vertex 0.75442665815353394 0.63350433111190796 0.10999999940395355
   vertex 0.7535814642906189 0.63169169425964355 0.10999999940395355
   vertex 0.7953764796257019 0.61859983205795288 0.10999999940395355
  endloop
 endfacet
 facet normal 0 0 1
  outer loop
   vertex 0.7953764796257019 0.61859983205795288 0.10999999940395355
   vertex 0.7535814642906189 0.63169169425964355 0.10999999940395355
   vertex 0.79485887289047241 0.6166679859161377 0.10999999940395355
  endloop
 endfacet
 facet normal -0 0 1
  outer loop
   vertex 0.7953764796257019 0.61859983205795288 0.10999999940395355
   vertex 0.79485887289047241 0.6166679859161377 0.10999999940395355
   vertex 0.83829230070114136 0.61103254556655884 0.10999999940395355
  endloop
 endfacet
 facet normal 0 0 1
  outer loop
   vertex 0.83829230070114136 0.61103254556655884 0.10999999940395355
   vertex 0.79485887289047241 0.6166679859161377 0.10999999940395355
   vertex 0.83811801671981812 0.60904020071029663 0.10999999940395355
  endloop
 endfacet
 facet normal 0 0 1
  outer loop
   vertex 0.83829230070114136 0.61103254556655884 0.10999999940395355
   vertex 0.83811801671981812 0.60904020071029663 0.10999999940395355
   vertex 0.88187021017074585 0.61103260517120361 0.10999999940395355
  endloop
 endfacet
 facet normal 0 0 1
  outer loop
   vertex 0.88187021017074585 0.61103260517120361 0.10999999940395355
   vertex 0.83811801671981812 0.60904020071029663 0.10999999940395355
   vertex 0.88204443454742432 0.60904020071029663 0.10999999940395355
  endloop
 endfacet
 facet normal 0 -0 1
  outer loop
   vertex 0.88187021017074585 0.61103260517120361 0.10999999940395355
   vertex 0.88204443454742432 0.60904020071029663 0.10999999940395355
   vertex 0.92478597164154053 0.61859977245330811 0.10999999940395355
  endloop
 endfacet
 facet normal 0 0 1
  outer loop
   vertex 0.92478597164154053 0.61859977245330811 0.10999999940395355
   vertex 0.88204443454742432 0.60904020071029663 0.10999999940395355
   vertex 0.92530363798141479 0.61666792631149292 0.10999999940395355
  endloop
 endfacet
 facet normal 0 -0 1
  outer loop
   vertex 0.92478597164154053 0.61859977245330811 0.10999999940395355
   vertex 0.92530363798141479 0.61666792631149292 0.10999999940395355
   vertex 0.96573585271835327 0.63350427150726318 0.10999999940395355
  endloop
 endfacet
 facet normal 0 0 1
  outer loop
   vertex 0.96573585271835327 0.63350427150726318 0.10999999940395355
   vertex 0.92530363798141479 0.61666792631149292 0.10999999940395355
   vertex 0.96658104658126831 0.63169169425964355 0.10999999940395355
  endloop
 endfacet
 facet normal 0 -0 1
  outer loop
   vertex 0.96573585271835327 0.63350427150726318 0.10999999940395355
   vertex 0.96658104658126831 0.63169169425964355 0.10999999940395355
   vertex 1.0034753084182739 0.65529322624206543 0.10999999940395355
  endloop
 endfacet
 facet normal 0 0 1
  outer loop
   vertex 1.0034753084182739 0.65529322624206543 0.10999999940395355
   vertex 0.96658104658126831 0.63169169425964355 0.10999999940395355
   vertex 1.0046224594116211 0.65365487337112427 0.10999999940395355
  endloop
 endfacet
 facet normal 0 -0 1
  outer loop
   vertex 1.0034753084182739 0.65529322624206543 0.10999999940395355
   vertex 1.0046224594116211 0.65365487337112427 0.10999999940395355
   vertex 1.0368579626083374 0.6833045482635498 0.10999999940395355
  endloop
 endfacet
 facet normal 0 0 1
  outer loop
   vertex 1.0368579626083374 0.6833045482635498 0.10999999940395355
   vertex 1.0046224594116211 0.65365487337112427 0.10999999940395355
   vertex 1.0382721424102783 0.68189036846160889 0.10999999940395355
  endloop
 endfacet
 facet normal 0 -0 1
  outer loop
   vertex 1.0368579626083374 0.6833045482635498 0.10999999940395355
   vertex 1.0382721424102783 0.68189036846160889 0.10999999940395355
   vertex 1.0665075778961182 0.71553993225097656 0.10999999940395355
  endloop
 endfacet
 facet normal 0 0 1
  outer loop
   vertex 1.0368579626083374 0.6833045482635498 0.10999999940395355
   vertex 1.0665075778961182 0.71553993225097656 0.10999999940395355
   vertex 1.0648692846298218 0.71668714284896851 0.10999999940395355
  endloop
 endfacet
 facet normal 0 -0 1
  outer loop
   vertex 1.0648692846298218 0.71668714284896851 0.10999999940395355
   vertex 1.0665075778961182 0.71553993225097656 0.10999999940395355
   vertex 1.0884708166122437 0.7535814642906189 0.10999999940395355
  endloop
 endfacet
 facet normal 0 0 1
  outer loop
   vertex 1.0648692846298218 0.71668714284896851 0.10999999940395355
   vertex 1.0884708166122437 0.7535814642906189 0.10999999940395355
   vertex 1.086658239364624 0.75442665815353394 0.10999999940395355
  endloop
 endfacet
 facet normal 0 -0 1
  outer loop
   vertex 1.086658239364624 0.75442665815353394 0.10999999940395355
   vertex 1.0884708166122437 0.7535814642906189 0.10999999940395355
   vertex 1.1034945249557495 0.79485887289047241 0.10999999940395355
  endloop
 endfacet
 facet normal 0 0 1
  outer loop
   vertex 1.086658239364624 0.75442665815353394 0.10999999940395355
   vertex 1.1034945249557495 0.79485887289047241 0.10999999940395355
   vertex 1.1015627384185791 0.7953764796257019 0.10999999940395355
  endloop
 endfacet
 facet normal 0 -0 1
  outer loop
   vertex 1.1015627384185791 0.7953764796257019 0.10999999940395355
   vertex 1.1034945249557495 0.79485887289047241 0.10999999940395355
   vertex 1.1111222505569458 0.83811801671981812 0.10999999940395355
  endloop
 endfacet
 facet normal 0 0 1
  outer loop
   vertex 1.1015627384185791 0.7953764796257019 0.10999999940395355
   vertex 1.1111222505569458 0.83811801671981812 0.10999999940395355
   vertex 1.1091299057006836 0.83829230070114136 0.10999999940395355
  endloop
 endfacet
 facet normal 0 -0 1
  outer loop
   vertex 1.1091299057006836 0.83829230070114136 0.10999999940395355
   vertex 1.1111222505569458 0.83811801671981812 0.10999999940395355
   vertex 1.1111223697662354 0.88204449415206909 0.10999999940395355
  endloop
 endfacet
 facet normal 0 0 1
  outer loop
   vertex 1.1091299057006836 0.83829230070114136 0.10999999940395355
   vertex 1.1111223697662354 0.88204449415206909 0.10999999940395355
   vertex 1.1091299057006836 0.88187021017074585 0.10999999940395355
  endloop
 endfacet
 facet normal 0 0 1
  outer loop
   vertex 1.1091299057006836 0.88187021017074585 0.10999999940395355
   vertex 1.1111223697662354 0.88204449415206909 0.10999999940395355
   vertex 1.1034945249557495 0.92530369758605957 0.10999999940395355
  endloop
 endfacet
 facet normal 0 0 1
  outer loop
   vertex 1.1091299057006836 0.88187021017074585 0.10999999940395355
   vertex 1.1034945249557495 0.92530369758605957 0.10999999940395355
   vertex 1.1015627384185791 0.92478597164154053 0.10999999940395355
  endloop
 endfacet
 facet normal 0 0 1
  outer loop
   vertex 1.1015627384185791 0.92478597164154053 0.10999999940395355
   vertex 1.1034945249557495 0.92530369758605957 0.10999999940395355
   vertex 1.0884708166122437 0.96658104658126831 0.10999999940395355
  endloop
 endfacet
 facet normal 0 0 1
  outer loop
   vertex 1.1015627384185791 0.92478597164154053 0.10999999940395355
   vertex 1.0884708166122437 0.96658104658126831 0.10999999940395355
   vertex 1.0866581201553345 0.9657357931137085 0.10999999940395355
  endloop
 endfacet
 facet normal 0 0 1
  outer loop
   vertex 1.0866581201553345 0.9657357931137085 0.10999999940395355
   vertex 1.0884708166122437 0.96658104658126831 0.10999999940395355
   vertex 1.0665075778961182 1.0046224594116211 0.10999999940395355
  endloop
 endfacet
 facet normal 0 0 1
  outer loop
   vertex 1.0866581201553345 0.9657357931137085 0.10999999940395355
   vertex 1.0665075778961182 1.0046224594116211 0.10999999940395355
   vertex 1.0648692846298218 1.0034754276275635 0.10999999940395355
  endloop
 endfacet
 facet normal 0 0 1
  outer loop
   vertex 1.0648692846298218 1.0034754276275635 0.10999999940395355
   vertex 1.0665075778961182 1.0046224594116211 0.10999999940395355
   vertex 1.0382721424102783 1.0382721424102783 0.10999999940395355
  endloop
 endfacet
 facet normal 0 0 1
  outer loop
   vertex 1.0648692846298218 1.0034754276275635 0.10999999940395355
   vertex 1.0382721424102783 1.0382721424102783 0.10999999940395355
   vertex 1.0368579626083374 1.0368579626083374 0.10999999940395355
  endloop
 endfacet
 facet normal 0 -0 -1
  outer loop
   vertex 1.0368579626083374 1.0368579626083374 -0.10999999940395355
   vertex 1.0382721424102783 1.0382721424102783 -0.10999999940395355
   vertex 1.0648692846298218 1.0034754276275635 -0.10999999940395355
  endloop
 endfacet
 facet normal 0 0 -1
  outer loop
   vertex 1.0648692846298218 1.0034754276275635 -0.10999999940395355
   vertex 1.0382721424102783 1.0382721424102783 -0.10999999940395355
   vertex 1.0665075778961182 1.0046224594116211 -0.10999999940395355
  endloop
 endfacet
 facet normal 0 -0 -1
  outer loop
   vertex 1.0648692846298218 1.0034754276275635 -0.10999999940395355
   vertex 1.0665075778961182 1.0046224594116211 -0.10999999940395355
   vertex 1.0866581201553345 0.9657357931137085 -0.10999999940395355
  endloop
 endfacet
 facet normal 0 0 -1
  outer loop
   vertex 1.0866581201553345 0.9657357931137085 -0.10999999940395355
   vertex 1.0665075778961182 1.0046224594116211 -0.10999999940395355
   vertex 1.0884708166122437 0.96658104658126831 -0.10999999940395355
  endloop
 endfacet
 facet normal 0 -0 -1
  outer loop
   vertex 1.0866581201553345 0.9657357931137085 -0.10999999940395355
   vertex 1.0884708166122437 0.96658104658126831 -0.10999999940395355
   vertex 1.1015627384185791 0.92478597164154053 -0.10999999940395355
  endloop
 endfacet
 facet normal 0 0 -1
  outer loop
   vertex 1.1015627384185791 0.92478597164154053 -0.10999999940395355
   vertex 1.0884708166122437 0.96658104658126831 -0.10999999940395355
   vertex 1.1034945249557495 0.92530369758605957 -0.10999999940395355
  endloop
 endfacet
 facet normal 0 -0 -1
  outer loop
   vertex 1.1015627384185791 0.92478597164154053 -0.10999999940395355
   vertex 1.1034945249557495 0.92530369758605957 -0.10999999940395355
   vertex 1.1091299057006836 0.88187021017074585 -0.10999999940395355
  endloop
 endfacet
 facet normal 0 0 -1
  outer loop
   vertex 1.1091299057006836 0.88187021017074585 -0.10999999940395355
   vertex 1.1034945249557495 0.92530369758605957 -0.10999999940395355
   vertex 1.1111223697662354 0.88204449415206909 -0.10999999940395355
  endloop
 endfacet
 facet normal 0 0 -1
  outer loop
   vertex 1.1091299057006836 0.88187021017074585 -0.10999999940395355
   vertex 1.1111223697662354 0.88204449415206909 -0.10999999940395355
   vertex 1.1091299057006836 0.83829230070114136 -0.10999999940395355
  endloop
 endfacet
 facet normal 0 0 -1
  outer loop
   vertex 1.1091299057006836 0.83829230070114136 -0.10999999940395355
   vertex 1.1111223697662354 0.88204449415206909 -0.10999999940395355
   vertex 1.1111222505569458 0.83811801671981812 -0.10999999940395355
  endloop
 endfacet
 facet normal -0 0 -1
  outer loop
   vertex 1.1091299057006836 0.83829230070114136 -0.10999999940395355
   vertex 1.1111222505569458 0.83811801671981812 -0.10999999940395355
   vertex 1.1015627384185791 0.7953764796257019 -0.10999999940395355
  endloop
 endfacet
 facet normal 0 0 -1
  outer loop
   vertex 1.1015627384185791 0.7953764796257019 -0.10999999940395355
   vertex 1.1111222505569458 0.83811801671981812 -0.10999999940395355
   vertex 1.1034945249557495 0.79485887289047241 -0.10999999940395355
  endloop
 endfacet
 facet normal -0 0 -1
  outer loop
   vertex 1.1015627384185791 0.7953764796257019 -0.10999999940395355
   vertex 1.1034945249557495 0.79485887289047241 -0.10999999940395355
   vertex 1.086658239364624 0.75442665815353394 -0.10999999940395355
  endloop
 endfacet
 facet normal 0 0 -1
  outer loop
   vertex 1.086658239364624 0.75442665815353394 -0.10999999940395355
   vertex 1.1034945249557495 0.79485887289047241 -0.10999999940395355
   vertex 1.0884708166122437 0.7535814642906189 -0.10999999940395355
  endloop
 endfacet
 facet normal -0 0 -1
  outer loop
   vertex 1.086658239364624 0.75442665815353394 -0.10999999940395355
   vertex 1.0884708166122437 0.7535814642906189 -0.10999999940395355
   vertex 1.0648692846298218 0.71668714284896851 -0.10999999940395355
  endloop
 endfacet
 facet normal 0 0 -1
  outer loop
   vertex 1.0648692846298218 0.71668714284896851 -0.10999999940395355
   vertex 1.0884708166122437 0.7535814642906189 -0.10999999940395355
   vertex 1.0665075778961182 0.71553993225097656 -0.10999999940395355
  endloop
 endfacet
 facet normal -0 0 -1
  outer loop
   vertex 1.0648692846298218 0.71668714284896851 -0.10999999940395355
   vertex 1.0665075778961182 0.71553993225097656 -0.10999999940395355
   vertex 1.0368579626083374 0.6833045482635498 -0.10999999940395355
  endloop
 endfacet
 facet normal 0 0 -1
  outer loop
   vertex 1.0368579626083374 0.6833045482635498 -0.10999999940395355
   vertex 1.0665075778961182 0.71553993225097656 -0.10999999940395355
   vertex 1.0382721424102783 0.68189036846160889 -0.10999999940395355
  endloop
 endfacet
 facet normal -0 0 -1
  outer loop
   vertex 1.0368579626083374 0.6833045482635498 -0.10999999940395355
   vertex 1.0382721424102783 0.68189036846160889 -0.10999999940395355
   vertex 1.0046224594116211 0.65365487337112427 -0.10999999940395355
  endloop
 endfacet
 facet normal 0 0 -1
  outer loop
   vertex 1.0368579626083374 0.6833045482635498 -0.10999999940395355
   vertex 1.0046224594116211 0.65365487337112427 -0.10999999940395355
   vertex 1.0034753084182739 0.65529322624206543 -0.10999999940395355
  endloop
 endfacet
 facet normal -0 0 -1
  outer loop
   vertex 1.0034753084182739 0.65529322624206543 -0.10999999940395355
   vertex 1.0046224594116211 0.65365487337112427 -0.10999999940395355
   vertex 0.96658104658126831 0.63169169425964355 -0.10999999940395355
  endloop
 endfacet
 facet normal 0 0 -1
  outer loop
   vertex 1.0034753084182739 0.65529322624206543 -0.10999999940395355
   vertex 0.96658104658126831 0.63169169425964355 -0.10999999940395355
   vertex 0.96573585271835327 0.63350427150726318 -0.10999999940395355
  endloop
 endfacet
 facet normal -0 0 -1
  outer loop
   vertex 0.96573585271835327 0.63350427150726318 -0.10999999940395355
   vertex 0.96658104658126831 0.63169169425964355 -0.10999999940395355
   vertex 0.92530363798141479 0.61666792631149292 -0.10999999940395355
  endloop
 endfacet
 facet normal 0 0 -1
  outer loop
   vertex 0.96573585271835327 0.63350427150726318 -0.10999999940395355
   vertex 0.92530363798141479 0.61666792631149292 -0.10999999940395355
   vertex 0.92478597164154053 0.61859977245330811 -0.10999999940395355
  endloop
 endfacet
 facet normal -0 0 -1
  outer loop
   vertex 0.92478597164154053 0.61859977245330811 -0.10999999940395355
   vertex 0.92530363798141479 0.61666792631149292 -0.10999999940395355
   vertex 0.88204443454742432 0.60904020071029663 -0.10999999940395355
  endloop
 endfacet
 facet normal 0 0 -1
  outer loop
   vertex 0.92478597164154053 0.61859977245330811 -0.10999999940395355
   vertex 0.88204443454742432 0.60904020071029663 -0.10999999940395355
   vertex 0.88187021017074585 0.61103260517120361 -0.10999999940395355
  endloop
 endfacet
 facet normal 0 0 -1
  outer loop
   vertex 0.88187021017074585 0.61103260517120361 -0.10999999940395355
   vertex 0.88204443454742432 0.60904020071029663 -0.10999999940395355
   vertex 0.83811801671981812 0.60904020071029663 -0.10999999940395355
  endloop
 endfacet
 facet normal 0 0 -1
  outer loop
   vertex 0.88187021017074585 0.61103260517120361 -0.10999999940395355
   vertex 0.83811801671981812 0.60904020071029663 -0.10999999940395355
   vertex 0.83829230070114136 0.61103254556655884 -0.10999999940395355
  endloop
 endfacet
 facet normal 0 0 -1
  outer loop
   vertex 0.83829230070114136 0.61103254556655884 -0.10999999940395355
   vertex 0.83811801671981812 0.60904020071029663 -0.10999999940395355
   vertex 0.79485887289047241 0.6166679859161377 -0.10999999940395355
  endloop
 endfacet
 facet normal 0 0 -1
  outer loop
   vertex 0.83829230070114136 0.61103254556655884 -0.10999999940395355
   vertex 0.79485887289047241 0.6166679859161377 -0.10999999940395355
   vertex 0.7953764796257019 0.61859983205795288 -0.10999999940395355
  endloop
 endfacet
 facet normal 0 0 -1
  outer loop
   vertex 0.7953764796257019 0.61859983205795288 -0.10999999940395355
   vertex 0.79485887289047241 0.6166679859161377 -0.10999999940395355
   vertex 0.7535814642906189 0.63169169425964355 -0.10999999940395355
  endloop
 endfacet
 facet normal 0 0 -1
  outer loop
   vertex 0.7953764796257019 0.61859983205795288 -0.10999999940395355
   vertex 0.7535814642906189 0.63169169425964355 -0.10999999940395355
   vertex 0.75442665815353394 0.63350433111190796 -0.10999999940395355
  endloop
 endfacet
 facet normal 0 0 -1
  outer loop
   vertex 0.75442665815353394 0.63350433111190796 -0.10999999940395355
   vertex 0.7535814642906189 0.63169169425964355 -0.10999999940395355
   vertex 0.71553999185562134 0.65365493297576904 -0.10999999940395355
  endloop
 endfacet
 facet normal 0 0 -1
  outer loop
   vertex 0.75442665815353394 0.63350433111190796 -0.10999999940395355
   vertex 0.71553999185562134 0.65365493297576904 -0.10999999940395355
   vertex 0.71668714284896851 0.65529322624206543 -0.10999999940395355
  endloop
 endfacet
 facet normal 0 0 -1
  outer loop
   vertex 0.71668714284896851 0.65529322624206543 -0.10999999940395355
   vertex 0.71553999185562134 0.65365493297576904 -0.10999999940395355
   vertex 0.68189036846160889 0.68189036846160889 -0.10999999940395355
  endloop
 endfacet
 facet normal 0 0 -1
  outer loop
   vertex 0.71668714284896851 0.65529322624206543 -0.10999999940395355
   vertex 0.68189036846160889 0.68189036846160889 -0.10999999940395355
   vertex 0.6833045482635498 0.6833045482635498 -0.10999999940395355
  endloop
 endfacet
endsolid
