solid Visualization Toolkit generated SLA File
 facet normal 0.99619477787606703 0.08715483080388442 0
  outer loop
   vertex 1.4524250030517578 1 -0.10999999940395355
   vertex 1.4485965967178345 1.0437593460083008 -0.10999999940395355
   vertex 1.4524250030517578 1 0.10999999940395355
  endloop
 endfacet
 facet normal 0.99619477787606703 0.08715483080388442 -0
  outer loop
   vertex 1.4524250030517578 1 0.10999999940395355
   vertex 1.4485965967178345 1.0437593460083008 -0.10999999940395355
   vertex 1.4485965967178345 1.0437593460083008 0.10999999940395355
  endloop
 endfacet
 facet normal 0.96592520499752998 0.25882136378297577 -0
  outer loop
   vertex 1.4485965967178345 1.0437593460083008 0.10999999940395355
   vertex 1.4485965967178345 1.0437593460083008 -0.10999999940395355
   vertex 1.4372274875640869 1.0861890316009521 -0.10999999940395355
  endloop
 endfacet
 facet normal 0.96592520499752998 0.25882136378297577 -0
  outer loop
   vertex 1.4485965967178345 1.0437593460083008 0.10999999940395355
   vertex 1.4372274875640869 1.0861890316009521 -0.10999999940395355
   vertex 1.4372274875640869 1.0861890316009521 0.10999999940395355
  endloop
 endfacet
 facet normal 0.90630845146710604 0.42261683686206397 -0
  outer loop
   vertex 1.4372274875640869 1.0861890316009521 0.10999999940395355
   vertex 1.4372274875640869 1.0861890316009521 -0.10999999940395355
   vertex 1.4186633825302124 1.1260000467300415 -0.10999999940395355
  endloop
 endfacet
 facet normal 0.90630845146710604 0.42261683686206397 -0
  outer loop
   vertex 1.4372274875640869 1.0861890316009521 0.10999999940395355
   vertex 1.4186633825302124 1.1260000467300415 -0.10999999940395355
   vertex 1.4186633825302124 1.1260000467300415 0.10999999940395355
  endloop
 endfacet
 facet normal 0.81915171781084184 0.57357690260988281 -0
  outer loop
   vertex 1.4186633825302124 1.1260000467300415 0.10999999940395355
   vertex 1.4186633825302124 1.1260000467300415 -0.10999999940395355
   vertex 1.3934681415557861 1.161982536315918 -0.10999999940395355
  endloop
 endfacet
 facet normal 0.81915171781084184 0.57357690260988281 -0
  outer loop
   vertex 1.4186633825302124 1.1260000467300415 0.10999999940395355
   vertex 1.3934681415557861 1.161982536315918 -0.10999999940395355
   vertex 1.3934681415557861 1.161982536315918 0.10999999940395355
  endloop
 endfacet
 facet normal 0.70710678118654757 0.70710678118654757 -0
  outer loop
   vertex 1.3934681415557861 1.161982536315918 0.10999999940395355
   vertex 1.3934681415557861 1.161982536315918 -0.10999999940395355
   vertex 1.3624074459075928 1.1930432319641113 -0.10999999940395355
  endloop
 endfacet
 facet normal 0.70710678118654757 0.70710678118654757 -0
  outer loop
   vertex 1.3934681415557861 1.161982536315918 0.10999999940395355
   vertex 1.3624074459075928 1.1930432319641113 -0.10999999940395355
   vertex 1.3624074459075928 1.1930432319641113 0.10999999940395355
  endloop
 endfacet
 facet normal 0.57357508159730963 0.819152992896101 -0
  outer loop
   vertex 1.3624074459075928 1.1930432319641113 0.10999999940395355
   vertex 1.3624074459075928 1.1930432319641113 -0.10999999940395355
   vertex 1.3264249563217163 1.218238353729248 -0.10999999940395355
  endloop
 endfacet
 facet normal 0.57357508159730963 0.819152992896101 -0
  outer loop
   vertex 1.3624074459075928 1.1930432319641113 0.10999999940395355
   vertex 1.3264249563217163 1.218238353729248 -0.10999999940395355
   vertex 1.3264249563217163 1.218238353729248 0.10999999940395355
  endloop
 endfacet
 facet normal 0.42262010544627471 0.90630692730033779 -0
  outer loop
   vertex 1.3264249563217163 1.218238353729248 0.10999999940395355
   vertex 1.3264249563217163 1.218238353729248 -0.10999999940395355
   vertex 1.2866140604019165 1.2368025779724121 -0.10999999940395355
  endloop
 endfacet
 facet normal 0.42262010544627471 0.90630692730033779 -0
  outer loop
   vertex 1.3264249563217163 1.218238353729248 0.10999999940395355
   vertex 1.2866140604019165 1.2368025779724121 -0.10999999940395355
   vertex 1.2866140604019165 1.2368025779724121 0.10999999940395355
  endloop
 endfacet
 facet normal 0.2588188317390242 0.96592588345961961 -0
  outer loop
   vertex 1.2866140604019165 1.2368025779724121 0.10999999940395355
   vertex 1.2866140604019165 1.2368025779724121 -0.10999999940395355
   vertex 1.2441843748092651 1.2481715679168701 -0.10999999940395355
  endloop
 endfacet
 facet normal 0.2588188317390242 0.96592588345961961 -0
  outer loop
   vertex 1.2866140604019165 1.2368025779724121 0.10999999940395355
   vertex 1.2441843748092651 1.2481715679168701 -0.10999999940395355
   vertex 1.2441843748092651 1.2481715679168701 0.10999999940395355
  endloop
 endfacet
 facet normal 0.08715483080388442 0.99619477787606703 -0
  outer loop
   vertex 1.2441843748092651 1.2481715679168701 0.10999999940395355
   vertex 1.2441843748092651 1.2481715679168701 -0.10999999940395355
   vertex 1.2004250288009644 1.2519999742507935 -0.10999999940395355
  endloop
 endfacet
 facet normal 0.08715483080388442 0.99619477787606703 -0
  outer loop
   vertex 1.2441843748092651 1.2481715679168701 0.10999999940395355
   vertex 1.2004250288009644 1.2519999742507935 -0.10999999940395355
   vertex 1.2004250288009644 1.2519999742507935 0.10999999940395355
  endloop
 endfacet
 facet normal -0.08715483080388442 0.99619477787606703 0
  outer loop
   vertex 1.2004250288009644 1.2519999742507935 0.10999999940395355
   vertex 1.2004250288009644 1.2519999742507935 -0.10999999940395355
   vertex 1.1566656827926636 1.2481715679168701 -0.10999999940395355
  endloop
 endfacet
 facet normal -0.08715483080388442 0.99619477787606703 0
  outer loop
   vertex 1.2004250288009644 1.2519999742507935 0.10999999940395355
   vertex 1.1566656827926636 1.2481715679168701 -0.10999999940395355
   vertex 1.1566656827926636 1.2481715679168701 0.10999999940395355
  endloop
 endfacet
 facet normal -0.25881815328149144 0.96592606525135161 0
  outer loop
   vertex 1.1566656827926636 1.2481715679168701 0.10999999940395355
   vertex 1.1566656827926636 1.2481715679168701 -0.10999999940395355
   vertex 1.1142358779907227 1.2368025779724121 -0.10999999940395355
  endloop
 endfacet
 facet normal -0.25881815328149144 0.96592606525135161 0
  outer loop
   vertex 1.1566656827926636 1.2481715679168701 0.10999999940395355
   vertex 1.1142358779907227 1.2368025779724121 -0.10999999940395355
   vertex 1.1142358779907227 1.2368025779724121 0.10999999940395355
  endloop
 endfacet
 facet normal -0.42262010544627471 0.90630692730033779 0
  outer loop
   vertex 1.1142358779907227 1.2368025779724121 0.10999999940395355
   vertex 1.1142358779907227 1.2368025779724121 -0.10999999940395355
   vertex 1.0744249820709229 1.218238353729248 -0.10999999940395355
  endloop
 endfacet
 facet normal -0.42262010544627471 0.90630692730033779 0
  outer loop
   vertex 1.1142358779907227 1.2368025779724121 0.10999999940395355
   vertex 1.0744249820709229 1.218238353729248 -0.10999999940395355
   vertex 1.0744249820709229 1.218238353729248 0.10999999940395355
  endloop
 endfacet
 facet normal -0.57357508159730963 0.819152992896101 0
  outer loop
   vertex 1.0744249820709229 1.218238353729248 0.10999999940395355
   vertex 1.0744249820709229 1.218238353729248 -0.10999999940395355
   vertex 1.0384424924850464 1.1930432319641113 -0.10999999940395355
  endloop
 endfacet
 facet normal -0.57357508159730963 0.819152992896101 0
  outer loop
   vertex 1.0744249820709229 1.218238353729248 0.10999999940395355
   vertex 1.0384424924850464 1.1930432319641113 -0.10999999940395355
   vertex 1.0384424924850464 1.1930432319641113 0.10999999940395355
  endloop
 endfacet
 facet normal -0.70710678118654757 0.70710678118654757 0
  outer loop
   vertex 1.0384424924850464 1.1930432319641113 0.10999999940395355
   vertex 1.0384424924850464 1.1930432319641113 -0.10999999940395355
   vertex 1.007381796836853 1.161982536315918 -0.10999999940395355
  endloop
 endfacet
 facet normal -0.70710678118654757 0.70710678118654757 0
  outer loop
   vertex 1.0384424924850464 1.1930432319641113 0.10999999940395355
   vertex 1.007381796836853 1.161982536315918 -0.10999999940395355
   vertex 1.007381796836853 1.161982536315918 0.10999999940395355
  endloop
 endfacet
 facet normal -0.8191523553534813 0.57357599210465926 0
  outer loop
   vertex 1.007381796836853 1.161982536315918 0.10999999940395355
   vertex 1.007381796836853 1.161982536315918 -0.10999999940395355
   vertex 0.98218661546707153 1.1260000467300415 -0.10999999940395355
  endloop
 endfacet
 facet normal -0.8191523553534813 0.57357599210465926 0
  outer loop
   vertex 1.007381796836853 1.161982536315918 0.10999999940395355
   vertex 0.98218661546707153 1.1260000467300415 -0.10999999940395355
   vertex 0.98218661546707153 1.1260000467300415 0.10999999940395355
  endloop
 endfacet
 facet normal -0.90630793173920643 0.4226179514249272 0
  outer loop
   vertex 0.98218661546707153 1.1260000467300415 0.10999999940395355
   vertex 0.98218661546707153 1.1260000467300415 -0.10999999940395355
   vertex 0.96362245082855225 1.0861890316009521 -0.10999999940395355
  endloop
 endfacet
 facet normal -0.90630793173920643 0.4226179514249272 0
  outer loop
   vertex 0.98218661546707153 1.1260000467300415 0.10999999940395355
   vertex 0.96362245082855225 1.0861890316009521 -0.10999999940395355
   vertex 0.96362245082855225 1.0861890316009521 0.10999999940395355
  endloop
 endfacet
 facet normal -0.96592588345961961 0.2588188317390242 0
  outer loop
   vertex 0.96362245082855225 1.0861890316009521 0.10999999940395355
   vertex 0.96362245082855225 1.0861890316009521 -0.10999999940395355
   vertex 0.95225346088409424 1.0437593460083008 -0.10999999940395355
  endloop
 endfacet
 facet normal -0.96592588345961961 0.2588188317390242 0
  outer loop
   vertex 0.96362245082855225 1.0861890316009521 0.10999999940395355
   vertex 0.95225346088409424 1.0437593460083008 -0.10999999940395355
   vertex 0.95225346088409424 1.0437593460083008 0.10999999940395355
  endloop
 endfacet
 facet normal -0.99619466006324164 0.087156177414353928 0
  outer loop
   vertex 0.95225346088409424 1.0437593460083008 0.10999999940395355
   vertex 0.95225346088409424 1.0437593460083008 -0.10999999940395355
   vertex 0.94842499494552612 1 0.10999999940395355
  endloop
 endfacet
 facet normal -0.99619466006324164 0.087156177414353928 0
  outer loop
   vertex 0.94842499494552612 1 0.10999999940395355
   vertex 0.95225346088409424 1.0437593460083008 -0.10999999940395355
   vertex 0.94842499494552612 1 -0.10999999940395355
  endloop
 endfacet
 facet normal 0 -1 0
  outer loop
   vertex 1.4504250288009644 1 -0.10999999940395355
   vertex 1.4524250030517578 1 -0.10999999940395355
   vertex 1.4504250288009644 1 0.10999999940395355
  endloop
 endfacet
 facet normal 0 -1 0
  outer loop
   vertex 1.4504250288009644 1 0.10999999940395355
   vertex 1.4524250030517578 1 -0.10999999940395355
   vertex 1.4524250030517578 1 0.10999999940395355
  endloop
 endfacet
 facet normal 0.9961948130771886 -0.087154428448045065 0
  outer loop
   vertex 0.95042502880096436 1 -0.10999999940395355
   vertex 0.95422303676605225 1.0434120893478394 -0.10999999940395355
   vertex 0.95042502880096436 1 0.10999999940395355
  endloop
 endfacet
 facet normal 0.9961948130771886 -0.087154428448045065 0
  outer loop
   vertex 0.95042502880096436 1 0.10999999940395355
   vertex 0.95422303676605225 1.0434120893478394 -0.10999999940395355
   vertex 0.95422303676605225 1.0434120893478394 0.10999999940395355
  endloop
 endfacet
 facet normal 0.96592557174332883 -0.25881999507828479 0
  outer loop
   vertex 0.95422303676605225 1.0434120893478394 0.10999999940395355
   vertex 0.95422303676605225 1.0434120893478394 -0.10999999940395355
   vertex 0.96550184488296509 1.0855050086975098 -0.10999999940395355
  endloop
 endfacet
 facet normal 0.96592557174332883 -0.25881999507828479 0
  outer loop
   vertex 0.95422303676605225 1.0434120893478394 0.10999999940395355
   vertex 0.96550184488296509 1.0855050086975098 -0.10999999940395355
   vertex 0.96550184488296509 1.0855050086975098 0.10999999940395355
  endloop
 endfacet
 facet normal 0.90630774261941416 -0.42261835699375572 0
  outer loop
   vertex 0.96550184488296509 1.0855050086975098 0.10999999940395355
   vertex 0.96550184488296509 1.0855050086975098 -0.10999999940395355
   vertex 0.98391866683959961 1.125 -0.10999999940395355
  endloop
 endfacet
 facet normal 0.90630774261941416 -0.42261835699375572 0
  outer loop
   vertex 0.96550184488296509 1.0855050086975098 0.10999999940395355
   vertex 0.98391866683959961 1.125 -0.10999999940395355
   vertex 0.98391866683959961 1.125 0.10999999940395355
  endloop
 endfacet
 facet normal 0.8191521043045823 -0.57357635063989054 0
  outer loop
   vertex 0.98391866683959961 1.125 0.10999999940395355
   vertex 0.98391866683959961 1.125 -0.10999999940395355
   vertex 1.0089138746261597 1.1606968641281128 -0.10999999940395355
  endloop
 endfacet
 facet normal 0.8191521043045823 -0.57357635063989054 0
  outer loop
   vertex 0.98391866683959961 1.125 0.10999999940395355
   vertex 1.0089138746261597 1.1606968641281128 -0.10999999940395355
   vertex 1.0089138746261597 1.1606968641281128 0.10999999940395355
  endloop
 endfacet
 facet normal 0.70710814895744889 -0.70710541341300037 0
  outer loop
   vertex 1.0089138746261597 1.1606968641281128 0.10999999940395355
   vertex 1.0089138746261597 1.1606968641281128 -0.10999999940395355
   vertex 1.039728045463562 1.1915111541748047 -0.10999999940395355
  endloop
 endfacet
 facet normal 0.70710814895744889 -0.70710541341300037 0
  outer loop
   vertex 1.0089138746261597 1.1606968641281128 0.10999999940395355
   vertex 1.039728045463562 1.1915111541748047 -0.10999999940395355
   vertex 1.039728045463562 1.1915111541748047 0.10999999940395355
  endloop
 endfacet
 facet normal 0.57357506535430236 -0.81915300426953686 0
  outer loop
   vertex 1.039728045463562 1.1915111541748047 0.10999999940395355
   vertex 1.039728045463562 1.1915111541748047 -0.10999999940395355
   vertex 1.0754250288009644 1.2165063619613647 -0.10999999940395355
  endloop
 endfacet
 facet normal 0.57357506535430236 -0.81915300426953686 0
  outer loop
   vertex 1.039728045463562 1.1915111541748047 0.10999999940395355
   vertex 1.0754250288009644 1.2165063619613647 -0.10999999940395355
   vertex 1.0754250288009644 1.2165063619613647 0.10999999940395355
  endloop
 endfacet
 facet normal 0.42261723351328201 -0.90630826650625884 0
  outer loop
   vertex 1.0754250288009644 1.2165063619613647 0.10999999940395355
   vertex 1.0754250288009644 1.2165063619613647 -0.10999999940395355
   vertex 1.1149200201034546 1.2349231243133545 -0.10999999940395355
  endloop
 endfacet
 facet normal 0.42261723351328201 -0.90630826650625884 0
  outer loop
   vertex 1.0754250288009644 1.2165063619613647 0.10999999940395355
   vertex 1.1149200201034546 1.2349231243133545 -0.10999999940395355
   vertex 1.1149200201034546 1.2349231243133545 0.10999999940395355
  endloop
 endfacet
 facet normal 0.25882127122855619 -0.9659252297976455 0
  outer loop
   vertex 1.1149200201034546 1.2349231243133545 0.10999999940395355
   vertex 1.1149200201034546 1.2349231243133545 -0.10999999940395355
   vertex 1.157012939453125 1.2462019920349121 -0.10999999940395355
  endloop
 endfacet
 facet normal 0.25882127122855619 -0.9659252297976455 0
  outer loop
   vertex 1.1149200201034546 1.2349231243133545 0.10999999940395355
   vertex 1.157012939453125 1.2462019920349121 -0.10999999940395355
   vertex 1.157012939453125 1.2462019920349121 0.10999999940395355
  endloop
 endfacet
 facet normal 0.087154428448045065 -0.9961948130771886 0
  outer loop
   vertex 1.157012939453125 1.2462019920349121 0.10999999940395355
   vertex 1.157012939453125 1.2462019920349121 -0.10999999940395355
   vertex 1.2004250288009644 1.25 -0.10999999940395355
  endloop
 endfacet
 facet normal 0.087154428448045065 -0.9961948130771886 0
  outer loop
   vertex 1.157012939453125 1.2462019920349121 0.10999999940395355
   vertex 1.2004250288009644 1.25 -0.10999999940395355
   vertex 1.2004250288009644 1.25 0.10999999940395355
  endloop
 endfacet
 facet normal -0.08715466595624162 -0.99619479229820107 0
  outer loop
   vertex 1.2004250288009644 1.25 0.10999999940395355
   vertex 1.2004250288009644 1.25 -0.10999999940395355
   vertex 1.2438369989395142 1.2462019920349121 -0.10999999940395355
  endloop
 endfacet
 facet normal -0.08715466595624162 -0.99619479229820107 0
  outer loop
   vertex 1.2004250288009644 1.25 0.10999999940395355
   vertex 1.2438369989395142 1.2462019920349121 -0.10999999940395355
   vertex 1.2438369989395142 1.2462019920349121 0.10999999940395355
  endloop
 endfacet
 facet normal -0.25882058733748775 -0.96592541304713475 0
  outer loop
   vertex 1.2438369989395142 1.2462019920349121 0.10999999940395355
   vertex 1.2438369989395142 1.2462019920349121 -0.10999999940395355
   vertex 1.2859300374984741 1.2349231243133545 -0.10999999940395355
  endloop
 endfacet
 facet normal -0.25882058733748775 -0.96592541304713475 0
  outer loop
   vertex 1.2438369989395142 1.2462019920349121 0.10999999940395355
   vertex 1.2859300374984741 1.2349231243133545 -0.10999999940395355
   vertex 1.2859300374984741 1.2349231243133545 0.10999999940395355
  endloop
 endfacet
 facet normal -0.42261723351328201 -0.90630826650625884 0
  outer loop
   vertex 1.2859300374984741 1.2349231243133545 0.10999999940395355
   vertex 1.2859300374984741 1.2349231243133545 -0.10999999940395355
   vertex 1.3254250288009644 1.2165063619613647 -0.10999999940395355
  endloop
 endfacet
 facet normal -0.42261723351328201 -0.90630826650625884 0
  outer loop
   vertex 1.2859300374984741 1.2349231243133545 0.10999999940395355
   vertex 1.3254250288009644 1.2165063619613647 -0.10999999940395355
   vertex 1.3254250288009644 1.2165063619613647 0.10999999940395355
  endloop
 endfacet
 facet normal -0.57357635063989054 -0.8191521043045823 0
  outer loop
   vertex 1.3254250288009644 1.2165063619613647 0.10999999940395355
   vertex 1.3254250288009644 1.2165063619613647 -0.10999999940395355
   vertex 1.3611218929290771 1.1915111541748047 -0.10999999940395355
  endloop
 endfacet
 facet normal -0.57357635063989054 -0.8191521043045823 0
  outer loop
   vertex 1.3254250288009644 1.2165063619613647 0.10999999940395355
   vertex 1.3611218929290771 1.1915111541748047 -0.10999999940395355
   vertex 1.3611218929290771 1.1915111541748047 0.10999999940395355
  endloop
 endfacet
 facet normal -0.70710814895744889 -0.70710541341300037 0
  outer loop
   vertex 1.3611218929290771 1.1915111541748047 0.10999999940395355
   vertex 1.3611218929290771 1.1915111541748047 -0.10999999940395355
   vertex 1.3919360637664795 1.1606968641281128 -0.10999999940395355
  endloop
 endfacet
 facet normal -0.70710814895744889 -0.70710541341300037 0
  outer loop
   vertex 1.3611218929290771 1.1915111541748047 0.10999999940395355
   vertex 1.3919360637664795 1.1606968641281128 -0.10999999940395355
   vertex 1.3919360637664795 1.1606968641281128 0.10999999940395355
  endloop
 endfacet
 facet normal -0.81915081901678022 -0.57357818621713497 0
  outer loop
   vertex 1.3919360637664795 1.1606968641281128 0.10999999940395355
   vertex 1.3919360637664795 1.1606968641281128 -0.10999999940395355
   vertex 1.4169313907623291 1.125 -0.10999999940395355
  endloop
 endfacet
 facet normal -0.81915081901678022 -0.57357818621713497 0
  outer loop
   vertex 1.3919360637664795 1.1606968641281128 0.10999999940395355
   vertex 1.4169313907623291 1.125 -0.10999999940395355
   vertex 1.4169313907623291 1.125 0.10999999940395355
  endloop
 endfacet
 facet normal -0.90630826650625884 -0.42261723351328201 0
  outer loop
   vertex 1.4169313907623291 1.125 0.10999999940395355
   vertex 1.4169313907623291 1.125 -0.10999999940395355
   vertex 1.4353481531143188 1.0855050086975098 -0.10999999940395355
  endloop
 endfacet
 facet normal -0.90630826650625884 -0.42261723351328201 0
  outer loop
   vertex 1.4169313907623291 1.125 0.10999999940395355
   vertex 1.4353481531143188 1.0855050086975098 -0.10999999940395355
   vertex 1.4353481531143188 1.0855050086975098 0.10999999940395355
  endloop
 endfacet
 facet normal -0.96592591368756819 -0.25881871892665809 0
  outer loop
   vertex 1.4353481531143188 1.0855050086975098 0.10999999940395355
   vertex 1.4353481531143188 1.0855050086975098 -0.10999999940395355
   vertex 1.4466269016265869 1.0434120893478394 -0.10999999940395355
  endloop
 endfacet
 facet normal -0.96592591368756819 -0.25881871892665809 0
  outer loop
   vertex 1.4353481531143188 1.0855050086975098 0.10999999940395355
   vertex 1.4466269016265869 1.0434120893478394 -0.10999999940395355
   vertex 1.4466269016265869 1.0434120893478394 0.10999999940395355
  endloop
 endfacet
 facet normal -0.99619457556599422 -0.087157143212065191 0
  outer loop
   vertex 1.4466269016265869 1.0434120893478394 0.10999999940395355
   vertex 1.4466269016265869 1.0434120893478394 -0.10999999940395355
   vertex 1.4504250288009644 1 0.10999999940395355
  endloop
 endfacet
 facet normal -0.99619457556599422 -0.087157143212065191 0
  outer loop
   vertex 1.4504250288009644 1 0.10999999940395355
   vertex 1.4466269016265869 1.0434120893478394 -0.10999999940395355
   vertex 1.4504250288009644 1 -0.10999999940395355
  endloop
 endfacet
 facet normal 0 -1 0
  outer loop
   vertex 0.94842499494552612 1 -0.10999999940395355
   vertex 0.95042502880096436 1 -0.10999999940395355
   vertex 0.94842499494552612 1 0.10999999940395355
  endloop
 endfacet
 facet normal 0 -1 0
  outer loop
   vertex 0.94842499494552612 1 0.10999999940395355
   vertex 0.95042502880096436 1 -0.10999999940395355
   vertex 0.95042502880096436 1 0.10999999940395355
  endloop
 endfacet
 facet normal 0 0 1
  outer loop
   vertex 0.95042502880096436 1 0.10999999940395355
   vertex 0.95422303676605225 1.0434120893478394 0.10999999940395355
   vertex 0.94842499494552612 1 0.10999999940395355
  endloop
 endfacet
 facet normal 0 0 1
  outer loop
   vertex 0.94842499494552612 1 0.10999999940395355
   vertex 0.95422303676605225 1.0434120893478394 0.10999999940395355
   vertex 0.95225346088409424 1.0437593460083008 0.10999999940395355
  endloop
 endfacet
 facet normal 0 -0 1
  outer loop
   vertex 0.95225346088409424 1.0437593460083008 0.10999999940395355
   vertex 0.95422303676605225 1.0434120893478394 0.10999999940395355
   vertex 0.96550184488296509 1.0855050086975098 0.10999999940395355
  endloop
 endfacet
 facet normal 0 0 1
  outer loop
   vertex 0.95225346088409424 1.0437593460083008 0.10999999940395355
   vertex 0.96550184488296509 1.0855050086975098 0.10999999940395355
   vertex 0.96362245082855225 1.0861890316009521 0.10999999940395355
  endloop
 endfacet
 facet normal 0 -0 1
  outer loop
   vertex 0.96362245082855225 1.0861890316009521 0.10999999940395355
   vertex 0.96550184488296509 1.0855050086975098 0.10999999940395355
   vertex 0.98391866683959961 1.125 0.10999999940395355
  endloop
 endfacet
 facet normal 0 0 1
  outer loop
   vertex 0.96362245082855225 1.0861890316009521 0.10999999940395355
   vertex 0.98391866683959961 1.125 0.10999999940395355
   vertex 0.98218661546707153 1.1260000467300415 0.10999999940395355
  endloop
 endfacet
 facet normal 0 -0 1
  outer loop
   vertex 0.98218661546707153 1.1260000467300415 0.10999999940395355
   vertex 0.98391866683959961 1.125 0.10999999940395355
   vertex 1.0089138746261597 1.1606968641281128 0.10999999940395355
  endloop
 endfacet
 facet normal 0 0 1
  outer loop
   vertex 0.98218661546707153 1.1260000467300415 0.10999999940395355
   vertex 1.0089138746261597 1.1606968641281128 0.10999999940395355
   vertex 1.007381796836853 1.161982536315918 0.10999999940395355
  endloop
 endfacet
 facet normal 0 -0 1
  outer loop
   vertex 1.007381796836853 1.161982536315918 0.10999999940395355
   vertex 1.0089138746261597 1.1606968641281128 0.10999999940395355
   vertex 1.039728045463562 1.1915111541748047 0.10999999940395355
  endloop
 endfacet
 facet normal 0 0 1
  outer loop
   vertex 1.007381796836853 1.161982536315918 0.10999999940395355
   vertex 1.039728045463562 1.1915111541748047 0.10999999940395355
   vertex 1.0384424924850464 1.1930432319641113 0.10999999940395355
  endloop
 endfacet
 facet normal 0 -0 1
  outer loop
   vertex 1.0384424924850464 1.1930432319641113 0.10999999940395355
   vertex 1.039728045463562 1.1915111541748047 0.10999999940395355
   vertex 1.0754250288009644 1.2165063619613647 0.10999999940395355
  endloop
 endfacet
 facet normal 0 0 1
  outer loop
   vertex 1.0384424924850464 1.1930432319641113 0.10999999940395355
   vertex 1.0754250288009644 1.2165063619613647 0.10999999940395355
   vertex 1.0744249820709229 1.218238353729248 0.10999999940395355
  endloop
 endfacet
 facet normal 0 -0 1
  outer loop
   vertex 1.0744249820709229 1.218238353729248 0.10999999940395355
   vertex 1.0754250288009644 1.2165063619613647 0.10999999940395355
   vertex 1.1149200201034546 1.2349231243133545 0.10999999940395355
  endloop
 endfacet
 facet normal 0 0 1
  outer loop
   vertex 1.0744249820709229 1.218238353729248 0.10999999940395355
   vertex 1.1149200201034546 1.2349231243133545 0.10999999940395355
   vertex 1.1142358779907227 1.2368025779724121 0.10999999940395355
  endloop
 endfacet
 facet normal 0 -0 1
  outer loop
   vertex 1.1142358779907227 1.2368025779724121 0.10999999940395355
   vertex 1.1149200201034546 1.2349231243133545 0.10999999940395355
   vertex 1.157012939453125 1.2462019920349121 0.10999999940395355
  endloop
 endfacet
 facet normal 0 0 1
  outer loop
   vertex 1.1142358779907227 1.2368025779724121 0.10999999940395355
   vertex 1.157012939453125 1.2462019920349121 0.10999999940395355
   vertex 1.1566656827926636 1.2481715679168701 0.10999999940395355
  endloop
 endfacet
 facet normal 0 -0 1
  outer loop
   vertex 1.1566656827926636 1.2481715679168701 0.10999999940395355
   vertex 1.157012939453125 1.2462019920349121 0.10999999940395355
   vertex 1.2004250288009644 1.25 0.10999999940395355
  endloop
 endfacet
 facet normal 0 -0 1
  outer loop
   vertex 1.1566656827926636 1.2481715679168701 0.10999999940395355
   vertex 1.2004250288009644 1.25 0.10999999940395355
   vertex 1.2004250288009644 1.2519999742507935 0.10999999940395355
  endloop
 endfacet
 facet normal -0 0 1
  outer loop
   vertex 1.2004250288009644 1.2519999742507935 0.10999999940395355
   vertex 1.2004250288009644 1.25 0.10999999940395355
   vertex 1.2441843748092651 1.2481715679168701 0.10999999940395355
  endloop
 endfacet
 facet normal 0 0 1
  outer loop
   vertex 1.2441843748092651 1.2481715679168701 0.10999999940395355
   vertex 1.2004250288009644 1.25 0.10999999940395355
   vertex 1.2438369989395142 1.2462019920349121 0.10999999940395355
  endloop
 endfacet
 facet normal -0 0 1
  outer loop
   vertex 1.2441843748092651 1.2481715679168701 0.10999999940395355
   vertex 1.2438369989395142 1.2462019920349121 0.10999999940395355
   vertex 1.2866140604019165 1.2368025779724121 0.10999999940395355
  endloop
 endfacet
 facet normal 0 0 1
  outer loop
   vertex 1.2866140604019165 1.2368025779724121 0.10999999940395355
   vertex 1.2438369989395142 1.2462019920349121 0.10999999940395355
   vertex 1.2859300374984741 1.2349231243133545 0.10999999940395355
  endloop
 endfacet
 facet normal -0 0 1
  outer loop
   vertex 1.2866140604019165 1.2368025779724121 0.10999999940395355
   vertex 1.2859300374984741 1.2349231243133545 0.10999999940395355
   vertex 1.3264249563217163 1.218238353729248 0.10999999940395355
  endloop
 endfacet
 facet normal 0 0 1
  outer loop
   vertex 1.3264249563217163 1.218238353729248 0.10999999940395355
   vertex 1.2859300374984741 1.2349231243133545 0.10999999940395355
   vertex 1.3254250288009644 1.2165063619613647 0.10999999940395355
  endloop
 endfacet
 facet normal -0 0 1
  outer loop
   vertex 1.3264249563217163 1.218238353729248 0.10999999940395355
   vertex 1.3254250288009644 1.2165063619613647 0.10999999940395355
   vertex 1.3624074459075928 1.1930432319641113 0.10999999940395355
  endloop
 endfacet
 facet normal 0 0 1
  outer loop
   vertex 1.3624074459075928 1.1930432319641113 0.10999999940395355
   vertex 1.3254250288009644 1.2165063619613647 0.10999999940395355
   vertex 1.3611218929290771 1.1915111541748047 0.10999999940395355
  endloop
 endfacet
 facet normal -0 0 1
  outer loop
   vertex 1.3624074459075928 1.1930432319641113 0.10999999940395355
   vertex 1.3611218929290771 1.1915111541748047 0.10999999940395355
   vertex 1.3934681415557861 1.161982536315918 0.10999999940395355
  endloop
 endfacet
 facet normal 0 0 1
  outer loop
   vertex 1.3934681415557861 1.161982536315918 0.10999999940395355
   vertex 1.3611218929290771 1.1915111541748047 0.10999999940395355
   vertex 1.3919360637664795 1.1606968641281128 0.10999999940395355
  endloop
 endfacet
 facet normal -0 0 1
  outer loop
   vertex 1.3934681415557861 1.161982536315918 0.10999999940395355
   vertex 1.3919360637664795 1.1606968641281128 0.10999999940395355
   vertex 1.4186633825302124 1.1260000467300415 0.10999999940395355
  endloop
 endfacet
 facet normal 0 0 1
  outer loop
   vertex 1.4186633825302124 1.1260000467300415 0.10999999940395355
   vertex 1.3919360637664795 1.1606968641281128 0.10999999940395355
   vertex 1.4169313907623291 1.125 0.10999999940395355
  endloop
 endfacet
 facet normal -0 0 1
  outer loop
   vertex 1.4186633825302124 1.1260000467300415 0.10999999940395355
   vertex 1.4169313907623291 1.125 0.10999999940395355
   vertex 1.4372274875640869 1.0861890316009521 0.10999999940395355
  endloop
 endfacet
 facet normal 0 0 1
  outer loop
   vertex 1.4372274875640869 1.0861890316009521 0.10999999940395355
   vertex 1.4169313907623291 1.125 0.10999999940395355
   vertex 1.4353481531143188 1.0855050086975098 0.10999999940395355
  endloop
 endfacet
 facet normal -0 0 1
  outer loop
   vertex 1.4372274875640869 1.0861890316009521 0.10999999940395355
   vertex 1.4353481531143188 1.0855050086975098 0.10999999940395355
   vertex 1.4485965967178345 1.0437593460083008 0.10999999940395355
  endloop
 endfacet
 facet normal 0 0 1
  outer loop
   vertex 1.4485965967178345 1.0437593460083008 0.10999999940395355
   vertex 1.4353481531143188 1.0855050086975098 0.10999999940395355
   vertex 1.4466269016265869 1.0434120893478394 0.10999999940395355
  endloop
 endfacet
 facet normal -0 0 1
  outer loop
   vertex 1.4485965967178345 1.0437593460083008 0.10999999940395355
   vertex 1.4466269016265869 1.0434120893478394 0.10999999940395355
   vertex 1.4524250030517578 1 0.10999999940395355
  endloop
 endfacet
 facet normal 0 0 1
  outer loop
   vertex 1.4524250030517578 1 0.10999999940395355
   vertex 1.4466269016265869 1.0434120893478394 0.10999999940395355
   vertex 1.4504250288009644 1 0.10999999940395355
  endloop
 endfacet
 facet normal 0 0 -1
  outer loop
   vertex 0.95042502880096436 1 -0.10999999940395355
   vertex 0.94842499494552612 1 -0.10999999940395355
   vertex 0.95422303676605225 1.0434120893478394 -0.10999999940395355
  endloop
 endfacet
 facet normal 0 0 -1
  outer loop
   vertex 0.95422303676605225 1.0434120893478394 -0.10999999940395355
   vertex 0.94842499494552612 1 -0.10999999940395355
   vertex 0.95225346088409424 1.0437593460083008 -0.10999999940395355
  endloop
 endfacet
 facet normal 0 0 -1
  outer loop
   vertex 0.95422303676605225 1.0434120893478394 -0.10999999940395355
   vertex 0.95225346088409424 1.0437593460083008 -0.10999999940395355
   vertex 0.96550184488296509 1.0855050086975098 -0.10999999940395355
  endloop
 endfacet
 facet normal 0 0 -1
  outer loop
   vertex 0.96550184488296509 1.0855050086975098 -0.10999999940395355
   vertex 0.95225346088409424 1.0437593460083008 -0.10999999940395355
   vertex 0.96362245082855225 1.0861890316009521 -0.10999999940395355
  endloop
 endfacet
 facet normal 0 0 -1
  outer loop
   vertex 0.96550184488296509 1.0855050086975098 -0.10999999940395355
   vertex 0.96362245082855225 1.0861890316009521 -0.10999999940395355
   vertex 0.98391866683959961 1.125 -0.10999999940395355
  endloop
 endfacet
 facet normal 0 0 -1
  outer loop
   vertex 0.98391866683959961 1.125 -0.10999999940395355
   vertex 0.96362245082855225 1.0861890316009521 -0.10999999940395355
   vertex 0.98218661546707153 1.1260000467300415 -0.10999999940395355
  endloop
 endfacet
 facet normal 0 0 -1
  outer loop
   vertex 0.98391866683959961 1.125 -0.10999999940395355
   vertex 0.98218661546707153 1.1260000467300415 -0.10999999940395355
   vertex 1.0089138746261597 1.1606968641281128 -0.10999999940395355
  endloop
 endfacet
 facet normal 0 0 -1
  outer loop
   vertex 1.0089138746261597 1.1606968641281128 -0.10999999940395355
   vertex 0.98218661546707153 1.1260000467300415 -0.10999999940395355
   vertex 1.007381796836853 1.161982536315918 -0.10999999940395355
  endloop
 endfacet
 facet normal 0 0 -1
  outer loop
   vertex 1.0089138746261597 1.1606968641281128 -0.10999999940395355
   vertex 1.007381796836853 1.161982536315918 -0.10999999940395355
   vertex 1.039728045463562 1.1915111541748047 -0.10999999940395355
  endloop
 endfacet
 facet normal 0 0 -1
  outer loop
   vertex 1.039728045463562 1.1915111541748047 -0.10999999940395355
   vertex 1.007381796836853 1.161982536315918 -0.10999999940395355
   vertex 1.0384424924850464 1.1930432319641113 -0.10999999940395355
  endloop
 endfacet
 facet normal 0 0 -1
  outer loop
   vertex 1.039728045463562 1.1915111541748047 -0.10999999940395355
   vertex 1.0384424924850464 1.1930432319641113 -0.10999999940395355
   vertex 1.0754250288009644 1.2165063619613647 -0.10999999940395355
  endloop
 endfacet
 facet normal 0 0 -1
  outer loop
   vertex 1.0754250288009644 1.2165063619613647 -0.10999999940395355
   vertex 1.0384424924850464 1.1930432319641113 -0.10999999940395355
   vertex 1.0744249820709229 1.218238353729248 -0.10999999940395355
  endloop
 endfacet
 facet normal 0 0 -1
  outer loop
   vertex 1.0754250288009644 1.2165063619613647 -0.10999999940395355
   vertex 1.0744249820709229 1.218238353729248 -0.10999999940395355
   vertex 1.1149200201034546 1.2349231243133545 -0.10999999940395355
  endloop
 endfacet
 facet normal 0 0 -1
  outer loop
   vertex 1.1149200201034546 1.2349231243133545 -0.10999999940395355
   vertex 1.0744249820709229 1.218238353729248 -0.10999999940395355
   vertex 1.1142358779907227 1.2368025779724121 -0.10999999940395355
  endloop
 endfacet
 facet normal 0 0 -1
  outer loop
   vertex 1.1149200201034546 1.2349231243133545 -0.10999999940395355
   vertex 1.1142358779907227 1.2368025779724121 -0.10999999940395355
   vertex 1.157012939453125 1.2462019920349121 -0.10999999940395355
  endloop
 endfacet
 facet normal 0 0 -1
  outer loop
   vertex 1.157012939453125 1.2462019920349121 -0.10999999940395355
   vertex 1.1142358779907227 1.2368025779724121 -0.10999999940395355
   vertex 1.1566656827926636 1.2481715679168701 -0.10999999940395355
  endloop
 endfacet
 facet normal 0 0 -1
  outer loop
   vertex 1.157012939453125 1.2462019920349121 -0.10999999940395355
   vertex 1.1566656827926636 1.2481715679168701 -0.10999999940395355
   vertex 1.2004250288009644 1.25 -0.10999999940395355
  endloop
 endfacet
 facet normal 0 0 -1
  outer loop
   vertex 1.2004250288009644 1.25 -0.10999999940395355
   vertex 1.1566656827926636 1.2481715679168701 -0.10999999940395355
   vertex 1.2004250288009644 1.2519999742507935 -0.10999999940395355
  endloop
 endfacet
 facet normal 0 0 -1
  outer loop
   vertex 1.2004250288009644 1.25 -0.10999999940395355
   vertex 1.2004250288009644 1.2519999742507935 -0.10999999940395355
   vertex 1.2441843748092651 1.2481715679168701 -0.10999999940395355
  endloop
 endfacet
 facet normal -0 0 -1
  outer loop
   vertex 1.2004250288009644 1.25 -0.10999999940395355
   vertex 1.2441843748092651 1.2481715679168701 -0.10999999940395355
   vertex 1.2438369989395142 1.2462019920349121 -0.10999999940395355
  endloop
 endfacet
 facet normal 0 -0 -1
  outer loop
   vertex 1.2438369989395142 1.2462019920349121 -0.10999999940395355
   vertex 1.2441843748092651 1.2481715679168701 -0.10999999940395355
   vertex 1.2866140604019165 1.2368025779724121 -0.10999999940395355
  endloop
 endfacet
 facet normal -0 0 -1
  outer loop
   vertex 1.2438369989395142 1.2462019920349121 -0.10999999940395355
   vertex 1.2866140604019165 1.2368025779724121 -0.10999999940395355
   vertex 1.2859300374984741 1.2349231243133545 -0.10999999940395355
  endloop
 endfacet
 facet normal 0 -0 -1
  outer loop
   vertex 1.2859300374984741 1.2349231243133545 -0.10999999940395355
   vertex 1.2866140604019165 1.2368025779724121 -0.10999999940395355
   vertex 1.3264249563217163 1.218238353729248 -0.10999999940395355
  endloop
 endfacet
 facet normal -0 0 -1
  outer loop
   vertex 1.2859300374984741 1.2349231243133545 -0.10999999940395355
   vertex 1.3264249563217163 1.218238353729248 -0.10999999940395355
   vertex 1.3254250288009644 1.2165063619613647 -0.10999999940395355
  endloop
 endfacet
 facet normal 0 -0 -1
  outer loop
   vertex 1.3254250288009644 1.2165063619613647 -0.10999999940395355
   vertex 1.3264249563217163 1.218238353729248 -0.10999999940395355
   vertex 1.3624074459075928 1.1930432319641113 -0.10999999940395355
  endloop
 endfacet
 facet normal -0 0 -1
  outer loop
   vertex 1.3254250288009644 1.2165063619613647 -0.10999999940395355
   vertex 1.3624074459075928 1.1930432319641113 -0.10999999940395355
   vertex 1.3611218929290771 1.1915111541748047 -0.10999999940395355
  endloop
 endfacet
 facet normal 0 -0 -1
  outer loop
   vertex 1.3611218929290771 1.1915111541748047 -0.10999999940395355
   vertex 1.3624074459075928 1.1930432319641113 -0.10999999940395355
   vertex 1.3934681415557861 1.161982536315918 -0.10999999940395355
  endloop
 endfacet
 facet normal -0 0 -1
  outer loop
   vertex 1.3611218929290771 1.1915111541748047 -0.10999999940395355
   vertex 1.3934681415557861 1.161982536315918 -0.10999999940395355
   vertex 1.3919360637664795 1.1606968641281128 -0.10999999940395355
  endloop
 endfacet
 facet normal 0 -0 -1
  outer loop
   vertex 1.3919360637664795 1.1606968641281128 -0.10999999940395355
   vertex 1.3934681415557861 1.161982536315918 -0.10999999940395355
   vertex 1.4186633825302124 1.1260000467300415 -0.10999999940395355
  endloop
 endfacet
 facet normal -0 0 -1
  outer loop
   vertex 1.3919360637664795 1.1606968641281128 -0.10999999940395355
   vertex 1.4186633825302124 1.1260000467300415 -0.10999999940395355
   vertex 1.4169313907623291 1.125 -0.10999999940395355
  endloop
 endfacet
 facet normal 0 -0 -1
  outer loop
   vertex 1.4169313907623291 1.125 -0.10999999940395355
   vertex 1.4186633825302124 1.1260000467300415 -0.10999999940395355
   vertex 1.4372274875640869 1.0861890316009521 -0.10999999940395355
  endloop
 endfacet
 facet normal -0 0 -1
  outer loop
   vertex 1.4169313907623291 1.125 -0.10999999940395355
   vertex 1.4372274875640869 1.0861890316009521 -0.10999999940395355
   vertex 1.4353481531143188 1.0855050086975098 -0.10999999940395355
  endloop
 endfacet
 facet normal 0 -0 -1
  outer loop
   vertex 1.4353481531143188 1.0855050086975098 -0.10999999940395355
   vertex 1.4372274875640869 1.0861890316009521 -0.10999999940395355
   vertex 1.4485965967178345 1.0437593460083008 -0.10999999940395355
  endloop
 endfacet
 facet normal -0 0 -1
  outer loop
   vertex 1.4353481531143188 1.0855050086975098 -0.10999999940395355
   vertex 1.4485965967178345 1.0437593460083008 -0.10999999940395355
   vertex 1.4466269016265869 1.0434120893478394 -0.10999999940395355
  endloop
 endfacet
 facet normal 0 -0 -1
  outer loop
   vertex 1.4466269016265869 1.0434120893478394 -0.10999999940395355
   vertex 1.4485965967178345 1.0437593460083008 -0.10999999940395355
   vertex 1.4524250030517578 1 -0.10999999940395355
  endloop
 endfacet
 facet normal 0 0 -1
  outer loop
   vertex 1.4466269016265869 1.0434120893478394 -0.10999999940395355
   vertex 1.4524250030517578 1 -0.10999999940395355
   vertex 1.4504250288009644 1 -0.10999999940395355
  endloop
 endfacet
 facet normal 0 1 0
  outer loop
   vertex 0.55212497711181641 1 -0.10999999940395355
   vertex 0.55012500286102295 1 -0.10999999940395355
   vertex 0.55212497711181641 1 0.10999999940395355
  endloop
 endfacet
 facet normal 0 1 0
  outer loop
   vertex 0.55212497711181641 1 0.10999999940395355
   vertex 0.55012500286102295 1 -0.10999999940395355
   vertex 0.55012500286102295 1 0.10999999940395355
  endloop
 endfacet
 facet normal -0.9961948026877161 0.087154547201982152 0
  outer loop
   vertex 1.0521249771118164 1 -0.10999999940395355
   vertex 1.0483269691467285 0.95658797025680542 -0.10999999940395355
   vertex 1.0521249771118164 1 0.10999999940395355
  endloop
 endfacet
 facet normal -0.9961948026877161 0.087154547201982152 0
  outer loop
   vertex 1.0521249771118164 1 0.10999999940395355
   vertex 1.0483269691467285 0.95658797025680542 -0.10999999940395355
   vertex 1.0483269691467285 0.95658797025680542 0.10999999940395355
  endloop
 endfacet
 facet normal -0.9659253214225717 0.25882092928258643 0
  outer loop
   vertex 1.0483269691467285 0.95658797025680542 0.10999999940395355
   vertex 1.0483269691467285 0.95658797025680542 -0.10999999940395355
   vertex 1.0370481014251709 0.91449499130249023 -0.10999999940395355
  endloop
 endfacet
 facet normal -0.9659253214225717 0.25882092928258643 0
  outer loop
   vertex 1.0483269691467285 0.95658797025680542 0.10999999940395355
   vertex 1.0370481014251709 0.91449499130249023 -0.10999999940395355
   vertex 1.0370481014251709 0.91449499130249023 0.10999999940395355
  endloop
 endfacet
 facet normal -0.90630826650625884 0.42261723351328201 0
  outer loop
   vertex 1.0370481014251709 0.91449499130249023 0.10999999940395355
   vertex 1.0370481014251709 0.91449499130249023 -0.10999999940395355
   vertex 1.0186313390731812 0.875 -0.10999999940395355
  endloop
 endfacet
 facet normal -0.90630826650625884 0.42261723351328201 0
  outer loop
   vertex 1.0370481014251709 0.91449499130249023 0.10999999940395355
   vertex 1.0186313390731812 0.875 -0.10999999940395355
   vertex 1.0186313390731812 0.875 0.10999999940395355
  endloop
 endfacet
 facet normal -0.81915255428781586 0.573575707996553 0
  outer loop
   vertex 1.0186313390731812 0.875 0.10999999940395355
   vertex 1.0186313390731812 0.875 -0.10999999940395355
   vertex 0.99363613128662109 0.83930307626724243 -0.10999999940395355
  endloop
 endfacet
 facet normal -0.81915255428781586 0.573575707996553 0
  outer loop
   vertex 1.0186313390731812 0.875 0.10999999940395355
   vertex 0.99363613128662109 0.83930307626724243 -0.10999999940395355
   vertex 0.99363613128662109 0.83930307626724243 0.10999999940395355
  endloop
 endfacet
 facet normal -0.70710609729944329 0.70710746507299038 0
  outer loop
   vertex 0.99363613128662109 0.83930307626724243 0.10999999940395355
   vertex 0.99363613128662109 0.83930307626724243 -0.10999999940395355
   vertex 0.96282190084457397 0.80848890542984009 -0.10999999940395355
  endloop
 endfacet
 facet normal -0.70710609729944329 0.70710746507299038 0
  outer loop
   vertex 0.99363613128662109 0.83930307626724243 0.10999999940395355
   vertex 0.96282190084457397 0.80848890542984009 -0.10999999940395355
   vertex 0.96282190084457397 0.80848890542984009 0.10999999940395355
  endloop
 endfacet
 facet normal -0.57357662578623514 0.81915191164501178 0
  outer loop
   vertex 0.96282190084457397 0.80848890542984009 0.10999999940395355
   vertex 0.96282190084457397 0.80848890542984009 -0.10999999940395355
   vertex 0.92712497711181641 0.78349363803863525 -0.10999999940395355
  endloop
 endfacet
 facet normal -0.57357662578623514 0.81915191164501178 0
  outer loop
   vertex 0.96282190084457397 0.80848890542984009 0.10999999940395355
   vertex 0.92712497711181641 0.78349363803863525 -0.10999999940395355
   vertex 0.92712497711181641 0.78349363803863525 0.10999999940395355
  endloop
 endfacet
 facet normal -0.42261888088157279 0.9063074983262619 0
  outer loop
   vertex 0.92712497711181641 0.78349363803863525 0.10999999940395355
   vertex 0.92712497711181641 0.78349363803863525 -0.10999999940395355
   vertex 0.88763004541397095 0.76507681608200073 -0.10999999940395355
  endloop
 endfacet
 facet normal -0.42261888088157279 0.9063074983262619 0
  outer loop
   vertex 0.92712497711181641 0.78349363803863525 0.10999999940395355
   vertex 0.88763004541397095 0.76507681608200073 -0.10999999940395355
   vertex 0.88763004541397095 0.76507681608200073 0.10999999940395355
  endloop
 endfacet
 facet normal -0.25881837698357613 0.96592600531075234 0
  outer loop
   vertex 0.88763004541397095 0.76507681608200073 0.10999999940395355
   vertex 0.88763004541397095 0.76507681608200073 -0.10999999940395355
   vertex 0.84553706645965576 0.75379806756973267 -0.10999999940395355
  endloop
 endfacet
 facet normal -0.25881837698357613 0.96592600531075234 0
  outer loop
   vertex 0.88763004541397095 0.76507681608200073 0.10999999940395355
   vertex 0.84553706645965576 0.75379806756973267 -0.10999999940395355
   vertex 0.84553706645965576 0.75379806756973267 0.10999999940395355
  endloop
 endfacet
 facet normal -0.087155785830297844 0.99619469432250207 0
  outer loop
   vertex 0.84553706645965576 0.75379806756973267 0.10999999940395355
   vertex 0.84553706645965576 0.75379806756973267 -0.10999999940395355
   vertex 0.80212497711181641 0.75 -0.10999999940395355
  endloop
 endfacet
 facet normal -0.087155785830297844 0.99619469432250207 0
  outer loop
   vertex 0.84553706645965576 0.75379806756973267 0.10999999940395355
   vertex 0.80212497711181641 0.75 -0.10999999940395355
   vertex 0.80212497711181641 0.75 0.10999999940395355
  endloop
 endfacet
 facet normal 0.08715590458605614 0.99619468393270716 -0
  outer loop
   vertex 0.80212497711181641 0.75 0.10999999940395355
   vertex 0.80212497711181641 0.75 -0.10999999940395355
   vertex 0.75871294736862183 0.75379806756973267 -0.10999999940395355
  endloop
 endfacet
 facet normal 0.08715590458605614 0.99619468393270716 -0
  outer loop
   vertex 0.80212497711181641 0.75 0.10999999940395355
   vertex 0.75871294736862183 0.75379806756973267 -0.10999999940395355
   vertex 0.75871294736862183 0.75379806756973267 0.10999999940395355
  endloop
 endfacet
 facet normal 0.25881837698357613 0.96592600531075234 -0
  outer loop
   vertex 0.75871294736862183 0.75379806756973267 0.10999999940395355
   vertex 0.75871294736862183 0.75379806756973267 -0.10999999940395355
   vertex 0.71661996841430664 0.76507681608200073 -0.10999999940395355
  endloop
 endfacet
 facet normal 0.25881837698357613 0.96592600531075234 -0
  outer loop
   vertex 0.75871294736862183 0.75379806756973267 0.10999999940395355
   vertex 0.71661996841430664 0.76507681608200073 -0.10999999940395355
   vertex 0.71661996841430664 0.76507681608200073 0.10999999940395355
  endloop
 endfacet
 facet normal 0.42261835699375572 0.90630774261941416 -0
  outer loop
   vertex 0.71661996841430664 0.76507681608200073 0.10999999940395355
   vertex 0.71661996841430664 0.76507681608200073 -0.10999999940395355
   vertex 0.67712497711181641 0.78349363803863525 -0.10999999940395355
  endloop
 endfacet
 facet normal 0.42261835699375572 0.90630774261941416 -0
  outer loop
   vertex 0.71661996841430664 0.76507681608200073 0.10999999940395355
   vertex 0.67712497711181641 0.78349363803863525 -0.10999999940395355
   vertex 0.67712497711181641 0.78349363803863525 0.10999999940395355
  endloop
 endfacet
 facet normal 0.57357726842959278 0.8191514616606913 -0
  outer loop
   vertex 0.67712497711181641 0.78349363803863525 0.10999999940395355
   vertex 0.67712497711181641 0.78349363803863525 -0.10999999940395355
   vertex 0.64142811298370361 0.80848890542984009 -0.10999999940395355
  endloop
 endfacet
 facet normal 0.57357726842959278 0.8191514616606913 -0
  outer loop
   vertex 0.67712497711181641 0.78349363803863525 0.10999999940395355
   vertex 0.64142811298370361 0.80848890542984009 -0.10999999940395355
   vertex 0.64142811298370361 0.80848890542984009 0.10999999940395355
  endloop
 endfacet
 facet normal 0.70710609729944329 0.70710746507299038 -0
  outer loop
   vertex 0.64142811298370361 0.80848890542984009 0.10999999940395355
   vertex 0.64142811298370361 0.80848890542984009 -0.10999999940395355
   vertex 0.61061388254165649 0.83930307626724243 -0.10999999940395355
  endloop
 endfacet
 facet normal 0.70710609729944329 0.70710746507299038 -0
  outer loop
   vertex 0.64142811298370361 0.80848890542984009 0.10999999940395355
   vertex 0.61061388254165649 0.83930307626724243 -0.10999999940395355
   vertex 0.61061388254165649 0.83930307626724243 0.10999999940395355
  endloop
 endfacet
 facet normal 0.81915255428781586 0.573575707996553 -0
  outer loop
   vertex 0.61061388254165649 0.83930307626724243 0.10999999940395355
   vertex 0.61061388254165649 0.83930307626724243 -0.10999999940395355
   vertex 0.58561867475509644 0.875 -0.10999999940395355
  endloop
 endfacet
 facet normal 0.81915255428781586 0.573575707996553 -0
  outer loop
   vertex 0.61061388254165649 0.83930307626724243 0.10999999940395355
   vertex 0.58561867475509644 0.875 -0.10999999940395355
   vertex 0.58561867475509644 0.875 0.10999999940395355
  endloop
 endfacet
 facet normal 0.90630774261941416 0.42261835699375572 -0
  outer loop
   vertex 0.58561867475509644 0.875 0.10999999940395355
   vertex 0.58561867475509644 0.875 -0.10999999940395355
   vertex 0.56720185279846191 0.91449499130249023 -0.10999999940395355
  endloop
 endfacet
 facet normal 0.90630774261941416 0.42261835699375572 -0
  outer loop
   vertex 0.58561867475509644 0.875 0.10999999940395355
   vertex 0.56720185279846191 0.91449499130249023 -0.10999999940395355
   vertex 0.56720185279846191 0.91449499130249023 0.10999999940395355
  endloop
 endfacet
 facet normal 0.96592566336738395 0.25881965313375893 -0
  outer loop
   vertex 0.56720185279846191 0.91449499130249023 0.10999999940395355
   vertex 0.56720185279846191 0.91449499130249023 -0.10999999940395355
   vertex 0.55592304468154907 0.95658797025680542 -0.10999999940395355
  endloop
 endfacet
 facet normal 0.96592566336738395 0.25881965313375893 -0
  outer loop
   vertex 0.56720185279846191 0.91449499130249023 0.10999999940395355
   vertex 0.55592304468154907 0.95658797025680542 -0.10999999940395355
   vertex 0.55592304468154907 0.95658797025680542 0.10999999940395355
  endloop
 endfacet
 facet normal 0.99619468393270716 0.08715590458605614 -0
  outer loop
   vertex 0.55592304468154907 0.95658797025680542 0.10999999940395355
   vertex 0.55592304468154907 0.95658797025680542 -0.10999999940395355
   vertex 0.55212497711181641 1 0.10999999940395355
  endloop
 endfacet
 facet normal 0.99619468393270716 0.08715590458605614 0
  outer loop
   vertex 0.55212497711181641 1 0.10999999940395355
   vertex 0.55592304468154907 0.95658797025680542 -0.10999999940395355
   vertex 0.55212497711181641 1 -0.10999999940395355
  endloop
 endfacet
 facet normal 0 1 0
  outer loop
   vertex 1.0541249513626099 1 -0.10999999940395355
   vertex 1.0521249771118164 1 -0.10999999940395355
   vertex 1.0541249513626099 1 0.10999999940395355
  endloop
 endfacet
 facet normal 0 1 0
  outer loop
   vertex 1.0541249513626099 1 0.10999999940395355
   vertex 1.0521249771118164 1 -0.10999999940395355
   vertex 1.0521249771118164 1 0.10999999940395355
  endloop
 endfacet
 facet normal -0.99619466006324164 -0.087156177414353928 0
  outer loop
   vertex 0.55012500286102295 1 -0.10999999940395355
   vertex 0.55395346879959106 0.95624065399169922 -0.10999999940395355
   vertex 0.55012500286102295 1 0.10999999940395355
  endloop
 endfacet
 facet normal -0.99619466006324164 -0.087156177414353928 0
  outer loop
   vertex 0.55012500286102295 1 0.10999999940395355
   vertex 0.55395346879959106 0.95624065399169922 -0.10999999940395355
   vertex 0.55395346879959106 0.95624065399169922 0.10999999940395355
  endloop
 endfacet
 facet normal -0.96592597435566441 -0.25881849250982919 0
  outer loop
   vertex 0.55395346879959106 0.95624065399169922 0.10999999940395355
   vertex 0.55395346879959106 0.95624065399169922 -0.10999999940395355
   vertex 0.56532245874404907 0.91381090879440308 -0.10999999940395355
  endloop
 endfacet
 facet normal -0.96592597435566441 -0.25881849250982919 0
  outer loop
   vertex 0.55395346879959106 0.95624065399169922 0.10999999940395355
   vertex 0.56532245874404907 0.91381090879440308 -0.10999999940395355
   vertex 0.56532245874404907 0.91381090879440308 0.10999999940395355
  endloop
 endfacet
 facet normal -0.90630744703129063 -0.42261899088377974 0
  outer loop
   vertex 0.56532245874404907 0.91381090879440308 0.10999999940395355
   vertex 0.56532245874404907 0.91381090879440308 -0.10999999940395355
   vertex 0.58388662338256836 0.87400001287460327 -0.10999999940395355
  endloop
 endfacet
 facet normal -0.90630744703129063 -0.42261899088377974 0
  outer loop
   vertex 0.56532245874404907 0.91381090879440308 0.10999999940395355
   vertex 0.58388662338256836 0.87400001287460327 -0.10999999940395355
   vertex 0.58388662338256836 0.87400001287460327 0.10999999940395355
  endloop
 endfacet
 facet normal -0.8191523553534813 -0.57357599210465926 0
  outer loop
   vertex 0.58388662338256836 0.87400001287460327 0.10999999940395355
   vertex 0.58388662338256836 0.87400001287460327 -0.10999999940395355
   vertex 0.60908180475234985 0.83801752328872681 -0.10999999940395355
  endloop
 endfacet
 facet normal -0.8191523553534813 -0.57357599210465926 0
  outer loop
   vertex 0.58388662338256836 0.87400001287460327 0.10999999940395355
   vertex 0.60908180475234985 0.83801752328872681 -0.10999999940395355
   vertex 0.60908180475234985 0.83801752328872681 0.10999999940395355
  endloop
 endfacet
 facet normal -0.70710678118654757 -0.70710678118654757 0
  outer loop
   vertex 0.60908180475234985 0.83801752328872681 0.10999999940395355
   vertex 0.60908180475234985 0.83801752328872681 -0.10999999940395355
   vertex 0.64014250040054321 0.80695682764053345 -0.10999999940395355
  endloop
 endfacet
 facet normal -0.70710678118654757 -0.70710678118654757 0
  outer loop
   vertex 0.60908180475234985 0.83801752328872681 0.10999999940395355
   vertex 0.64014250040054321 0.80695682764053345 -0.10999999940395355
   vertex 0.64014250040054321 0.80695682764053345 0.10999999940395355
  endloop
 endfacet
 facet normal -0.57357690260988281 -0.81915171781084184 0
  outer loop
   vertex 0.64014250040054321 0.80695682764053345 0.10999999940395355
   vertex 0.64014250040054321 0.80695682764053345 -0.10999999940395355
   vertex 0.67612498998641968 0.78176158666610718 -0.10999999940395355
  endloop
 endfacet
 facet normal -0.57357690260988281 -0.81915171781084184 0
  outer loop
   vertex 0.64014250040054321 0.80695682764053345 0.10999999940395355
   vertex 0.67612498998641968 0.78176158666610718 -0.10999999940395355
   vertex 0.67612498998641968 0.78176158666610718 0.10999999940395355
  endloop
 endfacet
 facet normal -0.42261735659014599 -0.90630820911473464 0
  outer loop
   vertex 0.67612498998641968 0.78176158666610718 0.10999999940395355
   vertex 0.67612498998641968 0.78176158666610718 -0.10999999940395355
   vertex 0.71593594551086426 0.76319748163223267 -0.10999999940395355
  endloop
 endfacet
 facet normal -0.42261735659014599 -0.90630820911473464 0
  outer loop
   vertex 0.67612498998641968 0.78176158666610718 0.10999999940395355
   vertex 0.71593594551086426 0.76319748163223267 -0.10999999940395355
   vertex 0.71593594551086426 0.76319748163223267 0.10999999940395355
  endloop
 endfacet
 facet normal -0.25882009776166692 -0.96592554422928534 0
  outer loop
   vertex 0.71593594551086426 0.76319748163223267 0.10999999940395355
   vertex 0.71593594551086426 0.76319748163223267 -0.10999999940395355
   vertex 0.75836563110351562 0.75182843208312988 -0.10999999940395355
  endloop
 endfacet
 facet normal -0.25882009776166692 -0.96592554422928534 0
  outer loop
   vertex 0.71593594551086426 0.76319748163223267 0.10999999940395355
   vertex 0.75836563110351562 0.75182843208312988 -0.10999999940395355
   vertex 0.75836563110351562 0.75182843208312988 0.10999999940395355
  endloop
 endfacet
 facet normal -0.08715483080388442 -0.99619477787606703 0
  outer loop
   vertex 0.75836563110351562 0.75182843208312988 0.10999999940395355
   vertex 0.75836563110351562 0.75182843208312988 -0.10999999940395355
   vertex 0.80212497711181641 0.74800002574920654 -0.10999999940395355
  endloop
 endfacet
 facet normal -0.08715483080388442 -0.99619477787606703 0
  outer loop
   vertex 0.75836563110351562 0.75182843208312988 0.10999999940395355
   vertex 0.80212497711181641 0.74800002574920654 -0.10999999940395355
   vertex 0.80212497711181641 0.74800002574920654 0.10999999940395355
  endloop
 endfacet
 facet normal 0.08715483080388442 -0.99619477787606703 0
  outer loop
   vertex 0.80212497711181641 0.74800002574920654 0.10999999940395355
   vertex 0.80212497711181641 0.74800002574920654 -0.10999999940395355
   vertex 0.84588432312011719 0.75182843208312988 -0.10999999940395355
  endloop
 endfacet
 facet normal 0.08715483080388442 -0.99619477787606703 0
  outer loop
   vertex 0.80212497711181641 0.74800002574920654 0.10999999940395355
   vertex 0.84588432312011719 0.75182843208312988 -0.10999999940395355
   vertex 0.84588432312011719 0.75182843208312988 0.10999999940395355
  endloop
 endfacet
 facet normal 0.25881975853105083 -0.96592563512618734 0
  outer loop
   vertex 0.84588432312011719 0.75182843208312988 0.10999999940395355
   vertex 0.84588432312011719 0.75182843208312988 -0.10999999940395355
   vertex 0.88831406831741333 0.76319748163223267 -0.10999999940395355
  endloop
 endfacet
 facet normal 0.25881975853105083 -0.96592563512618734 0
  outer loop
   vertex 0.84588432312011719 0.75182843208312988 0.10999999940395355
   vertex 0.88831406831741333 0.76319748163223267 -0.10999999940395355
   vertex 0.88831406831741333 0.76319748163223267 0.10999999940395355
  endloop
 endfacet
 facet normal 0.42261735659014599 -0.90630820911473464 0
  outer loop
   vertex 0.88831406831741333 0.76319748163223267 0.10999999940395355
   vertex 0.88831406831741333 0.76319748163223267 -0.10999999940395355
   vertex 0.92812502384185791 0.78176158666610718 -0.10999999940395355
  endloop
 endfacet
 facet normal 0.42261735659014599 -0.90630820911473464 0
  outer loop
   vertex 0.88831406831741333 0.76319748163223267 0.10999999940395355
   vertex 0.92812502384185791 0.78176158666610718 -0.10999999940395355
   vertex 0.92812502384185791 0.78176158666610718 0.10999999940395355
  endloop
 endfacet
 facet normal 0.57357754015306683 -0.81915127139738775 0
  outer loop
   vertex 0.92812502384185791 0.78176158666610718 0.10999999940395355
   vertex 0.92812502384185791 0.78176158666610718 -0.10999999940395355
   vertex 0.9641074538230896 0.80695682764053345 -0.10999999940395355
  endloop
 endfacet
 facet normal 0.57357754015306683 -0.81915127139738775 0
  outer loop
   vertex 0.92812502384185791 0.78176158666610718 0.10999999940395355
   vertex 0.9641074538230896 0.80695682764053345 -0.10999999940395355
   vertex 0.9641074538230896 0.80695682764053345 0.10999999940395355
  endloop
 endfacet
 facet normal 0.70710610272736596 -0.70710745964507793 0
  outer loop
   vertex 0.9641074538230896 0.80695682764053345 0.10999999940395355
   vertex 0.9641074538230896 0.80695682764053345 -0.10999999940395355
   vertex 0.99516820907592773 0.83801752328872681 -0.10999999940395355
  endloop
 endfacet
 facet normal 0.70710610272736596 -0.70710745964507793 0
  outer loop
   vertex 0.9641074538230896 0.80695682764053345 0.10999999940395355
   vertex 0.99516820907592773 0.83801752328872681 -0.10999999940395355
   vertex 0.99516820907592773 0.83801752328872681 0.10999999940395355
  endloop
 endfacet
 facet normal 0.81915171781084184 -0.57357690260988281 0
  outer loop
   vertex 0.99516820907592773 0.83801752328872681 0.10999999940395355
   vertex 0.99516820907592773 0.83801752328872681 -0.10999999940395355
   vertex 1.020363450050354 0.87400001287460327 -0.10999999940395355
  endloop
 endfacet
 facet normal 0.81915171781084184 -0.57357690260988281 0
  outer loop
   vertex 0.99516820907592773 0.83801752328872681 0.10999999940395355
   vertex 1.020363450050354 0.87400001287460327 -0.10999999940395355
   vertex 1.020363450050354 0.87400001287460327 0.10999999940395355
  endloop
 endfacet
 facet normal 0.90630796676146885 -0.42261787631936731 0
  outer loop
   vertex 1.020363450050354 0.87400001287460327 0.10999999940395355
   vertex 1.020363450050354 0.87400001287460327 -0.10999999940395355
   vertex 1.0389275550842285 0.91381090879440308 -0.10999999940395355
  endloop
 endfacet
 facet normal 0.90630796676146885 -0.42261787631936731 0
  outer loop
   vertex 1.020363450050354 0.87400001287460327 0.10999999940395355
   vertex 1.0389275550842285 0.91381090879440308 -0.10999999940395355
   vertex 1.0389275550842285 0.91381090879440308 0.10999999940395355
  endloop
 endfacet
 facet normal 0.96592597435566441 -0.25881849250982919 0
  outer loop
   vertex 1.0389275550842285 0.91381090879440308 0.10999999940395355
   vertex 1.0389275550842285 0.91381090879440308 -0.10999999940395355
   vertex 1.0502965450286865 0.95624065399169922 -0.10999999940395355
  endloop
 endfacet
 facet normal 0.96592597435566441 -0.25881849250982919 0
  outer loop
   vertex 1.0389275550842285 0.91381090879440308 0.10999999940395355
   vertex 1.0502965450286865 0.95624065399169922 -0.10999999940395355
   vertex 1.0502965450286865 0.95624065399169922 0.10999999940395355
  endloop
 endfacet
 facet normal 0.99619477787606703 -0.08715483080388442 0
  outer loop
   vertex 1.0502965450286865 0.95624065399169922 0.10999999940395355
   vertex 1.0502965450286865 0.95624065399169922 -0.10999999940395355
   vertex 1.0541249513626099 1 0.10999999940395355
  endloop
 endfacet
 facet normal 0.99619477787606703 -0.08715483080388442 0
  outer loop
   vertex 1.0541249513626099 1 0.10999999940395355
   vertex 1.0502965450286865 0.95624065399169922 -0.10999999940395355
   vertex 1.0541249513626099 1 -0.10999999940395355
  endloop
 endfacet
 facet normal -0 0 1
  outer loop
   vertex 0.55212497711181641 1 0.10999999940395355
   vertex 0.55012500286102295 1 0.10999999940395355
   vertex 0.55592304468154907 0.95658797025680542 0.10999999940395355
  endloop
 endfacet
 facet normal 0 0 1
  outer loop
   vertex 0.55592304468154907 0.95658797025680542 0.10999999940395355
   vertex 0.55012500286102295 1 0.10999999940395355
   vertex 0.55395346879959106 0.95624065399169922 0.10999999940395355
  endloop
 endfacet
 facet normal -0 0 1
  outer loop
   vertex 0.55592304468154907 0.95658797025680542 0.10999999940395355
   vertex 0.55395346879959106 0.95624065399169922 0.10999999940395355
   vertex 0.56720185279846191 0.91449499130249023 0.10999999940395355
  endloop
 endfacet
 facet normal 0 0 1
  outer loop
   vertex 0.56720185279846191 0.91449499130249023 0.10999999940395355
   vertex 0.55395346879959106 0.95624065399169922 0.10999999940395355
   vertex 0.56532245874404907 0.91381090879440308 0.10999999940395355
  endloop
 endfacet
 facet normal -0 0 1
  outer loop
   vertex 0.56720185279846191 0.91449499130249023 0.10999999940395355
   vertex 0.56532245874404907 0.91381090879440308 0.10999999940395355
   vertex 0.58561867475509644 0.875 0.10999999940395355
  endloop
 endfacet
 facet normal 0 0 1
  outer loop
   vertex 0.58561867475509644 0.875 0.10999999940395355
   vertex 0.56532245874404907 0.91381090879440308 0.10999999940395355
   vertex 0.58388662338256836 0.87400001287460327 0.10999999940395355
  endloop
 endfacet
 facet normal -0 0 1
  outer loop
   vertex 0.58561867475509644 0.875 0.10999999940395355
   vertex 0.58388662338256836 0.87400001287460327 0.10999999940395355
   vertex 0.61061388254165649 0.83930307626724243 0.10999999940395355
  endloop
 endfacet
 facet normal 0 0 1
  outer loop
   vertex 0.61061388254165649 0.83930307626724243 0.10999999940395355
   vertex 0.58388662338256836 0.87400001287460327 0.10999999940395355
   vertex 0.60908180475234985 0.83801752328872681 0.10999999940395355
  endloop
 endfacet
 facet normal -0 0 1
  outer loop
   vertex 0.61061388254165649 0.83930307626724243 0.10999999940395355
   vertex 0.60908180475234985 0.83801752328872681 0.10999999940395355
   vertex 0.64142811298370361 0.80848890542984009 0.10999999940395355
  endloop
 endfacet
 facet normal 0 0 1
  outer loop
   vertex 0.64142811298370361 0.80848890542984009 0.10999999940395355
   vertex 0.60908180475234985 0.83801752328872681 0.10999999940395355
   vertex 0.64014250040054321 0.80695682764053345 0.10999999940395355
  endloop
 endfacet
 facet normal -0 0 1
  outer loop
   vertex 0.64142811298370361 0.80848890542984009 0.10999999940395355
   vertex 0.64014250040054321 0.80695682764053345 0.10999999940395355
   vertex 0.67712497711181641 0.78349363803863525 0.10999999940395355
  endloop
 endfacet
 facet normal 0 0 1
  outer loop
   vertex 0.67712497711181641 0.78349363803863525 0.10999999940395355
   vertex 0.64014250040054321 0.80695682764053345 0.10999999940395355
   vertex 0.67612498998641968 0.78176158666610718 0.10999999940395355
  endloop
 endfacet
 facet normal -0 0 1
  outer loop
   vertex 0.67712497711181641 0.78349363803863525 0.10999999940395355
   vertex 0.67612498998641968 0.78176158666610718 0.10999999940395355
   vertex 0.71661996841430664 0.76507681608200073 0.10999999940395355
  endloop
 endfacet
 facet normal 0 0 1
  outer loop
   vertex 0.71661996841430664 0.76507681608200073 0.10999999940395355
   vertex 0.67612498998641968 0.78176158666610718 0.10999999940395355
   vertex 0.71593594551086426 0.76319748163223267 0.10999999940395355
  endloop
 endfacet
 facet normal -0 0 1
  outer loop
   vertex 0.71661996841430664 0.76507681608200073 0.10999999940395355
   vertex 0.71593594551086426 0.76319748163223267 0.10999999940395355
   vertex 0.75871294736862183 0.75379806756973267 0.10999999940395355
  endloop
 endfacet
 facet normal 0 0 1
  outer loop
   vertex 0.75871294736862183 0.75379806756973267 0.10999999940395355
   vertex 0.71593594551086426 0.76319748163223267 0.10999999940395355
   vertex 0.75836563110351562 0.75182843208312988 0.10999999940395355
  endloop
 endfacet
 facet normal -0 0 1
  outer loop
   vertex 0.75871294736862183 0.75379806756973267 0.10999999940395355
   vertex 0.75836563110351562 0.75182843208312988 0.10999999940395355
   vertex 0.80212497711181641 0.75 0.10999999940395355
  endloop
 endfacet
 facet normal 0 0 1
  outer loop
   vertex 0.80212497711181641 0.75 0.10999999940395355
   vertex 0.75836563110351562 0.75182843208312988 0.10999999940395355
   vertex 0.80212497711181641 0.74800002574920654 0.10999999940395355
  endloop
 endfacet
 facet normal 0 0 1
  outer loop
   vertex 0.80212497711181641 0.75 0.10999999940395355
   vertex 0.80212497711181641 0.74800002574920654 0.10999999940395355
   vertex 0.84588432312011719 0.75182843208312988 0.10999999940395355
  endloop
 endfacet
 facet normal 0 0 1
  outer loop
   vertex 0.80212497711181641 0.75 0.10999999940395355
   vertex 0.84588432312011719 0.75182843208312988 0.10999999940395355
   vertex 0.84553706645965576 0.75379806756973267 0.10999999940395355
  endloop
 endfacet
 facet normal 0 -0 1
  outer loop
   vertex 0.84553706645965576 0.75379806756973267 0.10999999940395355
   vertex 0.84588432312011719 0.75182843208312988 0.10999999940395355
   vertex 0.88831406831741333 0.76319748163223267 0.10999999940395355
  endloop
 endfacet
 facet normal 0 0 1
  outer loop
   vertex 0.84553706645965576 0.75379806756973267 0.10999999940395355
   vertex 0.88831406831741333 0.76319748163223267 0.10999999940395355
   vertex 0.88763004541397095 0.76507681608200073 0.10999999940395355
  endloop
 endfacet
 facet normal 0 -0 1
  outer loop
   vertex 0.88763004541397095 0.76507681608200073 0.10999999940395355
   vertex 0.88831406831741333 0.76319748163223267 0.10999999940395355
   vertex 0.92812502384185791 0.78176158666610718 0.10999999940395355
  endloop
 endfacet
 facet normal 0 0 1
  outer loop
   vertex 0.88763004541397095 0.76507681608200073 0.10999999940395355
   vertex 0.92812502384185791 0.78176158666610718 0.10999999940395355
   vertex 0.92712497711181641 0.78349363803863525 0.10999999940395355
  endloop
 endfacet
 facet normal 0 -0 1
  outer loop
   vertex 0.92712497711181641 0.78349363803863525 0.10999999940395355
   vertex 0.92812502384185791 0.78176158666610718 0.10999999940395355
   vertex 0.9641074538230896 0.80695682764053345 0.10999999940395355
  endloop
 endfacet
 facet normal 0 0 1
  outer loop
   vertex 0.92712497711181641 0.78349363803863525 0.10999999940395355
   vertex 0.9641074538230896 0.80695682764053345 0.10999999940395355
   vertex 0.96282190084457397 0.80848890542984009 0.10999999940395355
  endloop
 endfacet
 facet normal 0 -0 1
  outer loop
   vertex 0.96282190084457397 0.80848890542984009 0.10999999940395355
   vertex 0.9641074538230896 0.80695682764053345 0.10999999940395355
   vertex 0.99516820907592773 0.83801752328872681 0.10999999940395355
  endloop
 endfacet
 facet normal 0 0 1
  outer loop
   vertex 0.96282190084457397 0.80848890542984009 0.10999999940395355
   vertex 0.99516820907592773 0.83801752328872681 0.10999999940395355
   vertex 0.99363613128662109 0.83930307626724243 0.10999999940395355
  endloop
 endfacet
 facet normal 0 -0 1
  outer loop
   vertex 0.99363613128662109 0.83930307626724243 0.10999999940395355
   vertex 0.99516820907592773 0.83801752328872681 0.10999999940395355
   vertex 1.020363450050354 0.87400001287460327 0.10999999940395355
  endloop
 endfacet
 facet normal 0 0 1
  outer loop
   vertex 0.99363613128662109 0.83930307626724243 0.10999999940395355
   vertex 1.020363450050354 0.87400001287460327 0.10999999940395355
   vertex 1.0186313390731812 0.875 0.10999999940395355
  endloop
 endfacet
 facet normal 0 -0 1
  outer loop
   vertex 1.0186313390731812 0.875 0.10999999940395355
   vertex 1.020363450050354 0.87400001287460327 0.10999999940395355
   vertex 1.0389275550842285 0.91381090879440308 0.10999999940395355
  endloop
 endfacet
 facet normal 0 0 1
  outer loop
   vertex 1.0186313390731812 0.875 0.10999999940395355
   vertex 1.0389275550842285 0.91381090879440308 0.10999999940395355
   vertex 1.0370481014251709 0.91449499130249023 0.10999999940395355
  endloop
 endfacet
 facet normal 0 -0 1
  outer loop
   vertex 1.0370481014251709 0.91449499130249023 0.10999999940395355
   vertex 1.0389275550842285 0.91381090879440308 0.10999999940395355
   vertex 1.0502965450286865 0.95624065399169922 0.10999999940395355
  endloop
 endfacet
 facet normal 0 0 1
  outer loop
   vertex 1.0370481014251709 0.91449499130249023 0.10999999940395355
   vertex 1.0502965450286865 0.95624065399169922 0.10999999940395355
   vertex 1.0483269691467285 0.95658797025680542 0.10999999940395355
  endloop
 endfacet
 facet normal 0 -0 1
  outer loop
   vertex 1.0483269691467285 0.95658797025680542 0.10999999940395355
   vertex 1.0502965450286865 0.95624065399169922 0.10999999940395355
   vertex 1.0541249513626099 1 0.10999999940395355
  endloop
 endfacet
 facet normal 0 0 1
  outer loop
   vertex 1.0483269691467285 0.95658797025680542 0.10999999940395355
   vertex 1.0541249513626099 1 0.10999999940395355
   vertex 1.0521249771118164 1 0.10999999940395355
  endloop
 endfacet
 facet normal -0 0 -1
  outer loop
   vertex 1.0521249771118164 1 -0.10999999940395355
   vertex 1.0541249513626099 1 -0.10999999940395355
   vertex 1.0483269691467285 0.95658797025680542 -0.10999999940395355
  endloop
 endfacet
 facet normal 0 0 -1
  outer loop
   vertex 1.0483269691467285 0.95658797025680542 -0.10999999940395355
   vertex 1.0541249513626099 1 -0.10999999940395355
   vertex 1.0502965450286865 0.95624065399169922 -0.10999999940395355
  endloop
 endfacet
 facet normal -0 0 -1
  outer loop
   vertex 1.0483269691467285 0.95658797025680542 -0.10999999940395355
   vertex 1.0502965450286865 0.95624065399169922 -0.10999999940395355
   vertex 1.0370481014251709 0.91449499130249023 -0.10999999940395355
  endloop
 endfacet
 facet normal 0 0 -1
  outer loop
   vertex 1.0370481014251709 0.91449499130249023 -0.10999999940395355
   vertex 1.0502965450286865 0.95624065399169922 -0.10999999940395355
   vertex 1.0389275550842285 0.91381090879440308 -0.10999999940395355
  endloop
 endfacet
 facet normal -0 0 -1
  outer loop
   vertex 1.0370481014251709 0.91449499130249023 -0.10999999940395355
   vertex 1.0389275550842285 0.91381090879440308 -0.10999999940395355
   vertex 1.0186313390731812 0.875 -0.10999999940395355
  endloop
 endfacet
 facet normal 0 0 -1
  outer loop
   vertex 1.0186313390731812 0.875 -0.10999999940395355
   vertex 1.0389275550842285 0.91381090879440308 -0.10999999940395355
   vertex 1.020363450050354 0.87400001287460327 -0.10999999940395355
  endloop
 endfacet
 facet normal -0 0 -1
  outer loop
   vertex 1.0186313390731812 0.875 -0.10999999940395355
   vertex 1.020363450050354 0.87400001287460327 -0.10999999940395355
   vertex 0.99363613128662109 0.83930307626724243 -0.10999999940395355
  endloop
 endfacet
 facet normal 0 0 -1
  outer loop
   vertex 0.99363613128662109 0.83930307626724243 -0.10999999940395355
   vertex 1.020363450050354 0.87400001287460327 -0.10999999940395355
   vertex 0.99516820907592773 0.83801752328872681 -0.10999999940395355
  endloop
 endfacet
 facet normal -0 0 -1
  outer loop
   vertex 0.99363613128662109 0.83930307626724243 -0.10999999940395355
   vertex 0.99516820907592773 0.83801752328872681 -0.10999999940395355
   vertex 0.96282190084457397 0.80848890542984009 -0.10999999940395355
  endloop
 endfacet
 facet normal 0 0 -1
  outer loop
   vertex 0.96282190084457397 0.80848890542984009 -0.10999999940395355
   vertex 0.99516820907592773 0.83801752328872681 -0.10999999940395355
   vertex 0.9641074538230896 0.80695682764053345 -0.10999999940395355
  endloop
 endfacet
 facet normal -0 0 -1
  outer loop
   vertex 0.96282190084457397 0.80848890542984009 -0.10999999940395355
   vertex 0.9641074538230896 0.80695682764053345 -0.10999999940395355
   vertex 0.92712497711181641 0.78349363803863525 -0.10999999940395355
  endloop
 endfacet
 facet normal 0 0 -1
  outer loop
   vertex 0.92712497711181641 0.78349363803863525 -0.10999999940395355
   vertex 0.9641074538230896 0.80695682764053345 -0.10999999940395355
   vertex 0.92812502384185791 0.78176158666610718 -0.10999999940395355
  endloop
 endfacet
 facet normal -0 0 -1
  outer loop
   vertex 0.92712497711181641 0.78349363803863525 -0.10999999940395355
   vertex 0.92812502384185791 0.78176158666610718 -0.10999999940395355
   vertex 0.88763004541397095 0.76507681608200073 -0.10999999940395355
  endloop
 endfacet
 facet normal 0 0 -1
  outer loop
   vertex 0.88763004541397095 0.76507681608200073 -0.10999999940395355
   vertex 0.92812502384185791 0.78176158666610718 -0.10999999940395355
   vertex 0.88831406831741333 0.76319748163223267 -0.10999999940395355
  endloop
 endfacet
 facet normal -0 0 -1
  outer loop
   vertex 0.88763004541397095 0.76507681608200073 -0.10999999940395355
   vertex 0.88831406831741333 0.76319748163223267 -0.10999999940395355
   vertex 0.84553706645965576 0.75379806756973267 -0.10999999940395355
  endloop
 endfacet
 facet normal 0 0 -1
  outer loop
   vertex 0.84553706645965576 0.75379806756973267 -0.10999999940395355
   vertex 0.88831406831741333 0.76319748163223267 -0.10999999940395355
   vertex 0.84588432312011719 0.75182843208312988 -0.10999999940395355
  endloop
 endfacet
 facet normal -0 0 -1
  outer loop
   vertex 0.84553706645965576 0.75379806756973267 -0.10999999940395355
   vertex 0.84588432312011719 0.75182843208312988 -0.10999999940395355
   vertex 0.80212497711181641 0.75 -0.10999999940395355
  endloop
 endfacet
 facet normal 0 0 -1
  outer loop
   vertex 0.80212497711181641 0.75 -0.10999999940395355
   vertex 0.84588432312011719 0.75182843208312988 -0.10999999940395355
   vertex 0.80212497711181641 0.74800002574920654 -0.10999999940395355
  endloop
 endfacet
 facet normal 0 0 -1
  outer loop
   vertex 0.80212497711181641 0.75 -0.10999999940395355
   vertex 0.80212497711181641 0.74800002574920654 -0.10999999940395355
   vertex 0.75836563110351562 0.75182843208312988 -0.10999999940395355
  endloop
 endfacet
 facet normal 0 0 -1
  outer loop
   vertex 0.80212497711181641 0.75 -0.10999999940395355
   vertex 0.75836563110351562 0.75182843208312988 -0.10999999940395355
   vertex 0.75871294736862183 0.75379806756973267 -0.10999999940395355
  endloop
 endfacet
 facet normal 0 0 -1
  outer loop
   vertex 0.75871294736862183 0.75379806756973267 -0.10999999940395355
   vertex 0.75836563110351562 0.75182843208312988 -0.10999999940395355
   vertex 0.71593594551086426 0.76319748163223267 -0.10999999940395355
  endloop
 endfacet
 facet normal 0 0 -1
  outer loop
   vertex 0.75871294736862183 0.75379806756973267 -0.10999999940395355
   vertex 0.71593594551086426 0.76319748163223267 -0.10999999940395355
   vertex 0.71661996841430664 0.76507681608200073 -0.10999999940395355
  endloop
 endfacet
 facet normal 0 0 -1
  outer loop
   vertex 0.71661996841430664 0.76507681608200073 -0.10999999940395355
   vertex 0.71593594551086426 0.76319748163223267 -0.10999999940395355
   vertex 0.67612498998641968 0.78176158666610718 -0.10999999940395355
  endloop
 endfacet
 facet normal 0 0 -1
  outer loop
   vertex 0.71661996841430664 0.76507681608200073 -0.10999999940395355
   vertex 0.67612498998641968 0.78176158666610718 -0.10999999940395355
   vertex 0.67712497711181641 0.78349363803863525 -0.10999999940395355
  endloop
 endfacet
 facet normal 0 0 -1
  outer loop
   vertex 0.67712497711181641 0.78349363803863525 -0.10999999940395355
   vertex 0.67612498998641968 0.78176158666610718 -0.10999999940395355
   vertex 0.64014250040054321 0.80695682764053345 -0.10999999940395355
  endloop
 endfacet
 facet normal 0 0 -1
  outer loop
   vertex 0.67712497711181641 0.78349363803863525 -0.10999999940395355
   vertex 0.64014250040054321 0.80695682764053345 -0.10999999940395355
   vertex 0.64142811298370361 0.80848890542984009 -0.10999999940395355
  endloop
 endfacet
 facet normal 0 0 -1
  outer loop
   vertex 0.64142811298370361 0.80848890542984009 -0.10999999940395355
   vertex 0.64014250040054321 0.80695682764053345 -0.10999999940395355
   vertex 0.60908180475234985 0.83801752328872681 -0.10999999940395355
  endloop
 endfacet
 facet normal 0 0 -1
  outer loop
   vertex 0.64142811298370361 0.80848890542984009 -0.10999999940395355
   vertex 0.60908180475234985 0.83801752328872681 -0.10999999940395355
   vertex 0.61061388254165649 0.83930307626724243 -0.10999999940395355
  endloop
 endfacet
 facet normal 0 0 -1
  outer loop
   vertex 0.61061388254165649 0.83930307626724243 -0.10999999940395355
   vertex 0.60908180475234985 0.83801752328872681 -0.10999999940395355
   vertex 0.58388662338256836 0.87400001287460327 -0.10999999940395355
  endloop
 endfacet
 facet normal 0 0 -1
  outer loop
   vertex 0.61061388254165649 0.83930307626724243 -0.10999999940395355
   vertex 0.58388662338256836 0.87400001287460327 -0.10999999940395355
   vertex 0.58561867475509644 0.875 -0.10999999940395355
  endloop
 endfacet
 facet normal 0 0 -1
  outer loop
   vertex 0.58561867475509644 0.875 -0.10999999940395355
   vertex 0.58388662338256836 0.87400001287460327 -0.10999999940395355
   vertex 0.56532245874404907 0.91381090879440308 -0.10999999940395355
  endloop
 endfacet
 facet normal 0 0 -1
  outer loop
   vertex 0.58561867475509644 0.875 -0.10999999940395355
   vertex 0.56532245874404907 0.91381090879440308 -0.10999999940395355
   vertex 0.56720185279846191 0.91449499130249023 -0.10999999940395355
  endloop
 endfacet
 facet normal 0 0 -1
  outer loop
   vertex 0.56720185279846191 0.91449499130249023 -0.10999999940395355
   vertex 0.56532245874404907 0.91381090879440308 -0.10999999940395355
   vertex 0.55395346879959106 0.95624065399169922 -0.10999999940395355
  endloop
 endfacet
 facet normal 0 0 -1
  outer loop
   vertex 0.56720185279846191 0.91449499130249023 -0.10999999940395355
   vertex 0.55395346879959106 0.95624065399169922 -0.10999999940395355
   vertex 0.55592304468154907 0.95658797025680542 -0.10999999940395355
  endloop
 endfacet
 facet normal 0 0 -1
  outer loop
   vertex 0.55592304468154907 0.95658797025680542 -0.10999999940395355
   vertex 0.55395346879959106 0.95624065399169922 -0.10999999940395355
   vertex 0.55012500286102295 1 -0.10999999940395355
  endloop
 endfacet
 facet normal 0 0 -1
  outer loop
   vertex 0.55592304468154907 0.95658797025680542 -0.10999999940395355
   vertex 0.55012500286102295 1 -0.10999999940395355
   vertex 0.55212497711181641 1 -0.10999999940395355
  endloop
 endfacet
endsolid
